<svg width="137" height="137" viewBox="0 0 137 137" fill="none" xmlns="http://www.w3.org/2000/svg">
<g clip-path="url(#clip0_1_187)">
<path fill-rule="evenodd" clip-rule="evenodd" d="M-1.76503 19.4784C-1.76503 19.4784 -1.09264 16.7468 0.273156 16.7468C1.63895 16.7468 2.08021 17.4402 2.08021 19.0162C2.08021 20.6131 1.84908 33.3045 2.54248 36.6875C3.21487 40.0915 5.04294 50.2824 14.0992 52.1105C23.1555 53.9175 51.5011 55.7456 54.9051 81.8008C55.3673 88.8399 55.1152 120.337 55.1152 120.337H50.1353C50.1353 120.337 49.9041 108.781 49.2317 105.145C48.5593 101.51 46.5212 88.3777 32.464 85.4149C18.4067 82.4732 11.8299 80.435 5.4842 73.1858C-0.840495 65.9365 -2.20629 59.5908 -1.97516 50.9758C-1.76503 42.3608 -1.76503 19.4784 -1.76503 19.4784Z" fill="#008D35"/>
<path fill-rule="evenodd" clip-rule="evenodd" d="M19.1002 45.3025C19.1002 45.3025 39.0408 48.9376 51.7322 67.5124C51.7322 67.5124 51.7322 47.7819 30.6569 24.8995C30.6569 24.8995 20.4659 31.4974 19.1002 45.3025Z" fill="#008D35"/>
<path fill-rule="evenodd" clip-rule="evenodd" d="M37.4439 20.1507C37.4439 20.1507 50.8077 42.3607 54.9051 72.2822C54.9051 72.2822 57.1744 37.3808 64.8859 17.4401C64.8859 17.4401 54.0015 11.0944 37.4439 20.1507Z" fill="#008D35"/>
<path fill-rule="evenodd" clip-rule="evenodd" d="M72.8075 20.6133C72.8075 20.6133 59.2126 38.7469 56.2498 77.9558C56.2498 82.7256 65.5373 46.9206 89.113 39.1881C89.134 39.1881 84.3643 25.1519 72.8075 20.6133Z" fill="#008D35"/>
<path fill-rule="evenodd" clip-rule="evenodd" d="M56.9433 91.0882C56.9433 91.0882 56.9432 58.225 90.9411 46.8994C90.9411 46.8994 97.9802 85.4359 56.9433 91.0882Z" fill="#008D35"/>
<path d="M86.9698 83.902H100.313V85.2678H97.7911V91.6555C97.7911 92.1598 97.602 92.6851 97.2658 93.2314C96.9086 93.7777 96.5514 94.0509 96.1732 94.0509L94.5552 92.9793C94.9544 92.9793 95.3327 92.8532 95.6689 92.58C96.0051 92.3069 96.1732 91.9917 96.1732 91.6765V85.2678H90.3107V93.6727L98.8627 98.8627C99.0518 98.9678 99.1779 99.0518 99.2409 99.1569C99.325 99.2409 99.4721 99.4511 99.7032 99.7242C99.7873 99.8713 99.8293 100.018 99.8293 100.186C99.8293 100.313 99.8293 100.481 99.8083 100.733C99.8083 101.216 99.5561 101.804 99.0518 102.477L98.2954 103.17L97.2028 102.036C97.2658 102.015 97.3709 101.952 97.539 101.804C97.7071 101.678 97.9382 101.489 98.2113 101.237C98.4845 100.985 98.6736 100.796 98.7787 100.712C98.8837 100.607 98.9258 100.502 98.9258 100.418L98.8627 99.9974L98.6526 99.8293L88.5667 93.8198V85.2678H86.9488V83.902H86.9698Z" fill="#008D35"/>
<path d="M99.9133 83.902H112.374V85.2678H109.936V99.6192L108.171 98.3164V93.6096C107.898 93.9458 107.688 94.1139 107.541 94.198C107.037 94.5132 106.406 94.6813 105.65 94.6813C104.746 94.6813 103.759 93.9879 102.666 92.6221C101.762 91.4244 101.321 90.6679 101.321 90.3948V85.2678H99.9133V83.902ZM108.192 85.2678H102.981V91.5294L103.275 92.3489C103.59 92.8112 104.2 93.0423 105.082 93.0423C105.734 93.0423 106.469 92.8322 107.247 92.3909C107.814 92.0127 108.108 91.7396 108.171 91.5925V85.2678H108.192Z" fill="#008D35"/>
<path d="M111.281 83.9019H113.823V83.6288C113.823 83.1665 113.487 82.326 112.836 81.0653C111.806 79.3002 110.546 78.4177 109.054 78.4177C108.297 78.4177 107.751 78.6909 107.394 79.2372C107.142 79.5524 106.973 79.8676 106.91 80.1828C106.826 80.4349 106.805 80.7921 106.805 81.2544L106.889 82.0739L107.1 82.7883C107.289 83.2506 107.583 83.6078 107.94 83.8389L107.52 83.9019L106.616 82.6622C106.007 81.5696 105.713 80.582 105.713 79.7205C105.713 78.88 105.923 78.2076 106.343 77.7243C106.931 77.115 107.688 76.8208 108.654 76.8208C110.251 76.8208 111.68 77.9555 112.92 80.2878C113.971 82.242 114.391 83.4397 114.223 83.8809H117.795V85.2467H115.336V99.5981L113.613 98.2953V85.2467H111.449L111.281 83.9019Z" fill="#008D35"/>
<path d="M117.417 83.902H130.633V85.2678H127.65V88.9239H121.598C121.136 88.9239 120.8 89.029 120.589 89.2811C120.379 89.5333 120.274 89.8274 120.274 90.2267C120.274 90.6679 120.4 91.0462 120.631 91.3403C120.947 91.6345 121.283 91.7816 121.661 91.7816C121.955 91.6135 122.165 91.5084 122.291 91.4664C122.417 91.4244 122.586 91.3824 122.796 91.3403C123.069 91.2353 123.363 91.1932 123.636 91.1932H124.414C125.002 91.1932 125.548 91.2563 126.074 91.4034C126.62 91.5504 127.103 91.7606 127.544 92.0337C128.427 92.6011 128.868 93.4205 128.868 94.5132C128.868 95.2066 128.784 95.8159 128.637 96.3412C128.469 96.8666 128.259 97.3078 127.944 97.644C127.355 98.3374 126.389 98.6946 125.044 98.6946C123.846 98.6946 122.291 97.9382 120.379 96.4463C118.677 95.1015 117.816 94.24 117.816 93.8828L118.026 93.6307C118.467 94.5552 119.308 95.3327 120.526 95.963C121.745 96.5724 123.195 96.8876 124.876 96.8876C125.716 96.8876 126.515 96.6144 127.25 96.0681C127.986 95.5218 128.343 94.9334 128.343 94.3451C128.343 93.6727 128.049 93.2734 127.46 93.1474C126.956 92.9793 126.2 92.8952 125.17 92.8952C124.288 92.8952 123.447 93.0633 122.649 93.3995L122.291 93.5886C122.081 93.5886 121.514 93.0423 120.568 91.9707C119.518 90.731 118.992 89.7434 118.992 89.029C118.992 88.6297 119.161 88.2935 119.518 87.9994C119.875 87.7262 120.253 87.5581 120.673 87.5581H126.095V85.3308H117.396V83.902H117.417Z" fill="#008D35"/>
<path d="M130.024 83.902H136.37V85.2678H133.869V99.6192L132.146 98.3164V85.2678H130.024V83.902Z" fill="#008D35"/>
<path d="M80.3929 119.686L84.9736 105.377H86.6756L91.5505 119.686H89.7434L88.3566 115.357H83.3347L82.0529 119.686H80.3929ZM83.8179 113.824H87.8733L86.6336 109.852C86.2554 108.654 85.9822 107.646 85.7931 106.889C85.646 107.793 85.4149 108.718 85.1417 109.621L83.8179 113.824Z" fill="#008D35"/>
<path d="M92.7902 119.686V105.377H97.2868C98.3374 105.377 99.1149 105.461 99.6192 105.65C100.313 105.902 100.859 106.343 101.258 107.016C101.678 107.688 101.867 108.507 101.867 109.495C101.867 110.777 101.531 111.827 100.859 112.647C100.187 113.466 99.0308 113.866 97.3919 113.866H94.3451V119.686H92.7902ZM94.3871 112.185H97.4759C98.4425 112.185 99.1569 111.974 99.5982 111.533C100.039 111.092 100.271 110.462 100.271 109.579C100.271 109.012 100.165 108.528 99.9344 108.129C99.7032 107.73 99.4511 107.457 99.1359 107.31C98.8207 107.163 98.2534 107.1 97.4339 107.1H94.3871V112.185Z" fill="#008D35"/>
<path d="M103.948 119.686V105.377H112.563V107.079H105.524V111.428H112.1V113.13H105.524V118.005H112.836V119.686H103.948Z" fill="#008D35"/>
<path d="M114.979 119.686V105.377H119.098C120.106 105.377 120.884 105.461 121.409 105.629C122.102 105.86 122.712 106.28 123.216 106.868C123.72 107.478 124.119 108.234 124.414 109.159C124.687 110.083 124.834 111.176 124.834 112.437C124.834 114.055 124.582 115.42 124.098 116.555C123.615 117.69 123.006 118.488 122.249 118.951C121.493 119.434 120.505 119.665 119.287 119.665H114.979V119.686ZM116.555 118.005H119.098C120.106 118.005 120.884 117.837 121.43 117.522C121.955 117.185 122.354 116.66 122.649 115.925C123.027 114.958 123.216 113.803 123.216 112.437C123.216 110.987 123.006 109.852 122.607 109.033C122.207 108.213 121.703 107.646 121.073 107.352C120.652 107.163 119.98 107.079 119.056 107.079H116.555V118.005Z" fill="#008D35"/>
<path d="M125.716 119.686L130.297 105.377H131.999L136.874 119.686H135.067L133.68 115.357H128.658L127.376 119.686H125.716ZM129.141 113.824H133.197L131.957 109.852C131.579 108.654 131.306 107.646 131.117 106.889C130.969 107.793 130.738 108.718 130.465 109.621L129.141 113.824Z" fill="#008D35"/>
</g>
<defs>
<clipPath id="clip0_1_187">
<rect width="137" height="137" fill="white"/>
</clipPath>
</defs>
</svg>
