<svg width="56" height="71" viewBox="0 0 56 71" fill="none" xmlns="http://www.w3.org/2000/svg">
<path d="M24.4905 55.5025C21.7489 58.0361 17.9569 58.6035 14.5936 56.984C13.3778 56.3985 12.3517 55.59 11.5485 54.6217L6.96889 64.7508C6.76053 65.2117 6.99321 65.559 7.10282 65.6869C7.21243 65.8146 7.52024 66.0975 8.0073 65.962L11.3412 65.0341C11.7132 64.9303 12.0976 64.8777 12.4839 64.8775C13.2829 64.8777 14.0656 65.1033 14.7423 65.5283C15.4189 65.9532 15.9619 66.5604 16.3091 67.2801L17.8148 70.396C18.0347 70.8513 18.4472 70.8968 18.6189 70.8934C18.7873 70.8912 19.2015 70.8365 19.4097 70.3757L26.6941 54.2633C25.8729 54.4985 25.1181 54.9229 24.4905 55.5025ZM49.9974 64.7508L45.4178 54.6217C44.6145 55.5902 43.5885 56.3986 42.3726 56.984C39.0092 58.6035 35.2173 58.0361 32.4757 55.5025C31.8481 54.9229 31.0932 54.4984 30.2718 54.2633L37.5562 70.3757C37.7646 70.8366 38.1789 70.8912 38.3471 70.8934C38.5188 70.8968 38.9313 70.8513 39.1512 70.396L40.6569 67.2801C41.004 66.5604 41.5471 65.9532 42.2237 65.5282C42.9003 65.1032 43.6831 64.8777 44.4821 64.8775C44.8608 64.8775 45.245 64.9284 45.6248 65.0341L48.9587 65.962C49.4457 66.0976 49.7537 65.8148 49.8632 65.6869C49.973 65.5589 50.2057 65.2115 49.9974 64.7508Z" fill="white"/>
<path d="M53.5947 29.1087C49.7913 26.5044 48.6111 21.3336 50.908 17.337C52.2885 14.9345 51.57 12.5605 50.4373 11.1398C49.3043 9.71953 47.1495 8.49088 44.5003 9.30197C40.0934 10.6518 35.3144 8.35078 33.6216 4.06309C32.6041 1.48574 30.3 0.567383 28.4832 0.567383C26.6663 0.567383 24.3622 1.48574 23.3447 4.06322C21.6519 8.35105 16.8733 10.6518 12.466 9.3021C9.81651 8.49116 7.66209 9.71953 6.52904 11.1399C5.39627 12.5606 4.67776 14.9344 6.05832 17.3371C8.35518 21.3336 7.17502 26.5045 3.37165 29.1088C1.08522 30.6745 0.702687 33.1251 1.10679 34.8964C1.51089 36.6678 2.91906 38.7095 5.65834 39.1281C10.215 39.8242 13.5217 43.9707 13.1867 48.5681C12.985 51.3318 14.6626 53.159 16.2994 53.9474C17.9364 54.7357 20.4108 54.9082 22.4458 53.0274C24.1383 51.4633 26.3111 50.6809 28.483 50.6809C30.6557 50.6809 32.8273 51.4629 34.5201 53.0274C36.5554 54.9083 39.0299 54.7358 40.6667 53.9474C42.3036 53.1591 43.981 51.332 43.7795 48.5682C43.4445 43.9708 46.7512 39.8243 51.3078 39.1281C54.0471 38.7095 55.455 36.6676 55.8594 34.8964C56.2636 33.1248 55.8808 30.6742 53.5947 29.1087ZM28.4832 46.7083C18.5146 46.7083 10.4045 38.5983 10.4045 28.6297C10.4045 18.6611 18.5144 10.5509 28.4832 10.5509C38.4519 10.5509 46.5618 18.661 46.5618 28.6296C46.5616 38.5981 38.4517 46.7083 28.4832 46.7083Z" fill="white"/>
<path d="M28.4831 13.922C20.373 13.922 13.7751 20.52 13.7751 28.6299C13.7751 36.7398 20.3729 43.3378 28.4831 43.3378C36.5932 43.3378 43.191 36.7398 43.191 28.6299C43.191 20.52 36.5931 13.922 28.4831 13.922ZM36.0204 27.2039L26.8668 33.8897C26.6859 34.0218 26.4806 34.1165 26.2627 34.1684C26.0448 34.2202 25.8188 34.2281 25.5978 34.1916C25.3768 34.155 25.1653 34.0748 24.9757 33.9556C24.7861 33.8365 24.6221 33.6807 24.4934 33.4974L21.7554 29.5989C21.2204 28.837 21.4043 27.7859 22.1659 27.2509C22.9277 26.7159 23.9787 26.8996 24.5139 27.6614L26.2652 30.155L34.0324 24.4819C34.7841 23.9332 35.8386 24.0969 36.3875 24.8488C36.9365 25.6004 36.7721 26.6547 36.0204 27.2039Z" fill="white"/>
</svg>
