<svg width="60" height="60" viewBox="0 0 60 60" fill="none" xmlns="http://www.w3.org/2000/svg">
<path d="M50.5404 47.1486C49.332 43.5522 44.5158 41.301 41.082 39.792C39.7368 39.2028 36.0126 38.2032 35.565 36.5094C35.4048 35.8992 35.4264 35.3238 35.5578 34.7724C35.3489 34.8134 35.1365 34.8345 34.9236 34.8354H32.6862C31.8277 34.8344 31.0047 34.4929 30.3977 33.8858C29.7908 33.2787 29.4494 32.4557 29.4486 31.5972C29.4486 29.8134 30.9006 28.3632 32.6862 28.3632H34.9236C35.6628 28.3632 36.3636 28.6134 36.9288 29.0598C37.733 28.9537 38.5269 28.7799 39.3018 28.5402C40.2804 26.49 41.0436 24.0384 41.2146 21.9282C41.9448 12.8994 36.4098 7.61698 28.4736 8.53018C22.7034 9.19438 19.2564 13.497 18.8838 19.0362C18.507 24.6822 20.6004 28.8522 22.824 31.911C23.7978 33.2484 24.8208 34.1082 24.6636 35.7198C24.4812 37.6254 22.4436 38.1564 20.9862 38.742C19.2594 39.4356 17.3994 40.488 16.521 40.9746C13.4952 42.6456 10.1742 44.658 9.42782 47.4108C7.77482 53.5116 13.3572 55.3596 17.9658 56.2128C21.921 56.9424 26.3808 57 30.0492 57C36.6846 57 48.6162 56.7342 50.5404 51.7464C51.0876 50.331 50.853 48.0756 50.5404 47.1486Z" fill="white"/>
<path d="M36.3396 30.6858C36.1864 30.4499 35.9768 30.256 35.7298 30.1216C35.4827 29.9872 35.206 29.9165 34.9248 29.916H32.6874C32.4623 29.91 32.2383 29.9491 32.0285 30.0311C31.8188 30.1131 31.6276 30.2363 31.4663 30.3934C31.3049 30.5505 31.1767 30.7383 31.0891 30.9458C31.0015 31.1533 30.9564 31.3762 30.9564 31.6014C30.9564 31.8266 31.0015 32.0495 31.0891 32.257C31.1767 32.4645 31.3049 32.6523 31.4663 32.8094C31.6276 32.9665 31.8188 33.0897 32.0285 33.1717C32.2383 33.2537 32.4623 33.2928 32.6874 33.2868H34.9248C35.2326 33.2866 35.5344 33.2013 35.7968 33.0405C36.0593 32.8797 36.2722 32.6495 36.4122 32.3754C39.5316 32.13 42.2448 31.1772 44.1492 29.7702C44.5866 30.0522 45.1038 30.2172 45.6618 30.2172H45.8022C46.1719 30.2173 46.5379 30.1445 46.8794 30.003C47.2209 29.8614 47.5311 29.654 47.7924 29.3925C48.0536 29.1309 48.2608 28.8205 48.4019 28.4788C48.5431 28.1372 48.6155 27.7711 48.615 27.4014V21.7806C48.6151 21.2497 48.4645 20.7297 48.1807 20.281C47.8969 19.8324 47.4916 19.4735 47.0118 19.2462C46.599 10.2204 39.1272 3 30 3C20.8728 3 13.3998 10.2204 12.9888 19.2462C12.5087 19.4732 12.103 19.8319 11.8189 20.2806C11.5349 20.7293 11.3842 21.2495 11.3844 21.7806V27.4014C11.3839 27.7709 11.4563 28.1368 11.5973 28.4783C11.7383 28.8198 11.9452 29.1301 12.2062 29.3916C12.4672 29.6531 12.7771 29.8606 13.1183 30.0023C13.4596 30.1439 13.8253 30.217 14.1948 30.2172H14.337C14.7066 30.2171 15.0725 30.1442 15.4139 30.0026C15.7553 29.8611 16.0655 29.6536 16.3266 29.3921C16.5878 29.1306 16.7949 28.8202 16.936 28.4786C17.0772 28.137 17.1496 27.771 17.1492 27.4014V21.7806C17.1489 21.2571 17.0022 20.7442 16.7257 20.2997C16.4492 19.8552 16.0539 19.497 15.5844 19.2654C15.9858 11.6604 22.2966 5.5986 30 5.5986C37.7004 5.5986 44.0142 11.6604 44.4138 19.2654C43.9448 19.4974 43.55 19.8558 43.2738 20.3002C42.9976 20.7446 42.8511 21.2574 42.8508 21.7806V27.4014C42.8508 27.7746 42.9234 28.122 43.0512 28.4466C41.412 29.6196 39.0258 30.4554 36.3396 30.6858Z" fill="white"/>
</svg>
