<svg width="60" height="60" viewBox="0 0 60 60" fill="none" xmlns="http://www.w3.org/2000/svg">
<g clip-path="url(#clip0_1_262)">
<path d="M26.2595 53.6145H26.1997C26.1464 53.0217 25.8732 52.4704 25.4338 52.0689C24.9944 51.6675 24.4206 51.445 23.8255 51.4454H23.7645C23.7115 50.8524 23.4384 50.3007 22.999 49.899C22.5596 49.4973 21.9857 49.2747 21.3903 49.2751H21.3282C21.2854 48.8249 21.1155 48.3963 20.8383 48.039C20.5611 47.6818 20.1881 47.4107 19.7627 47.2574C19.3373 47.1041 18.8771 47.0749 18.4358 47.1732C17.9944 47.2715 17.5901 47.4932 17.27 47.8126L15.6528 49.4286C15.2064 49.8763 14.9557 50.4827 14.9557 51.1149C14.9557 51.7471 15.2064 52.3535 15.6528 52.8012C15.8736 53.0239 16.1363 53.2006 16.4257 53.3213C16.7151 53.442 17.0256 53.5042 17.3391 53.5044H17.3989C17.4549 54.0954 17.7294 54.6444 18.1687 55.0438C18.608 55.4432 19.1805 55.6644 19.7743 55.6641H19.8352C19.8838 56.2203 20.127 56.7415 20.5219 57.136C20.7425 57.3587 21.0049 57.5355 21.2942 57.6562C21.5834 57.7769 21.8937 57.8391 22.2071 57.8391H22.2669C22.3098 58.2898 22.48 58.719 22.7578 59.0765C23.0356 59.4339 23.4094 59.705 23.8355 59.8579C24.2616 60.0108 24.7225 60.0392 25.1642 59.9399C25.6058 59.8405 26.0101 59.6175 26.3298 59.2969L27.9458 57.6809C28.2793 57.3474 28.5065 56.9225 28.5985 56.4599C28.6905 55.9972 28.6433 55.5177 28.4628 55.082C28.2823 54.6462 27.9766 54.2737 27.5844 54.0117C27.1922 53.7497 26.7311 53.6098 26.2595 53.6098V53.6145ZM40.5364 33.4524L33.4466 32.1211C32.7563 31.9925 32.0469 32.0073 31.3626 32.1648C30.6784 32.3223 30.0338 32.619 29.4692 33.0364L22.5446 38.1751C22.2252 38.4117 21.9654 38.7196 21.7858 39.0742C21.6061 39.4288 21.5116 39.8204 21.5096 40.2179C21.5077 40.6154 21.5984 41.0079 21.7746 41.3643C21.9508 41.7206 22.2076 42.031 22.5247 42.2708C23.1223 42.7193 23.8415 42.9768 24.588 43.0097C25.3345 43.0425 26.0736 42.8491 26.7083 42.4547L30.0868 40.336C30.4805 41.1188 31.2141 42.1829 32.4891 42.8391C33.9657 43.5973 35.7622 43.6172 37.8329 42.8965L44.1528 47.4481C44.2705 47.5328 44.4088 47.5841 44.5533 47.5964C44.6977 47.6088 44.8428 47.5819 44.9731 47.5184L49.3219 45.3891L43.9653 31.8247L40.5364 33.4524ZM59.9415 43.2668L53.379 26.12C53.2971 25.9061 53.1348 25.7326 52.9269 25.6365C52.719 25.5404 52.4817 25.5293 52.2657 25.6055L49.9114 26.4458L53.393 36.0551C53.4324 36.1637 53.45 36.279 53.4448 36.3943C53.4396 36.5097 53.4117 36.6229 53.3628 36.7275C53.3138 36.8321 53.2447 36.926 53.1594 37.0039C53.0741 37.0817 52.9743 37.142 52.8657 37.1813C52.7699 37.2159 52.6688 37.2337 52.5669 37.234C52.3872 37.2328 52.2123 37.1765 52.0657 37.0728C51.919 36.9691 51.8076 36.8229 51.7466 36.654L48.2579 27.0352L45.3516 28.0723C45.2406 28.1121 45.1387 28.1739 45.0519 28.2538C44.9652 28.3338 44.8954 28.4303 44.8466 28.5377C44.7979 28.6452 44.7712 28.7613 44.7682 28.8792C44.7651 28.9971 44.7858 29.1145 44.829 29.2243L51.743 46.7309C51.786 46.8406 51.8507 46.9406 51.9332 47.0248C52.0157 47.1089 52.1143 47.1756 52.2232 47.2208C52.332 47.2659 52.4489 47.2887 52.5667 47.2877C52.6846 47.2867 52.801 47.2619 52.9091 47.2149L59.4716 44.3872C59.6792 44.2971 59.8441 44.1302 59.9317 43.9214C60.0192 43.7127 60.0227 43.4781 59.9415 43.2668ZM15.1559 28.5376C15.1076 28.4295 15.0379 28.3323 14.9511 28.2518C14.8643 28.1712 14.7622 28.109 14.6509 28.0688L11.7423 27.0352L8.25711 36.6551C8.19604 36.8241 8.08467 36.9702 7.93801 37.0739C7.79134 37.1777 7.61642 37.2339 7.43679 37.2352C7.3349 37.2349 7.23381 37.2171 7.13797 37.1825C7.02936 37.1432 6.92957 37.0829 6.84428 37.005C6.75899 36.9272 6.68988 36.8333 6.64091 36.7287C6.59193 36.6241 6.56405 36.5109 6.55885 36.3955C6.55366 36.2801 6.57125 36.1649 6.61062 36.0563L10.0923 26.4469L7.73445 25.6055C7.51814 25.5286 7.28031 25.5393 7.07183 25.6355C6.86334 25.7316 6.70075 25.9055 6.61883 26.12L0.0586696 43.2668C-0.0226704 43.478 -0.0193205 43.7124 0.0680201 43.9212C0.155361 44.1299 0.319943 44.2969 0.52742 44.3872L7.08992 47.2149C7.19802 47.2616 7.31441 47.2861 7.43217 47.2869C7.54992 47.2878 7.66665 47.265 7.77541 47.2198C7.88418 47.1747 7.98276 47.1081 8.0653 47.0241C8.14785 46.9402 8.21268 46.8404 8.25593 46.7309L15.17 29.2243C15.2136 29.1147 15.2348 28.9974 15.2324 28.8795C15.23 28.7615 15.204 28.6453 15.1559 28.5376Z" fill="white"/>
<path d="M44.6227 49.3582C44.0851 49.3588 43.561 49.1898 43.125 48.8754L37.5129 44.8324C36.697 45.0582 35.8551 45.1764 35.0086 45.184C33.8544 45.195 32.7145 44.9281 31.6852 44.4059C30.8798 43.9906 30.1633 43.4222 29.5758 42.7324L27.6422 43.9453C26.7054 44.5293 25.6138 44.8159 24.511 44.7674C23.4081 44.7189 22.3459 44.3375 21.4641 43.6734C20.9294 43.2689 20.4964 42.7454 20.1993 42.1444C19.9022 41.5435 19.7491 40.8815 19.7523 40.2111C19.7555 39.5407 19.9148 38.8803 20.2176 38.2822C20.5204 37.684 20.9584 37.1647 21.4969 36.7652L26.516 33.0398L26.3203 32.8992C25.6286 32.4039 24.8332 32.0726 23.9945 31.9305C23.1557 31.7884 22.2955 31.8391 21.4793 32.0789L18.5074 32.9637L16.1426 31.5504L10.4613 45.9293L14.4258 48.1641L16.0266 46.5633C16.8039 45.787 17.8576 45.351 18.9562 45.351C20.0549 45.351 21.1086 45.787 21.8859 46.5633C22.225 46.9036 22.5025 47.3001 22.7062 47.7352C23.2371 47.9143 23.7263 48.1987 24.1445 48.5714C24.5628 48.9442 24.9014 49.3975 25.1402 49.9043C25.6713 50.0831 26.1608 50.3675 26.5793 50.7402C26.9978 51.113 27.3366 51.5665 27.5754 52.0734C28.2447 52.2975 28.8456 52.6889 29.3213 53.2103C29.7969 53.7318 30.1315 54.3661 30.2932 55.0532C30.455 55.7402 30.4385 56.4571 30.2455 57.136C30.0525 57.8149 29.6892 58.4333 29.1902 58.9324L29.168 58.9559L29.509 59.2113C30.1077 59.6576 30.8475 59.8725 31.5921 59.8165C32.3367 59.7605 33.0361 59.4374 33.5613 58.9066L33.6609 58.8059C34.1046 58.353 34.3991 57.7751 34.5047 57.15C35.0334 57.2993 35.5924 57.3052 36.1242 57.167C36.6559 57.0288 37.1413 56.7515 37.5305 56.3637L37.6031 56.291C38.0962 55.7989 38.4078 55.1539 38.4867 54.4617C39.0196 54.6205 39.5854 54.6318 40.1242 54.4946C40.663 54.3574 41.1545 54.0767 41.5465 53.6824L41.5957 53.6332C42.0736 53.1546 42.3815 52.5327 42.4723 51.8625C42.9272 51.9709 43.4009 51.9746 43.8575 51.8733C44.3141 51.7719 44.7418 51.5683 45.1082 51.2776C45.4746 50.9869 45.7702 50.6168 45.9728 50.1952C46.1753 49.7736 46.2794 49.3115 46.2773 48.8438L45.75 49.1016C45.3986 49.2716 45.0131 49.3594 44.6227 49.3582ZM47.6883 13.7695C47.6883 13.885 47.711 13.9992 47.7552 14.1059C47.7994 14.2125 47.8641 14.3094 47.9457 14.391C48.0273 14.4726 48.1242 14.5374 48.2308 14.5815C48.3375 14.6257 48.4518 14.6484 48.5672 14.6484H53.4375C53.6706 14.6484 53.8942 14.5558 54.059 14.391C54.2238 14.2262 54.3164 14.0026 54.3164 13.7695C54.3164 13.5364 54.2238 13.3129 54.059 13.1481C53.8942 12.9832 53.6706 12.8906 53.4375 12.8906H48.5672C48.3341 12.8906 48.1105 12.9832 47.9457 13.1481C47.7809 13.3129 47.6883 13.5364 47.6883 13.7695ZM46.7414 9.76289C46.8976 9.7641 47.0513 9.72365 47.1867 9.64571L50.8383 7.5C51.0403 7.38206 51.1872 7.18868 51.2466 6.96243C51.3061 6.73618 51.2732 6.49558 51.1553 6.29356C51.0373 6.09154 50.844 5.94465 50.6177 5.8852C50.3914 5.82575 50.1508 5.85862 49.9488 5.97657L46.2961 8.12578C46.1278 8.22264 45.9963 8.3725 45.9222 8.55196C45.8481 8.73142 45.8354 8.93037 45.8863 9.11776C45.9372 9.30515 46.0486 9.47042 46.2033 9.58777C46.358 9.70511 46.5472 9.76793 46.7414 9.76641V9.76289ZM46.2961 19.4133L49.9488 21.5625C50.0489 21.6209 50.1594 21.659 50.2742 21.6747C50.3889 21.6904 50.5057 21.6833 50.6177 21.6539C50.7297 21.6244 50.8349 21.5732 50.9271 21.5032C51.0193 21.4331 51.0969 21.3455 51.1553 21.2455C51.2137 21.1455 51.2518 21.0349 51.2675 20.9202C51.2832 20.8054 51.2761 20.6887 51.2466 20.5766C51.2172 20.4646 51.166 20.3595 51.0959 20.2672C51.0259 20.175 50.9383 20.0975 50.8383 20.0391L47.1867 17.8945C47.0872 17.8339 46.9765 17.7937 46.8613 17.7762C46.746 17.7587 46.6284 17.7644 46.5154 17.7928C46.4023 17.8212 46.296 17.8718 46.2027 17.9417C46.1094 18.0116 46.0309 18.0993 45.9718 18.1998C45.9128 18.3003 45.8743 18.4116 45.8586 18.5271C45.8429 18.6426 45.8504 18.7601 45.8806 18.8727C45.9108 18.9853 45.9631 19.0908 46.0344 19.183C46.1057 19.2752 46.1947 19.3523 46.2961 19.4098V19.4133ZM6.5625 14.6484H11.4328C11.6659 14.6484 11.8895 14.5558 12.0543 14.391C12.2191 14.2262 12.3117 14.0026 12.3117 13.7695C12.3117 13.5364 12.2191 13.3129 12.0543 13.1481C11.8895 12.9832 11.6659 12.8906 11.4328 12.8906H6.5625C6.3294 12.8906 6.10585 12.9832 5.94102 13.1481C5.77619 13.3129 5.68359 13.5364 5.68359 13.7695C5.68359 14.0026 5.77619 14.2262 5.94102 14.391C6.10585 14.5558 6.3294 14.6484 6.5625 14.6484ZM9.16172 7.5L12.8133 9.64454C12.9128 9.70517 13.0235 9.7454 13.1387 9.76287C13.254 9.78034 13.3716 9.7747 13.4846 9.74629C13.5977 9.71788 13.704 9.66726 13.7973 9.59738C13.8906 9.5275 13.9691 9.43976 14.0282 9.33925C14.0872 9.23875 14.1257 9.1275 14.1414 9.01198C14.1571 8.89646 14.1496 8.77898 14.1194 8.66638C14.0892 8.55377 14.0369 8.4483 13.9656 8.35609C13.8943 8.26389 13.8053 8.18679 13.7039 8.1293L10.0512 5.97657C9.95114 5.91816 9.84059 5.88004 9.72582 5.86436C9.61106 5.84868 9.49433 5.85576 9.3823 5.8852C9.15605 5.94465 8.96268 6.09154 8.84473 6.29356C8.72678 6.49558 8.69391 6.73618 8.75336 6.96243C8.81281 7.18868 8.9597 7.38206 9.16172 7.5ZM12.8133 17.8981L9.16172 20.0391C8.9597 20.157 8.81281 20.3504 8.75336 20.5766C8.69391 20.8029 8.72678 21.0435 8.84473 21.2455C8.96268 21.4475 9.15605 21.5944 9.3823 21.6539C9.60855 21.7133 9.84915 21.6805 10.0512 21.5625L13.7039 19.4168C13.8053 19.3593 13.8943 19.2822 13.9656 19.19C14.0369 19.0978 14.0892 18.9923 14.1194 18.8797C14.1496 18.7671 14.1571 18.6496 14.1414 18.5341C14.1257 18.4186 14.0872 18.3073 14.0282 18.2068C13.9691 18.1063 13.8906 18.0186 13.7973 17.9487C13.704 17.8788 13.5977 17.8282 13.4846 17.7998C13.3716 17.7714 13.254 17.7658 13.1387 17.7832C13.0235 17.8007 12.9128 17.8409 12.8133 17.9016V17.8981ZM30 22.2656C31.6804 22.2656 33.323 21.7673 34.7202 20.8338C36.1174 19.9002 37.2063 18.5733 37.8494 17.0208C38.4924 15.4684 38.6607 13.7601 38.3328 12.112C38.005 10.4639 37.1958 8.95009 36.0076 7.76189C34.8194 6.57369 33.3056 5.76452 31.6575 5.43669C30.0094 5.10887 28.3011 5.27712 26.7487 5.92017C25.1962 6.56322 23.8693 7.65218 22.9358 9.04936C22.0022 10.4465 21.5039 12.0892 21.5039 13.7695C21.5064 16.0221 22.4023 18.1817 23.9951 19.7744C25.5879 21.3672 27.7475 22.2631 30 22.2656ZM24.7125 12.7523C24.8828 12.5932 25.1094 12.5083 25.3423 12.5162C25.5753 12.5241 25.7956 12.6242 25.9547 12.7945L28.6711 15.7031L34.0453 9.94571C34.2044 9.77477 34.425 9.67404 34.6584 9.66569C34.8918 9.65734 35.1189 9.74205 35.2898 9.90118C35.4608 10.0603 35.5615 10.2808 35.5699 10.5142C35.5782 10.7476 35.4935 10.9748 35.3344 11.1457L29.318 17.591C29.2356 17.6796 29.1359 17.7503 29.025 17.7986C28.9141 17.8469 28.7944 17.8718 28.6734 17.8718C28.5525 17.8718 28.4328 17.8469 28.3219 17.7986C28.211 17.7503 28.1113 17.6796 28.0289 17.591L24.6715 13.9934C24.5927 13.9092 24.5312 13.8103 24.4906 13.7024C24.45 13.5945 24.431 13.4796 24.4349 13.3644C24.4387 13.2491 24.4651 13.1357 24.5128 13.0307C24.5604 12.9257 24.6283 12.8311 24.7125 12.7523Z" fill="white"/>
<path d="M30 27.5391C32.7234 27.5391 35.3856 26.7315 37.6499 25.2185C39.9143 23.7055 41.6792 21.555 42.7214 19.0389C43.7636 16.5229 44.0363 13.7543 43.505 11.0832C42.9737 8.41221 41.6622 5.95871 39.7365 4.03301C37.8108 2.1073 35.3573 0.795884 32.6863 0.264584C30.0153 -0.266717 27.2467 0.00596613 24.7306 1.04815C22.2146 2.09033 20.0641 3.85521 18.5511 6.1196C17.038 8.38398 16.2305 11.0462 16.2305 13.7695C16.2345 17.4202 17.6865 20.9202 20.2679 23.5016C22.8493 26.083 26.3493 27.535 30 27.5391ZM30 3.51563C32.028 3.51563 34.0105 4.11701 35.6968 5.24373C37.383 6.37044 38.6973 7.97188 39.4734 9.84554C40.2495 11.7192 40.4525 13.7809 40.0569 15.77C39.6612 17.759 38.6846 19.5861 37.2506 21.0201C35.8166 22.4542 33.9895 23.4308 32.0004 23.8264C30.0114 24.2221 27.9497 24.019 26.076 23.2429C24.2023 22.4668 22.6009 21.1525 21.4742 19.4663C20.3475 17.7801 19.7461 15.7976 19.7461 13.7695C19.7492 11.051 20.8305 8.44466 22.7528 6.52236C24.6751 4.60005 27.2814 3.51873 30 3.51563Z" fill="white"/>
</g>
<defs>
<clipPath id="clip0_1_262">
<rect width="60" height="60" fill="white"/>
</clipPath>
</defs>
</svg>
