<svg width="222" height="109" viewBox="0 0 222 109" fill="none" xmlns="http://www.w3.org/2000/svg">
<g clip-path="url(#clip0_1_203)">
<path fill-rule="evenodd" clip-rule="evenodd" d="M138.296 87.8111C131.078 87.8111 135.784 71.9392 137.02 68.368C138.664 63.183 141.381 58.3981 144.996 54.3215C146.736 53.1688 148.699 52.3898 150.759 52.0346C152.819 51.6793 154.93 51.7554 156.959 52.2581C159.015 52.5878 161.042 53.0787 163.021 53.7262L161.505 61.2654L159.033 66.1857C157.746 68.5547 156.321 70.8467 154.766 73.0502L149.98 79.2007L145.514 84.0415C143.499 86.0762 140.914 87.459 138.097 88.0095L138.296 87.8111ZM159.232 71.7012C159.232 72.4154 158.235 77.2166 158.036 78.3276C157.597 80.51 157.198 82.6528 156.76 84.8749C155.843 89.2793 157.039 94.5171 162.223 94.5567C167.039 94.1411 171.562 92.0801 175.024 88.7237C176.14 87.7714 176.499 87.335 177.576 86.3033C178.234 85.6223 178.821 84.878 179.33 84.0812C179.573 82.942 179.746 81.7892 179.849 80.6291L177.257 83.367C175.876 84.7901 174.397 86.116 172.831 87.335C171.355 88.3667 168.245 90.5489 166.331 89.4379C164.416 88.3269 165.573 83.6843 165.892 81.9781C166.211 80.2719 166.45 79.4783 166.729 78.0101C168.005 71.582 169.481 65.1938 170.717 58.8848L173.149 47.2981C171.913 47.2981 170.597 47.0601 169.84 47.0601C164.911 46.6561 159.955 46.7492 155.045 47.3378C152.498 47.7478 150.009 48.4537 147.628 49.441C145.736 50.2556 143.944 51.2804 142.284 52.4962L140.29 54.0834C138.057 55.8105 136.013 57.7654 134.189 59.9162C130.287 64.4923 127.551 69.9366 126.213 75.7881C125.403 78.4147 125.144 81.1793 125.453 83.9098C125.761 86.6402 126.631 89.2781 128.008 91.66C131.637 96.4612 137.18 94.6361 141.566 92.0569C142.754 91.3044 143.887 90.469 144.956 89.5571C145.235 89.3587 145.355 89.1999 145.594 89.0015C146.906 87.9203 148.145 86.7538 149.303 85.5097L151.576 83.0495C154.319 79.7405 156.762 76.1951 158.873 72.4551C159.073 72.0583 159.073 71.9393 159.352 71.7012H159.232Z" fill="#2E3192"/>
<path fill-rule="evenodd" clip-rule="evenodd" d="M45.381 37.2989H37.8041V32.8548H46.2582C46.3597 31.9854 46.5195 31.1236 46.7367 30.2755C48.0128 23.7284 47.8934 19.681 52.1603 14.4036C53.7679 12.5511 55.8899 11.2123 58.2595 10.5558C60.6292 9.89925 63.1409 9.9542 65.4794 10.7135C66.2527 10.9249 67.0013 11.2175 67.7125 11.5863L69.7862 12.618L76.3263 6.1502C75.7281 6.1502 74.6514 5.87238 74.0532 5.8327C66.7251 4.96335 59.3091 6.43664 52.8781 10.039C49.1039 12.4518 45.8467 15.5836 43.2939 19.2541C40.7411 22.9247 38.9432 27.0614 38.0037 31.4261C37.6049 33.2514 38.0037 32.8547 36.9668 32.8151H26.5189C25.9207 32.8151 25.9605 32.8149 25.9605 33.4498V37.4178H36.8072C36.8072 38.0527 36.0895 41.6635 35.93 42.5761C35.6508 44.2823 35.3319 45.9887 34.973 47.7346C33.6969 54.4405 32.62 61.7811 31.304 68.4473C30.9451 70.1535 30.666 71.8597 30.3869 73.6056C30.1078 75.3515 29.7489 77.0577 29.4299 78.8036C27.755 88.0093 26.7181 100.826 16.1505 102.135C12.5574 102.367 8.95354 101.896 5.54308 100.747L4.22704 102.294C3.78839 102.85 3.27007 103.286 2.83142 103.881L0.478515 106.579C0.159492 106.976 0.0398779 106.976 0 107.492C5.46706 108.041 10.9887 107.625 16.3101 106.262L17.586 105.786C20.054 104.827 22.3552 103.488 24.4052 101.818L26.2397 100.112C26.7581 99.3974 27.795 98.3656 28.752 97.0959C29.7091 95.8261 29.749 95.7072 30.2674 94.9533C30.7858 94.1994 31.1047 93.5248 31.5832 92.7312C35.426 84.9866 38.1129 76.7257 39.5588 68.2092C39.9575 66.2253 40.3961 64.2414 40.7551 62.0987C41.752 56.0673 43.1479 49.7186 44.1847 43.7667L45.3012 37.6161L45.381 37.2989Z" fill="#2E3192"/>
<path fill-rule="evenodd" clip-rule="evenodd" d="M45.381 37.2989H220.126L222 32.6562H190.098H188.503C187.147 32.6562 117.799 32.6562 117.361 32.6562H50.605C49.3289 32.6562 47.1754 32.6562 46.2582 32.6562H37.8041V37.1004H45.381V37.2989Z" fill="#F37032"/>
<path fill-rule="evenodd" clip-rule="evenodd" d="M191.055 51.0677C191.755 50.9707 192.468 51.012 193.152 51.189C193.836 51.366 194.478 51.6753 195.042 52.0994C196.917 53.9643 195.72 57.6546 195.282 60.0353C195.003 61.5828 194.763 63.0114 194.444 64.5589L191.852 78.0895C191.334 80.5497 189.38 89.9935 189.38 91.8585C189.088 94.425 189.818 97.003 191.414 99.0405C192.159 99.8643 193.089 100.502 194.128 100.902C195.168 101.302 196.287 101.452 197.395 101.342C201.435 100.903 205.286 99.4111 208.561 97.0168L215.061 91.9377C215.149 90.6165 215.149 89.2909 215.061 87.9697C214.543 87.9697 214.064 88.9222 213.426 89.3984C211.735 90.9477 209.906 92.3421 207.963 93.5647C206.408 94.517 202.858 96.2232 201.263 94.3186C199.668 92.414 200.546 89.1999 200.945 87.1366L210.316 41.1875C209.757 41.4653 208.8 41.6636 208.122 41.9017C204.573 43.0524 200.625 44.2031 197.116 45.3538L186.07 48.8456C184.913 49.1631 184.196 49.2822 184.156 49.9171C183.837 53.2105 183.757 52.8533 184.914 52.5358L186.11 52.2183C187.674 51.7261 189.274 51.3548 190.895 51.1074L191.055 51.0677Z" fill="#F37032"/>
<path fill-rule="evenodd" clip-rule="evenodd" d="M92.3969 60.1148C92.3186 61.6678 92.5773 63.2194 93.1553 64.664C93.7333 66.1087 94.6172 67.4126 95.7468 68.4872L102.048 75.55C103.219 76.7237 104.213 78.0603 104.998 79.518C105.642 80.3958 106.054 81.421 106.194 82.4988C106.335 83.5766 106.2 84.6724 105.803 85.6848C105.405 86.6971 104.758 87.5936 103.92 88.2912C103.083 88.9888 102.082 89.4649 101.011 89.676C99.9264 89.8334 98.8249 89.8334 97.7407 89.676C95.7766 89.4737 93.8543 88.9788 92.0382 88.2079C90.3561 87.4963 88.7298 86.6607 87.1729 85.708C86.814 86.3032 84.222 88.7636 83.6637 89.3984L81.5503 91.66C83.3178 92.3963 85.1456 92.9805 87.0135 93.4059C90.3625 94.3333 93.8709 94.5442 97.3077 94.0244C100.744 93.5046 104.032 92.2661 106.952 90.3904C108.539 89.2538 109.892 87.826 110.94 86.1842C111.518 85.3387 111.974 84.4174 112.296 83.4465C112.894 81.6558 113.032 79.7445 112.698 77.8871C112.363 76.0297 111.567 74.285 110.382 72.8121L103.084 63.9239C102.048 62.8046 101.115 61.5964 100.293 60.3132C99.3735 58.7569 98.9688 56.9524 99.1363 55.1549C99.5486 53.5205 100.517 52.0781 101.876 51.0728C103.235 50.0676 104.902 49.5612 106.593 49.6393C107.941 49.5239 109.299 49.6859 110.581 50.1155C111.646 50.4129 112.595 51.0223 113.307 51.8645C114.018 52.7068 114.458 53.7428 114.569 54.8374C114.591 55.651 114.511 56.464 114.33 57.2578H117.121C117.361 56.7419 118.078 53.2899 118.238 52.655L119.314 47.8934C118.02 47.3892 116.686 46.9912 115.327 46.7031C110.772 45.8025 106.049 46.3294 101.808 48.2109C100.048 48.9871 98.4202 50.0312 96.983 51.3058L95.986 52.2978C93.8287 54.3883 92.5828 57.2382 92.5167 60.2337L92.3969 60.1148Z" fill="#2E3192"/>
<path fill-rule="evenodd" clip-rule="evenodd" d="M53.2368 60.4717C53.2776 62.9118 54.0711 65.2805 55.5099 67.257L60.8536 73.2089L61.3721 73.7645L64.0837 76.8196C65.7329 78.5098 66.7588 80.7054 66.9947 83.0494C67.0908 84.0192 66.9445 84.9975 66.5688 85.8975C66.1931 86.7974 65.5998 87.5911 64.8414 88.2077C60.8536 91.3027 54.6726 89.2394 50.6449 87.2157L49.3289 86.5412C48.9356 86.2503 48.5068 86.0103 48.0528 85.827L43.8656 90.152C43.3073 90.9059 42.6293 91.3028 42.5097 91.779C42.9319 91.8941 43.3451 92.0399 43.7459 92.2154L45.0619 92.6518C48.7711 94.0158 52.7421 94.5281 56.6782 94.1502C60.6143 93.7723 64.4137 92.514 67.7923 90.4695C69.3682 89.4173 70.7228 88.0695 71.7801 86.5015C73.238 84.4701 73.9847 82.0186 73.9055 79.5237C73.8262 77.0287 72.9255 74.6287 71.3415 72.6931L62.0499 61.4239C61.675 61.0031 61.3781 60.5195 61.1727 59.9955C60.5066 58.777 60.1506 57.4146 60.1359 56.0276C60.1359 48.0916 75.6482 47.4567 75.6482 55.472C75.6482 56.2656 75.4488 56.6625 75.4488 57.337C78.639 57.337 78.2004 57.5752 78.4796 56.3848C78.5399 55.9941 78.6333 55.609 78.7588 55.2339C78.998 54.1626 80.1943 48.5281 80.4336 48.0519C76.7763 46.5747 72.7916 46.0868 68.8835 46.6373C64.9754 47.1878 61.2833 48.7575 58.1819 51.1868L57.1051 52.0993L56.6665 52.6549C55.0854 54.3169 54.0193 56.3972 53.5958 58.6465C53.4744 59.2755 53.3945 59.9117 53.3566 60.5511L53.2368 60.4717Z" fill="#2E3192"/>
<path fill-rule="evenodd" clip-rule="evenodd" d="M197.036 28.6883C196.023 29.7358 194.762 30.5135 193.368 30.9501C192.191 31.3532 190.975 31.6325 189.739 31.7835H188.303C188.236 32.0571 188.236 32.3429 188.303 32.6166H189.898C192.196 32.3864 194.408 31.6255 196.359 30.3945C198.113 29.1248 196.797 29.5614 198.791 29.2836H200.386C209.598 27.4187 213.187 15.4752 213.267 7.02339V3.69019C213.327 2.52703 213.327 1.36153 213.267 0.198364H213.027C212.135 2.65006 210.871 4.95173 209.279 7.02339C203.537 13.3721 194.724 19.6416 196.718 28.8869L197.036 28.6883Z" fill="#008E3C"/>
<path fill-rule="evenodd" clip-rule="evenodd" d="M190.975 21.4271C192.059 21.4271 193.099 21.8555 193.865 22.6182C194.632 23.3809 195.062 24.4155 195.062 25.4941C195.062 26.5728 194.632 27.6074 193.865 28.3701C193.099 29.1328 192.059 29.5614 190.975 29.5614C189.891 29.5614 188.851 29.1328 188.085 28.3701C187.318 27.6074 186.888 26.5728 186.888 25.4941C186.888 24.4155 187.318 23.3809 188.085 22.6182C188.851 21.8555 189.891 21.4271 190.975 21.4271Z" fill="#7F4007"/>
<path fill-rule="evenodd" clip-rule="evenodd" d="M206.886 104.556L204.653 109H0V108.167C10.6474 108.881 17.6659 107.452 22.212 104.556H206.886Z" fill="#008E3C"/>
</g>
<defs>
<clipPath id="clip0_1_203">
<rect width="222" height="109" fill="white"/>
</clipPath>
</defs>
</svg>
