<svg width="60" height="60" viewBox="0 0 60 60" fill="none" xmlns="http://www.w3.org/2000/svg">
<g clip-path="url(#clip0_1_247)">
<path d="M5.51416 35.3906H1.76416C0.792559 35.3906 0.00634766 36.1768 0.00634766 37.1484V58.2422C0.00634766 59.2138 0.792559 60 1.76416 60H5.51416C8.42205 60 10.7876 57.6345 10.7876 54.7266V40.6641C10.7876 37.7562 8.42217 35.3906 5.51416 35.3906ZM59.479 38.8007C59.2681 38.4492 58.9869 38.1679 58.6705 37.9218C57.3762 36.7895 55.1954 36.8965 53.9246 38.2734L45.944 47.4844L45.6979 47.7655C44.7136 48.8554 43.3072 49.4531 41.8308 49.4531H28.1902C27.2057 49.4531 26.4324 48.6796 26.4324 47.6953C26.4324 46.7108 27.2057 45.9375 28.1902 45.9375H38.9128C40.8464 45.9375 42.4285 44.3555 42.4285 42.4219V42.3867C42.3933 40.4531 40.8464 38.9062 38.9128 38.9062H32.5496C31.4953 38.9062 30.3656 38.5192 29.4558 37.746C25.1669 33.9843 18.9089 33.7382 14.3035 36.9375V58.5585C17.7839 59.5078 21.3699 60 24.9908 60H40.6706C44.5377 60 48.1941 58.1718 50.5144 55.078L58.952 43.828C60.1828 42.2121 60.2756 39.9961 59.479 38.8007ZM47.1403 3.39785C45.1907 1.20668 42.488 0 39.5302 0C36.2288 0 33.3669 1.56105 31.2542 4.5143C31.0995 4.73073 30.9509 4.95148 30.8086 5.17629C30.6665 4.95144 30.5179 4.73068 30.3632 4.5143C28.2504 1.56105 25.3886 0 22.0872 0C19.1294 0 16.4267 1.20668 14.4771 3.39773C12.627 5.47711 11.6079 8.25691 11.6079 11.2252C11.6079 14.4507 12.8596 17.4272 15.5467 20.5924C17.8915 23.3539 21.2547 26.1926 25.1488 29.4795C26.5879 30.6941 28.076 31.9501 29.6574 33.3206C29.9768 33.5979 30.3856 33.7504 30.8086 33.7501C31.2316 33.7504 31.6404 33.5979 31.9599 33.3206C33.541 31.9504 35.0289 30.6945 36.4679 29.48C38.969 27.369 41.1288 25.5461 43.0031 23.7777C46.6422 20.3443 50.0094 16.4473 50.0094 11.2253C50.0094 8.25703 48.9905 5.47723 47.1403 3.39785Z" fill="white"/>
</g>
<defs>
<clipPath id="clip0_1_247">
<rect width="60" height="60" fill="white"/>
</clipPath>
</defs>
</svg>
