<svg width="60" height="60" viewBox="0 0 60 60" fill="none" xmlns="http://www.w3.org/2000/svg">
<g clip-path="url(#clip0_1_240)">
<path d="M41.2338 15.8634C40.0699 14.6865 38.1734 14.6717 36.9912 15.8304L14.8162 37.7467L5.1765 27.7673C4.02677 26.569 2.12337 26.5296 0.925202 27.6794C-0.2731 28.8291 -0.312431 30.7325 0.837293 31.9307L0.852791 31.9467L12.6063 44.1271C12.8848 44.4113 13.2169 44.6373 13.5833 44.7921C13.9498 44.9469 14.3433 45.0275 14.7412 45.0292H14.7742C15.5626 45.0267 16.3185 44.7146 16.879 44.1602L41.2067 20.106C42.3821 18.9404 42.394 17.044 41.2338 15.8634ZM30.6469 44.1271C30.9247 44.4105 31.2558 44.6361 31.6211 44.7909C31.9865 44.9458 32.3789 45.0267 32.7757 45.0292H32.8088C33.5972 45.0267 34.353 44.7146 34.9136 44.1602L59.2414 20.106C60.3441 18.8643 60.2314 16.9639 58.9899 15.8612C57.8643 14.8615 56.1729 14.8484 55.0319 15.8304L32.8658 37.7467L32.0751 36.9259C30.9255 35.7276 29.0221 35.6881 27.8238 36.8378C26.6255 37.9874 26.586 39.8908 27.7357 41.0891L27.7514 41.1053L30.6469 44.1271Z" fill="white"/>
</g>
<defs>
<clipPath id="clip0_1_240">
<rect width="60" height="60" fill="white"/>
</clipPath>
</defs>
</svg>
