<svg width="329" height="143" viewBox="0 0 329 143" fill="none" xmlns="http://www.w3.org/2000/svg">
<g clip-path="url(#clip0_1_214)">
<path fill-rule="evenodd" clip-rule="evenodd" d="M92.5145 53.5535H117.907V58.1533H92.5145V53.5535Z" fill="#1E1E1C"/>
<path fill-rule="evenodd" clip-rule="evenodd" d="M92.5145 61.9667H117.907V66.5474H92.5145V61.9667Z" fill="#1E1E1C"/>
<path fill-rule="evenodd" clip-rule="evenodd" d="M36.4467 71.2188C35.9468 71.3727 35.429 71.4608 34.9063 71.481C34.1001 71.5114 33.295 71.3968 32.5292 71.1425V65.475H46.3167V69.9127C45.6008 69.0356 44.7944 68.2367 43.911 67.5294C43.1725 67.1624 42.3582 66.9746 41.5339 66.9812C40.3108 66.8937 39.1009 67.28 38.1535 68.0604C37.2061 68.8409 36.5935 69.956 36.442 71.1759L36.4467 71.2188ZM178.126 65.4702V68.0204H173.847C170.747 68.0204 169.378 69.7841 169.378 71.4286C169.378 73.4544 170.481 75.3372 173.657 79.8894L174.86 78.9837C173.407 77.5324 172.456 75.6534 172.145 73.6212C172.145 71.9529 172.744 70.7612 174.883 70.7612H178.15V78.0828L181.078 80.1086V65.4607H184.292L182.685 62.7198H141.679L143.286 65.4607H145.663V71.5906H140.728V68.0728C140.728 66.1137 139.625 62.7294 136.188 62.7294C135.333 62.6892 134.498 62.9902 133.864 63.5665C133.231 64.1427 132.851 64.9473 132.808 65.8039C132.808 65.8754 132.808 65.9469 132.808 66.0184C132.808 67.8774 134.319 69.6887 137.971 70.5229L137.8 71.5715H136.164C136.044 71.5658 135.923 71.5841 135.81 71.6255C135.697 71.6669 135.593 71.7305 135.504 71.8126C135.416 71.8947 135.345 71.9936 135.295 72.1036C135.245 72.2137 135.217 72.3326 135.213 72.4534C135.211 72.4851 135.211 72.517 135.213 72.5487C135.213 73.6689 138.384 76.6528 139.369 76.6528C140.353 76.6528 140.281 76.1046 140.353 74.2695H145.559V78.0161L148.464 80.0419V65.475H152.4V78.0828L155.281 80.1086V65.4654H161.814V69.9461C161.814 70.2798 161.814 70.5181 161.452 70.5181C161.091 70.5181 160.131 69.7078 159.27 69.7078C159.024 69.7666 158.804 69.9022 158.64 70.0949C158.475 70.2876 158.377 70.5276 158.357 70.7803C158.357 71.2999 158.933 72.1578 160.093 73.5688L165.689 80.2898L166.877 79.1267C165.339 77.6667 163.934 76.0714 162.679 74.36C163.252 74.031 163.741 73.5737 164.108 73.0238C164.475 72.4739 164.71 71.8464 164.795 71.1902V65.4702H178.192H178.126ZM138.237 66.495V69.1167C136.369 68.8069 135.551 67.9489 135.551 66.7334C135.519 66.2568 135.663 65.7851 135.955 65.4075C136.246 65.0298 136.666 64.7724 137.134 64.6837C137.804 64.6837 138.432 65.1985 138.361 66.638L138.237 66.495ZM75.0852 67.3054V65.475H79.6732L78.109 62.7341H23.6481L25.198 65.475H29.7384V70.2416C29.7384 70.48 29.7384 70.6468 29.5625 70.6468C29.3866 70.6468 28.507 69.6935 27.8271 69.6935C27.5279 69.7136 27.2455 69.8397 27.0304 70.0492C26.8153 70.2588 26.6815 70.5382 26.6528 70.8375C26.8647 71.9516 27.3445 72.9972 28.0506 73.8834L33.2376 81.0334L34.4357 79.8417C32.9517 78.298 31.5805 76.6493 30.3327 74.9082C31.1808 74.2384 31.9133 73.4332 32.5006 72.5249C33.2248 73.3931 34.2382 73.9689 35.3532 74.1455C36.0124 74.1306 36.6665 74.0264 37.2978 73.8357C37.7935 74.6968 38.4885 75.4257 39.3243 75.9608C40.16 76.4959 41.112 76.8216 42.0996 76.9102C43.6972 76.7673 45.2022 76.0967 46.3785 75.0036V78.0113L49.1884 80.0371V65.475H72.3134V67.0003C71.467 67.0706 70.6793 67.4627 70.1119 68.0964C69.5444 68.73 69.2401 69.5572 69.2612 70.4085C69.2612 72.1007 70.5829 73.6832 73.2025 75.1752C72.4561 75.9886 71.5562 76.6454 70.5549 77.1077C69.5535 77.57 68.4706 77.8285 67.3689 77.8683C65.8761 77.8683 65.4672 77.4393 65.4672 76.7005C65.4672 75.9616 66.4181 74.8177 69.1898 74.8177L67.987 71.9338C67.0445 71.8291 66.0921 72.0048 65.2485 72.4391C65.0686 72.3286 64.8998 72.2009 64.7445 72.0577L64.2406 71.2665C64.2262 71.1717 64.2262 71.0753 64.2406 70.9805C64.2722 70.5368 64.4783 70.1239 64.8135 69.8325C65.1488 69.5411 65.5857 69.3951 66.0282 69.4265H66.0853C66.7057 69.4263 67.3248 69.4837 67.9347 69.5981L66.6415 66.9765C66.2003 66.8719 65.7493 66.8144 65.296 66.8049C64.5771 66.7472 63.8595 66.9315 63.2567 67.3286C62.654 67.7257 62.2005 68.313 61.968 68.9975L61.4641 68.068H51.5988L53.182 70.8089H55.0077C54.6581 71.4079 54.4835 72.0933 54.5037 72.787C54.697 74.0346 55.3008 75.1815 56.2192 76.0452C57.1376 76.909 58.3177 77.44 59.5718 77.5537C60.9168 77.3787 62.182 76.8156 63.2136 75.933C63.6991 77.1253 64.5103 78.156 65.5541 78.9065C66.5979 79.657 67.8317 80.0968 69.1138 80.1754C71.295 80.0575 73.358 79.1445 74.9148 77.6083C76.4716 76.0721 77.4148 74.0184 77.567 71.8337C77.3372 70.0692 76.4212 68.4673 75.0187 67.3769L75.0852 67.3054ZM62.2152 70.7612C62.4903 71.3025 62.8321 71.8069 63.2327 72.2627C61.8987 73.8398 60.0415 74.8808 58.0029 75.1942C57.285 75.1942 56.9189 74.913 56.9189 74.2409C56.9734 73.6148 57.1738 73.0104 57.5042 72.4763C57.8345 71.9423 58.2855 71.4935 58.8206 71.1664C59.5846 70.869 60.4033 70.7389 61.2216 70.785L62.2152 70.7612ZM73.9347 74.1694C73.4342 73.8505 73.0178 73.4155 72.7207 72.901C72.4236 72.3866 72.2546 71.8079 72.2279 71.214C72.1835 70.6489 72.3553 70.088 72.7086 69.6453C73.0618 69.2026 73.5699 68.9113 74.1296 68.8307C74.6811 68.8307 75.1138 69.3074 75.1138 70.6182C75.0367 71.893 74.6321 73.1262 73.9394 74.198L73.9347 74.1694ZM40.7019 74.6889C40.4948 74.6889 40.2898 74.648 40.0985 74.5684C39.9073 74.4888 39.7336 74.3722 39.5874 74.2251C39.4412 74.0781 39.3254 73.9036 39.2466 73.7117C39.1678 73.5197 39.1276 73.314 39.1282 73.1064C39.1282 73.0444 39.1282 72.9825 39.1282 72.9253C39.1103 72.5261 39.1712 72.1272 39.3074 71.7517C39.4436 71.3761 39.6524 71.0312 39.9219 70.7367C40.1913 70.4422 40.5161 70.2039 40.8775 70.0356C41.239 69.8672 41.6301 69.772 42.0283 69.7554C43.6612 69.7936 45.2238 70.4294 46.4213 71.5429V71.9243C44.7253 73.2428 42.7693 74.1851 40.6829 74.6889H40.7019Z" fill="#1E1E1C"/>
<path fill-rule="evenodd" clip-rule="evenodd" d="M18.5419 133.672V127.499H28.1456V131.288C27.8386 130.532 27.3325 129.873 26.6813 129.382C26.113 129.102 25.4887 128.955 24.8556 128.953C23.9636 128.898 23.0863 129.2 22.4168 129.794C21.7472 130.388 21.3402 131.223 21.2851 132.118C21.2851 132.165 21.2851 132.213 21.2851 132.261C21.4759 133.315 22.0155 134.274 22.8169 134.984C23.6183 135.693 24.6346 136.11 25.7019 136.169C26.6535 136.069 27.5514 135.678 28.274 135.049V137.194L30.48 138.748V133.81C31.3667 132.949 32.4458 132.313 33.6274 131.956C33.8158 131.971 33.9921 132.055 34.124 132.191C34.2559 132.326 34.3345 132.505 34.3453 132.694C34.0258 134.073 33.4743 135.387 32.7146 136.579L34.7542 138.081C35.4906 136.909 35.9357 135.576 36.0521 134.196C36.122 133.233 35.8306 132.279 35.2352 131.521C34.6397 130.763 33.7831 130.255 32.8334 130.097C31.9562 130.197 31.1236 130.539 30.4277 131.083V127.484H37.621L36.3944 125.435H7.77332L8.97616 127.484H10.7115V134.158C10.7115 134.658 10.8541 135.063 11.6243 135.564C12.3945 136.064 17.6243 139.139 18.2804 139.568C18.4593 139.669 18.61 139.814 18.7188 139.989C18.8276 140.164 18.891 140.363 18.9032 140.569C18.848 140.923 18.7253 141.263 18.5419 141.57L20.5102 143C21.0037 142.479 21.3342 141.824 21.461 141.117C21.4372 140.785 21.3273 140.466 21.1421 140.19C20.957 139.914 20.7031 139.691 20.4056 139.544L14.9904 136.207C13.1172 135.063 12.9413 134.468 12.9413 133.824V127.484H16.3026V132.084C16.3026 132.966 16.0411 133.276 15.4896 133.276H14.4912L15.4421 134.873C16.0628 135.12 16.7195 135.265 17.3866 135.302C18.1568 135.302 18.5134 134.992 18.5134 133.753L18.5419 133.672ZM196.772 127.499H198.508V130.835C198.508 131.074 198.508 131.241 198.241 131.241C197.975 131.241 197.257 130.645 196.635 130.645C196.548 130.638 196.462 130.648 196.379 130.674C196.297 130.701 196.221 130.743 196.155 130.8C196.089 130.856 196.035 130.925 195.996 131.002C195.956 131.079 195.933 131.164 195.926 131.25C195.917 131.31 195.917 131.371 195.926 131.431C196.239 132.203 196.687 132.913 197.248 133.529L201.279 138.562L202.154 137.757C201.02 136.634 199.968 135.432 199.007 134.158C199.437 133.911 199.805 133.567 200.079 133.154C200.354 132.74 200.529 132.268 200.59 131.774V127.508H204.698L203.471 125.459H192.86C191.963 123.731 190.844 122.128 189.532 120.692C188.997 120.153 188.274 119.844 187.516 119.829C186.912 119.829 186.194 119.829 186.194 120.306C186.194 120.783 186.194 120.806 187.226 122.451C187.679 122.327 188.145 122.255 188.614 122.236C188.848 122.239 189.08 122.289 189.295 122.383C189.51 122.477 189.703 122.614 189.864 122.785C190.659 123.599 191.358 124.503 191.947 125.478H184.202L185.357 127.527H186.94V130.53C186.94 131.15 185.666 131.889 184.539 131.889C183.818 131.825 183.143 131.503 182.638 130.983C182.958 130.824 183.228 130.579 183.419 130.275C183.609 129.971 183.712 129.621 183.717 129.262C183.492 128.188 182.93 127.214 182.113 126.482C181.296 125.751 180.267 125.3 179.177 125.196C178.072 125.34 176.991 125.63 175.963 126.059L177.113 128.18C178.26 127.651 179.485 127.313 180.741 127.179C181.364 127.179 181.772 127.394 181.772 128.061C181.772 129.153 180.669 130.111 178.359 130.445C177.883 130.445 177.76 130.659 177.76 130.754C178.114 131.424 178.559 132.042 179.082 132.59C180.024 132.383 180.931 132.038 181.772 131.565C182.085 132.091 182.25 132.692 182.248 133.305C182.149 133.901 181.829 134.439 181.352 134.81C180.875 135.181 180.277 135.358 179.676 135.307C178.33 135.307 176.961 134.115 175.872 131.894L175.007 132.413C176.353 135.226 178.559 137.18 180.574 137.18C181.441 137.273 182.308 137.018 182.987 136.47C183.665 135.922 184.099 135.126 184.192 134.258C184.192 134.234 184.192 134.205 184.192 134.177C184.197 133.711 184.107 133.248 183.926 132.818C184.566 133.197 185.265 133.463 185.994 133.605C186.296 133.627 186.598 133.587 186.883 133.486V136.965L189.066 138.491V127.499H191.467V137.032L193.63 138.562V127.499H196.758H196.772ZM170.357 127.499L169.154 125.449H166.777C166.368 121.683 164.543 119.934 162.361 119.934C161.646 119.869 160.932 120.078 160.366 120.521C159.8 120.964 159.424 121.606 159.313 122.317C159.357 123.021 159.644 123.687 160.126 124.2L161.424 124.057C161.4 123.796 161.4 123.532 161.424 123.271C161.439 122.827 161.629 122.406 161.952 122.103C162.276 121.799 162.707 121.636 163.15 121.65H163.174C164.543 121.65 165.746 123.128 165.817 125.32H146.567L147.769 127.37H155.852V131.183C155.546 130.419 155.03 129.758 154.364 129.277C153.805 128.993 153.188 128.847 152.562 128.848C151.671 128.767 150.785 129.044 150.098 129.618C149.41 130.191 148.978 131.015 148.896 131.908C148.889 132.03 148.889 132.153 148.896 132.275C149.091 133.324 149.628 134.278 150.423 134.987C151.219 135.696 152.227 136.118 153.289 136.188C154.241 136.09 155.14 135.699 155.861 135.068V137.213L158.072 138.762V133.81C158.949 132.948 160.021 132.312 161.196 131.956C161.389 131.965 161.571 132.045 161.708 132.182C161.845 132.318 161.927 132.501 161.937 132.694C161.608 134.07 161.057 135.382 160.307 136.579L162.346 138.081C163.074 136.907 163.509 135.574 163.616 134.196C163.699 133.231 163.414 132.271 162.817 131.51C162.22 130.748 161.356 130.243 160.402 130.097C159.524 130.2 158.693 130.547 158.001 131.098V127.499H165.204V137.032L167.338 138.562V127.499H170.357ZM155.828 132.551C154.64 133.462 153.31 134.171 151.891 134.649C151.416 134.649 150.941 134.134 150.941 133.29C150.94 132.682 151.17 132.097 151.586 131.654C152.001 131.211 152.57 130.943 153.175 130.907C153.702 130.964 154.21 131.135 154.665 131.406C155.12 131.677 155.512 132.044 155.814 132.48L155.828 132.551ZM140.557 138.438V127.499H143.486L142.264 125.449H84.3609L85.5828 127.499H89.0677V131.384C89.0677 131.384 88.2499 130.669 87.746 130.669C87.5153 130.677 87.2955 130.769 87.1275 130.928C86.9596 131.086 86.8549 131.301 86.8331 131.531C86.9707 132.405 87.3347 133.227 87.8886 133.915L91.9013 139.187L92.8521 138.305C91.6898 137.163 90.6228 135.927 89.662 134.611C90.2998 134.125 90.858 133.543 91.3165 132.885C91.8973 133.54 92.6874 133.971 93.551 134.105C94.061 134.083 94.5675 134.009 95.0629 133.886C95.4677 134.536 96.0205 135.08 96.676 135.473C97.3314 135.867 98.0708 136.099 98.8331 136.15C100.066 136.058 101.235 135.564 102.161 134.744V136.984L104.348 138.51V127.499H122.286V128.7C121.633 128.739 121.019 129.028 120.572 129.506C120.124 129.985 119.877 130.618 119.881 131.274C119.881 132.513 120.893 133.657 122.909 134.777C121.732 136.028 120.111 136.765 118.397 136.827C117.242 136.827 116.933 136.47 116.933 135.921C116.933 135.373 117.651 134.515 119.814 134.515L118.863 132.37C118.13 132.28 117.386 132.413 116.728 132.752C116.592 132.669 116.469 132.565 116.367 132.442V131.512C116.259 131.643 116.138 131.763 116.006 131.87C115.996 131.799 115.996 131.727 116.006 131.655C116.037 131.314 116.202 130.998 116.465 130.778C116.728 130.559 117.067 130.452 117.408 130.483H117.446C117.925 130.482 118.403 130.53 118.873 130.626L117.67 128.719C117.334 128.624 116.987 128.575 116.638 128.576C116.086 128.503 115.525 128.624 115.052 128.92C114.58 129.216 114.224 129.667 114.047 130.197L113.638 129.529H106.022L107.244 131.579H108.67C108.394 132.022 108.252 132.535 108.261 133.057C108.439 134.004 108.924 134.866 109.641 135.508C110.358 136.151 111.267 136.537 112.226 136.608C113.266 136.488 114.245 136.056 115.036 135.369C115.43 136.28 116.071 137.063 116.886 137.628C117.701 138.193 118.658 138.518 119.648 138.567C121.31 138.499 122.89 137.827 124.096 136.678C125.301 135.528 126.048 133.979 126.199 132.318C126.106 131.662 125.884 131.032 125.547 130.463C125.209 129.895 124.761 129.399 124.231 129.005V127.527H133.835V129.434H130.649C128.248 129.434 127.321 130.745 127.321 131.989C127.321 133.233 128.134 134.897 130.54 138.305L131.453 137.614C130.348 136.539 129.622 135.134 129.384 133.61C129.384 132.37 129.86 131.488 131.453 131.488H133.83V136.942L135.988 138.467V127.499H138.365V137.032L140.529 138.562L140.557 138.438ZM114.147 131.455C114.367 131.857 114.632 132.233 114.936 132.575C113.894 133.779 112.454 134.566 110.881 134.792C110.305 134.792 110.011 134.553 110.011 134.053C110.046 133.562 110.202 133.088 110.464 132.673C110.726 132.257 111.086 131.912 111.513 131.67C112.108 131.442 112.745 131.344 113.381 131.384L114.147 131.455ZM123.247 133.981C122.855 133.755 122.526 133.433 122.291 133.046C122.056 132.658 121.922 132.218 121.901 131.765C121.875 131.333 122.015 130.907 122.291 130.575C122.568 130.243 122.961 130.029 123.389 129.977C123.798 129.977 124.159 130.359 124.159 131.336C124.097 132.285 123.778 133.2 123.237 133.981H123.247ZM94.887 127.499H102.09V130.812C101.533 130.163 100.904 129.579 100.217 129.072C99.6284 128.774 98.9731 128.634 98.3149 128.667C97.384 128.573 96.453 128.843 95.7155 129.42C94.9779 129.997 94.4905 130.837 94.3545 131.765C93.9769 131.899 93.5807 131.973 93.1802 131.984C92.5691 132.003 91.959 131.923 91.3735 131.746V127.499H94.8822H94.887ZM97.5779 134.391C97.2543 134.386 96.9457 134.253 96.7195 134.021C96.4933 133.789 96.3678 133.477 96.3703 133.152C96.3703 133.152 96.3703 133.104 96.3703 133.081C96.3696 132.469 96.6037 131.88 97.0241 131.436C97.4445 130.992 98.019 130.728 98.6287 130.697C99.8844 130.735 101.088 131.207 102.038 132.032V132.342C100.709 133.335 99.1859 134.035 97.5684 134.396L97.5779 134.391ZM72.7413 134.053H76.6018V136.913L78.8078 138.438V127.499H81.185L79.9869 125.449H40.602L41.8239 127.499H49.9062V131.288C49.6096 130.526 49.1014 129.864 48.4419 129.382C47.8745 129.099 47.2497 128.952 46.6162 128.953C45.7242 128.898 44.8469 129.2 44.1774 129.794C43.5078 130.388 43.1008 131.223 43.0457 132.118C43.0457 132.165 43.0457 132.213 43.0457 132.261C43.2355 133.311 43.7717 134.268 44.5682 134.976C45.3648 135.685 46.3756 136.105 47.4387 136.169C48.3918 136.08 49.2915 135.688 50.0061 135.049V137.194L52.2168 138.748V133.81C53.066 132.963 54.1017 132.328 55.2406 131.956C55.4327 131.969 55.6137 132.05 55.7506 132.186C55.8876 132.322 55.9715 132.502 55.987 132.694C55.6578 134.07 55.1053 135.383 54.3515 136.579L56.3721 138.081C57.0979 136.906 57.5331 135.574 57.6415 134.196C57.7118 133.23 57.4176 132.272 56.8171 131.513C56.2166 130.754 55.3536 130.248 54.3991 130.097C53.5222 130.203 52.6915 130.549 51.9981 131.098V127.499H64.8967V129.477H61.8063C59.8571 129.477 58.8016 130.287 58.8016 132.075C58.7915 133.542 59.3625 134.954 60.3894 135.999C61.4163 137.045 62.815 137.639 64.2786 137.652C64.8063 137.687 65.3343 137.588 65.8142 137.366L67.521 140.774L68.6478 140.226L66.7461 136.956C66.9908 136.837 67.1997 136.655 67.3517 136.429C67.5037 136.203 67.5933 135.941 67.6114 135.669C67.6114 134.739 65.548 133.286 64.8776 133.286C64.6969 133.281 64.5205 133.341 64.3795 133.454C64.2386 133.568 64.1422 133.727 64.1074 133.905C64.1074 134.62 64.4688 134.763 64.4688 135.121C64.4688 135.478 63.7223 135.883 62.8618 135.883C62.2606 135.841 61.6979 135.571 61.2875 135.129C60.877 134.686 60.6496 134.104 60.651 133.5C60.5875 133.001 60.7233 132.497 61.0287 132.098C61.3342 131.699 61.7846 131.437 62.2818 131.369C62.3846 131.36 62.488 131.36 62.5908 131.369H66.6985C66.9363 131.369 67.1312 131.155 67.1312 130.797V127.513H70.5638V131.97H69.8459C69.7037 131.955 69.5614 131.997 69.4494 132.086C69.3375 132.175 69.2647 132.304 69.2469 132.447C69.2445 132.464 69.2445 132.482 69.2469 132.499C69.7826 133.868 70.7965 134.994 72.0995 135.669C72.4846 135.669 72.727 135.478 72.727 135.149V134.048L72.7413 134.053ZM76.5448 127.499V132.003H72.7413V127.499H76.5448ZM49.9205 132.551C48.7345 133.468 47.4039 134.178 45.9839 134.654C45.5085 134.654 45.0711 134.134 45.0711 133.29C45.07 132.682 45.3008 132.097 45.7162 131.654C46.1316 131.211 46.7002 130.943 47.3056 130.907C47.8283 130.967 48.3321 131.138 48.7832 131.409C49.2343 131.68 49.6221 132.046 49.9205 132.48V132.551ZM28.0506 132.551C26.8364 133.477 25.4727 134.186 24.0189 134.649C23.5434 134.649 23.106 134.134 23.106 133.29C23.105 132.682 23.3357 132.097 23.7511 131.654C24.1665 131.211 24.7352 130.943 25.3406 130.907C25.864 130.966 26.3687 131.137 26.8206 131.409C27.2725 131.68 27.6611 132.045 27.9602 132.48L28.0506 132.551Z" fill="#1E1E1C"/>
<path fill-rule="evenodd" clip-rule="evenodd" d="M50.7573 23.2089C76.155 23.1803 96.7698 43.5959 96.7983 68.8116C96.8268 94.0273 76.2596 114.486 50.8714 114.514C25.4833 114.543 4.84945 94.1274 4.82092 68.9117V68.8307C4.83519 43.6484 25.3882 23.2375 50.7573 23.2089ZM50.7573 27.2844C73.8729 27.2844 92.5955 45.8744 92.5955 68.8354C92.5955 91.7965 73.8539 110.382 50.7573 110.382C27.6607 110.382 8.91916 91.7917 8.91916 68.8307C8.91916 45.8696 27.6607 27.2844 50.7573 27.2844Z" fill="#1E1E1C"/>
<path fill-rule="evenodd" clip-rule="evenodd" d="M159.413 23.209C184.81 23.209 205.416 43.6198 205.43 68.8307C205.444 94.0416 184.872 114.5 159.47 114.514C134.067 114.529 113.472 94.1036 113.453 68.8927V68.8403C113.467 43.6485 134.034 23.2233 159.413 23.209ZM159.413 27.2845C136.335 27.3179 117.651 45.9174 117.684 68.826C117.717 91.7346 136.454 110.296 159.522 110.253C182.59 110.21 201.284 91.6202 201.251 68.7116C201.218 45.803 182.566 27.3179 159.532 27.2845H159.413Z" fill="#1E1E1C"/>
<path fill-rule="evenodd" clip-rule="evenodd" d="M2.99499 66.4522C0.351584 67.6438 -1.45031 63.8782 1.56869 62.5149L17.5338 55.3649L118.183 8.88037L127.554 4.87637C138.741 0.681706 149.766 -2.27363 159.608 2.32621C174.855 10.0244 172.53 32.5278 159.608 43.1575C159.243 43.5818 158.727 43.8456 158.17 43.892C157.613 43.9383 157.061 43.7636 156.631 43.4053C156.419 43.2294 156.244 43.0127 156.116 42.7681C155.988 42.5235 155.91 42.2558 155.887 41.9807C155.863 41.7055 155.895 41.4285 155.979 41.1656C156.064 40.9028 156.2 40.6595 156.379 40.45C156.464 40.3496 156.558 40.2571 156.66 40.1735C176.205 19.7198 164.081 -5.10979 131.685 7.76021C129.646 8.57054 127.915 9.23787 125.923 10.1435C88.9676 26.6934 52.1786 43.8534 15.4656 60.8895L2.99499 66.476V66.4522Z" fill="#1E1E1C"/>
<path fill-rule="evenodd" clip-rule="evenodd" d="M199.321 66.7334C196.706 67.9966 194.88 64.2071 197.894 62.8009L277.339 26.1834L286.686 22.1317C297.902 17.937 308.585 14.4097 318.407 19.0572C333.678 26.7792 331.349 49.3065 318.407 59.9171C318.016 60.3175 317.483 60.5479 316.924 60.5586C316.364 60.5692 315.823 60.3594 315.417 59.9743C315.217 59.7839 315.057 59.5557 314.946 59.3029C314.835 59.05 314.775 58.7776 314.77 58.5014C314.764 58.2252 314.814 57.9506 314.915 57.6937C315.016 57.4368 315.168 57.2026 315.36 57.0046L315.455 56.9141C334.857 36.0313 322.9 11.1207 290.813 25.0394C288.821 25.9212 287.043 26.517 285.051 27.4227C256.24 40.2927 227.657 53.0292 199.254 66.5904L199.321 66.7334Z" fill="#1E1E1C"/>
</g>
<defs>
<clipPath id="clip0_1_214">
<rect width="329" height="143" fill="white"/>
</clipPath>
</defs>
</svg>
