<svg width="138" height="92" viewBox="0 0 138 92" fill="none" xmlns="http://www.w3.org/2000/svg">
<path fill-rule="evenodd" clip-rule="evenodd" d="M81.4799 54.4467C75.3757 58.946 66.528 61.3466 58.9103 61.3466C48.2289 61.3466 38.613 57.3959 31.3381 50.8253C30.7667 50.3085 31.2788 49.6044 31.9646 50.0068C39.8155 54.5748 49.5229 57.3228 59.5504 57.3228C66.3131 57.3228 73.7525 55.9236 80.5929 53.0201C81.6263 52.5811 82.4905 53.6968 81.4799 54.4467Z" fill="#DFDFDF"/>
<path fill-rule="evenodd" clip-rule="evenodd" d="M84.0179 51.5432C83.2406 50.5463 78.8601 51.0722 76.8939 51.3054C76.2949 51.3786 76.2035 50.8573 76.743 50.4824C80.2318 48.027 85.9566 48.7357 86.6242 49.5587C87.2917 50.3863 86.4504 56.1248 83.1719 58.8637C82.669 59.2844 82.1888 59.0603 82.4129 58.5024C83.1491 56.6644 84.7998 52.5446 84.0179 51.5432Z" fill="#DFDFDF"/>
<path fill-rule="evenodd" clip-rule="evenodd" d="M77.0304 33.1479V30.7611C77.0304 30.3999 77.3048 30.1576 77.634 30.1576H88.3199C88.6628 30.1576 88.9372 30.4044 88.9372 30.7611V32.805C88.9326 33.1479 88.6446 33.5961 88.1325 34.3048L82.5952 42.2106C84.6528 42.1604 86.8247 42.4667 88.6903 43.5184C89.111 43.7561 89.2253 44.1037 89.2573 44.4465V46.9934C89.2573 47.3409 88.8731 47.7478 88.4708 47.5375C85.1832 45.8138 80.8165 45.6263 77.1814 47.5558C76.811 47.7571 76.4223 47.3547 76.4223 47.0072V44.5883C76.4223 44.1997 76.4268 43.5366 76.8155 42.9468L83.2307 33.747H77.6477C77.3048 33.747 77.0304 33.5047 77.0304 33.1479ZM38.0501 48.0405H34.799C34.4881 48.0177 34.2412 47.7845 34.2183 47.4872V30.8023C34.2183 30.4685 34.4972 30.2032 34.8447 30.2032H37.8763C38.1918 30.2169 38.4433 30.4593 38.4662 30.761V32.9423H38.5256C39.3166 30.8344 40.8027 29.8514 42.8054 29.8514C44.8401 29.8514 46.1114 30.8344 47.0259 32.9423C47.8123 30.8344 49.6002 29.8514 51.5161 29.8514C52.8786 29.8514 54.3693 30.4138 55.2792 31.6758C56.308 33.0794 56.0977 35.1188 56.0977 36.9066L56.093 47.437C56.093 47.7708 55.8141 48.0406 55.4667 48.0406H52.2202C51.8956 48.0178 51.6349 47.7572 51.6349 47.437V38.5938C51.6349 37.8896 51.699 36.1337 51.5435 35.4662C51.3012 34.346 50.5741 34.0304 49.6321 34.0304C48.8457 34.0304 48.0226 34.5563 47.6888 35.3977C47.3551 36.2391 47.3871 37.6473 47.3871 38.5938V47.4369C47.3871 47.7707 47.1081 48.0405 46.7606 48.0405H43.5142C43.185 48.0177 42.9289 47.7571 42.9289 47.4369L42.9243 38.5938C42.9243 36.7328 43.2307 33.994 40.9216 33.994C38.5851 33.994 38.6765 36.6642 38.6765 38.5938V47.4369C38.6765 47.7707 38.3976 48.0405 38.0501 48.0405ZM98.137 29.8512C102.961 29.8512 105.572 33.9939 105.572 39.2614C105.572 44.3505 102.687 48.3881 98.1369 48.3881C93.3999 48.3881 90.8211 44.2454 90.8211 39.083C90.8211 33.8887 93.4319 29.8512 98.137 29.8512ZM98.1645 33.2577C95.7684 33.2577 95.6176 36.5225 95.6176 38.5572C95.6176 40.5966 95.5856 44.9495 98.137 44.9495C100.657 44.9495 100.775 41.4379 100.775 39.2979C100.775 37.8896 100.716 36.2069 100.291 34.8718C99.9249 33.7103 99.1978 33.2577 98.1645 33.2577ZM111.827 48.0405H108.59C108.265 48.0177 108.004 47.7571 108.004 47.4369L108 30.7474C108.027 30.4411 108.297 30.2032 108.626 30.2032H111.64C111.923 30.2169 112.156 30.4091 112.22 30.6696V33.2212H112.28C113.19 30.9395 114.465 29.8512 116.71 29.8512C118.169 29.8512 119.591 30.377 120.506 31.8173C121.356 33.1525 121.356 35.3977 121.356 37.0118V47.5146C121.32 47.8073 121.05 48.0405 120.73 48.0405H117.469C117.172 48.0177 116.925 47.7982 116.893 47.5146V38.452C116.893 36.6276 117.104 33.9572 114.859 33.9572C114.068 33.9572 113.341 34.4877 112.979 35.2924C112.522 36.3122 112.463 37.3272 112.463 38.4521V47.4369C112.458 47.7707 112.175 48.0405 111.827 48.0405ZM68.5119 40.0707C68.5119 41.3372 68.544 42.3936 67.9037 43.5183C67.3871 44.4329 66.5641 44.9952 65.6541 44.9952C64.4059 44.9952 63.6742 44.0442 63.6742 42.6404C63.6742 39.8695 66.1572 39.3665 68.5119 39.3665V40.0707ZM71.7903 47.9948C71.5755 48.1868 71.2646 48.2006 71.0222 48.0725C69.9431 47.1763 69.7465 46.7602 69.1567 45.9052C67.3733 47.725 66.1068 48.2692 63.7977 48.2692C61.0588 48.2692 58.9326 46.5819 58.9326 43.2029C58.9326 40.5645 60.3592 38.7676 62.3985 37.8896C64.1635 37.1123 66.6281 36.9751 68.512 36.7602V36.3396C68.512 35.5668 68.5714 34.6523 68.1141 33.9847C67.7209 33.3858 66.9618 33.1388 66.2897 33.1388C65.0505 33.1388 63.9486 33.7743 63.6789 35.0912C63.6239 35.3839 63.409 35.6719 63.1118 35.6857L59.9614 35.3473C59.6962 35.2879 59.399 35.073 59.4767 34.666C60.1992 30.8435 63.656 29.6912 66.7471 29.6912C68.3291 29.6912 70.3959 30.1119 71.6442 31.3099C73.2262 32.7868 73.0753 34.7574 73.0753 36.902V41.9682C73.0753 43.4909 73.7064 44.1584 74.3008 44.9815C74.5066 45.2742 74.5522 45.6263 74.2871 45.8457C73.6241 46.399 72.4443 47.4278 71.7951 48.0039L71.7905 47.9948M25.8918 40.0707C25.8918 41.3372 25.9239 42.3936 25.2836 43.5183C24.767 44.4329 23.9485 44.9952 23.034 44.9952C21.7858 44.9952 21.0587 44.0442 21.0587 42.6404C21.0587 39.8695 23.5416 39.3665 25.8918 39.3665V40.0707ZM29.1703 47.9948C28.9554 48.1868 28.6445 48.2006 28.4022 48.0725C27.3231 47.1763 27.1309 46.7602 26.5366 45.9052C24.7533 47.725 23.4914 48.2692 21.1776 48.2692C18.4433 48.2692 16.3125 46.5819 16.3125 43.2029C16.3125 40.5645 17.7437 38.7676 19.7784 37.8896C21.5435 37.1123 24.008 36.9751 25.8918 36.7602V36.3396C25.8918 35.5668 25.9513 34.6523 25.4986 33.9847C25.1008 33.3858 24.3418 33.1388 23.6742 33.1388C22.4351 33.1388 21.3285 33.7743 21.0587 35.0912C21.0039 35.3839 20.7889 35.6719 20.4963 35.6857L17.3413 35.3473C17.0761 35.2879 16.7835 35.073 16.8566 34.666C17.5836 30.8435 21.0359 29.6912 24.1269 29.6912C25.7089 29.6912 27.7757 30.1119 29.024 31.3099C30.606 32.7868 30.4551 34.7574 30.4551 36.902V41.9682C30.4551 43.4909 31.0861 44.1584 31.6806 44.9815C31.891 45.2742 31.9367 45.6263 31.6714 45.8457C31.0084 46.399 29.8288 47.4278 29.1795 48.0039L29.1703 47.9948Z" fill="#DFDFDF"/>
</svg>
