<svg width="188" height="184" viewBox="0 0 188 184" fill="none" xmlns="http://www.w3.org/2000/svg">
<path d="M14.3463 81.2612C9.93336 83.3129 6.89984 88.1959 3.52613 91.5322C2.60847 92.2746 3.61267 93.8913 4.86233 93.184C8.68143 90.3982 12.9377 86.6515 15.6825 82.913C16.12 81.9519 15.2292 80.8507 14.3463 81.2612ZM40.3787 68.4007C35.7308 67.9098 31.2477 70.6254 28.0926 73.4814C27.3584 74.0752 28.2492 75.1764 28.9834 74.5826C30.8712 73.3392 32.8941 72.314 35.013 71.5267C36.9267 70.8896 38.8053 70.5844 40.7189 69.9473C41.5665 69.869 41.3747 68.5059 40.3787 68.4007ZM71.2302 67.1271C69.1599 66.0692 66.5039 65.7886 64.1449 65.8752C61.8209 65.6297 59.2783 65.8647 57.0677 66.1348C56.2202 66.2131 56.2635 67.3926 57.111 67.3143C59.47 67.2278 61.794 67.4732 63.9345 67.8672C66.2585 68.1126 68.5123 69.0221 70.8363 69.2675C71.9805 69.5565 72.3393 67.7481 71.2302 67.1271ZM84.1057 75.5368C82.8128 75.0645 82.1216 76.8381 83.4149 77.3101C84.5243 77.9309 85.9657 78.5867 87.075 79.2074C88.4814 80.1952 89.3368 81.6286 90.7782 82.2844C91.4071 82.6866 92.3248 81.9442 92.0629 81.2452C91.3478 78.4837 86.84 76.6648 84.1057 75.5368ZM107.619 94.4699C106.134 92.6346 104.65 90.7993 102.946 89.4444C102.021 88.6752 100.919 89.566 101.662 90.4837C102.814 92.284 104.002 93.7522 105.338 95.404C106.674 97.0558 107.644 99.0045 109.53 100.211C110.308 100.796 111.592 99.757 111.182 98.8747C110.362 97.1093 108.991 95.7895 107.619 94.4699ZM116.28 114.184C117.03 116.613 117.78 119.042 118.164 121.768C118.583 124.162 118.634 126.853 119.935 128.837C120.494 129.903 121.927 129.048 122.181 128.235C122.61 125.763 121.562 122.966 120.812 120.537C120.245 117.959 119.311 115.679 118.193 113.547C117.486 112.297 115.72 113.118 116.28 114.184ZM119.452 134.997C119.39 137.172 119.477 139.531 119.266 141.523C119.161 142.519 118.872 143.664 118.435 144.625C117.998 145.586 117.631 145.883 117.674 147.062C117.753 147.91 118.713 148.347 119.413 148.085C121.361 147.116 121.493 144.276 121.704 142.284C121.801 139.777 121.382 137.383 120.815 134.805C120.554 134.106 119.374 134.149 119.452 134.997ZM109.032 151.017C108.708 152.493 108.052 153.935 106.951 154.826C106.033 155.568 104.784 156.275 104.643 157.603C104.573 158.267 105.019 158.818 105.683 158.888C109.002 159.238 110.595 153.7 110.508 151.341C110.43 150.493 109.286 150.204 109.032 151.017ZM94.1677 156.664C92.5512 157.669 90.6023 158.638 88.6886 159.275C86.4432 159.877 84.6698 159.186 82.5642 158.46C81.4197 158.171 80.467 159.246 81.1743 160.495C84.9993 165.599 91.9817 161.469 95.207 157.949C95.6094 157.32 94.7183 156.219 94.1677 156.664ZM75.1926 151.975C71.4974 150.41 69.6375 147.36 66.7114 144.869C65.9343 144.283 64.8331 145.174 65.2432 146.056C67.2165 149.622 70.8065 152.183 74.7204 153.268C75.5328 153.521 75.9703 152.56 75.1926 151.975ZM50.3907 119.813C49.611 125.606 52.5888 130.788 56.1868 134.861C56.7806 135.595 58.0653 134.556 57.4715 133.822C54.5372 129.819 52.5207 125.074 52.3829 120.024C52.5232 118.696 50.5312 118.485 50.3907 119.813ZM50.3463 97.9879C48.3789 102.312 48.3334 107.511 48.8384 112.264C48.8817 113.443 50.7603 113.138 50.5335 112.107C50.5089 107.573 51.4803 103.143 52.1197 98.6787C52.26 97.3507 50.7832 97.0272 50.3463 97.9879ZM52.5634 78.5838C49.9939 80.6623 48.839 85.2401 48.6719 88.4117C48.5316 89.7396 50.5236 89.95 50.6639 88.6221C50.8392 86.9621 51.3465 85.3371 52.0023 83.8958C52.6581 82.4544 53.6459 81.048 54.1532 79.4231C54.4069 78.6107 53.114 78.1384 52.5634 78.5838ZM70.9214 50.9808C69.4532 52.1685 68.4303 53.9069 67.1105 55.2781C65.5721 57.1298 63.8853 58.798 62.8274 60.8683C62.2066 61.9777 63.6129 62.9655 64.3821 62.0397C65.737 60.3364 67.4239 58.6682 68.9272 57.1485C70.247 55.7772 72.0823 54.2926 72.6247 52.3357C73.2454 51.2263 71.8388 50.2387 70.9214 50.9808ZM85.7711 35.932C82.9398 37.3115 80.4487 40.2375 78.0277 42.4996C77.1101 43.2419 78.1493 44.5267 79.067 43.7843C81.7849 41.8893 84.9833 40.2129 87.1073 37.5838C87.8762 36.6582 86.837 35.3735 85.7711 35.932ZM103.582 23.0424C102 23.7146 100.864 24.9374 99.579 25.9769C98.2946 27.0159 96.826 28.2039 95.6898 29.4267C94.7721 30.169 95.9598 31.6372 96.8775 30.8949C98.1622 29.8557 99.6308 28.6677 101.064 27.8122C102.348 26.773 103.782 25.9172 104.77 24.5107C105.504 23.9168 104.613 22.8156 103.582 23.0424Z" fill="black"/>
<path d="M119.26 11.2706C114.944 10.8148 110.777 10.5424 106.574 10.6019C103.551 10.6183 98.5711 10.0925 96.3337 12.2061C95.416 12.9484 95.5727 14.6435 96.8656 15.1157C99.4515 16.0603 102.912 15.0829 105.454 14.8479C108.661 14.6831 112.164 14.8853 115.668 15.0875C113.185 19.525 111.147 24.5132 109.145 29.1694C108.489 30.6108 110.856 32.0358 111.845 30.6292C115.245 25.4493 116.907 19.2465 120.937 14.4688C121.889 13.3947 120.737 11.5942 119.26 11.2706Z" fill="black"/>
</svg>
