<svg width="1042" height="139" viewBox="0 0 1042 139" fill="none" xmlns="http://www.w3.org/2000/svg">
<path d="M29.6594 136H0.859375V2.80003H29.6594L85.8194 87.58V2.80003H114.619V136H85.8194L29.6594 51.4V136Z" fill="#FFE5DD" fill-opacity="0.3"/>
<path d="M223.363 136H138.763V2.80003H223.363V29.8H167.923V55.9H217.063V81.46H167.923V109H223.363V136Z" fill="#FFE5DD" fill-opacity="0.3"/>
<path d="M272.42 136L232.46 2.80003H262.88L280.34 60.58C282.68 68.5 284.84 76.42 287 89.56C289.16 76.42 291.32 68.86 293.66 60.58L310.04 2.80003H342.62L358.28 60.58C360.44 68.68 362.6 76.78 364.94 89.56C367.64 76.06 369.62 68.68 371.96 60.94L389.78 2.80003H419.48L378.8 136H350.36L326.06 48.52L301.04 136H272.42Z" fill="#FFE5DD" fill-opacity="0.3"/>
<path d="M466.277 29.8V2.80003H571.038V29.8H533.237V136H504.078V29.8H466.277Z" fill="#FFE5DD" fill-opacity="0.3"/>
<path d="M702.581 69.22C702.581 109.9 675.761 138.16 637.061 138.16C598.541 138.16 572.081 110.08 572.081 69.4C572.081 28.72 598.721 0.460027 637.241 0.460027C675.941 0.460027 702.581 28.54 702.581 69.22ZM671.801 69.22C671.801 43.84 658.841 28.54 637.421 28.54C615.821 28.54 602.861 43.84 602.861 69.22C602.861 94.78 615.821 110.08 637.421 110.08C658.841 110.08 671.801 94.42 671.801 69.22Z" fill="#FFE5DD" fill-opacity="0.3"/>
<path d="M842.418 69.22C842.418 109.9 815.598 138.16 776.898 138.16C738.378 138.16 711.918 110.08 711.918 69.4C711.918 28.72 738.558 0.460027 777.078 0.460027C815.778 0.460027 842.418 28.54 842.418 69.22ZM811.638 69.22C811.638 43.84 798.678 28.54 777.258 28.54C755.658 28.54 742.698 43.84 742.698 69.22C742.698 94.78 755.658 110.08 777.258 110.08C798.678 110.08 811.638 94.42 811.638 69.22Z" fill="#FFE5DD" fill-opacity="0.3"/>
<path d="M888.296 2.80003V109H940.856V136H859.136V2.80003H888.296Z" fill="#FFE5DD" fill-opacity="0.3"/>
<path d="M943.605 41.5C943.605 17.38 963.945 0.280029 992.565 0.280029C1021.19 0.280029 1039.19 16.12 1039.19 41.32H1010.21C1010.21 31.96 1003.19 26.2 992.205 26.2C980.325 26.2 972.765 31.6 972.765 40.42C972.765 48.52 976.905 52.48 986.265 54.46L1006.25 58.6C1030.01 63.46 1041.35 74.8 1041.35 95.86C1041.35 121.6 1021.19 138.34 990.585 138.34C960.885 138.34 941.625 122.32 941.625 97.3H970.605C970.605 107.02 977.805 112.42 990.765 112.42C1003.91 112.42 1012.19 107.2 1012.19 98.74C1012.19 91.36 1008.77 87.58 999.945 85.78L979.605 81.64C955.845 76.78 943.605 63.28 943.605 41.5Z" fill="#FFE5DD" fill-opacity="0.3"/>
</svg>
