<svg width="112" height="112" viewBox="0 0 112 112" fill="none" xmlns="http://www.w3.org/2000/svg">
<path d="M53.2174 106.637L45.2775 80.5978C44.2199 77.1293 42.3257 73.9742 39.7617 71.4102C37.1977 68.8461 34.0425 66.9519 30.5741 65.8943L4.53452 57.9545C2.19548 57.2408 2.19548 53.9301 4.53452 53.2164L30.5741 45.2766C34.0425 44.219 37.1977 42.3247 39.7617 39.7607C42.3257 37.1967 44.2199 34.0415 45.2775 30.5731L53.2185 4.53353C53.9322 2.19449 57.2429 2.19449 57.9566 4.53353L65.8964 30.5731C66.954 34.0415 68.8482 37.1967 71.4123 39.7607C73.9763 42.3247 77.1314 44.219 80.5999 45.2765L106.638 53.2175C108.977 53.9312 108.977 57.2419 106.638 57.9556L80.5988 65.8954C77.1303 66.953 73.9752 68.8472 71.4111 71.4113C68.8471 73.9753 66.9529 77.1305 65.8953 80.5989L57.9544 106.637C57.2406 108.976 53.9311 108.976 53.2174 106.637Z" fill="#FFC107"/>
</svg>
