<svg width="65" height="65" viewBox="0 0 65 65" fill="none" xmlns="http://www.w3.org/2000/svg">
<g clip-path="url(#clip0_185_428)">
<path d="M32.604 64.116C23.816 64.116 16.731 56.992 16.731 48.204V16.796C16.731 8.00803 23.816 0.884033 32.604 0.884033C41.392 0.884033 48.477 8.00803 48.477 16.796V48.191C48.477 56.992 41.392 64.116 32.604 64.116Z" fill="#FBBDAA"/>
<path d="M48.3078 48.3211H16.6918C7.90379 48.3211 0.779785 41.1321 0.779785 32.3441C0.779785 23.5561 7.90379 16.3671 16.6918 16.3671H48.3078C57.0958 16.3671 64.2198 23.5561 64.2198 32.3441C64.2198 41.1321 57.0958 48.3211 48.3078 48.3211Z" fill="#FBBDAA"/>
</g>
<defs>
<clipPath id="clip0_185_428">
<rect width="65" height="65" fill="white"/>
</clipPath>
</defs>
</svg>
