<svg width="215" height="215" viewBox="0 0 215 215" fill="none" xmlns="http://www.w3.org/2000/svg">
<g clip-path="url(#clip0_3004_466)">
<path d="M200.682 36.6218C193.589 38.1052 186.723 39.947 179.79 42.0812C173.574 43.7614 166.188 45.1793 160.522 48.5194C157.364 50.2702 158.883 55.8351 162.657 55.4516C162.657 55.4516 162.949 55.5172 163.015 55.2245C163.761 56.0065 164.216 56.7231 164.897 57.7976C164.831 58.0902 164.992 58.7409 164.927 59.0336C165.088 59.6844 165.542 60.4008 165.997 61.1173C153.969 75.0173 142.527 89.0485 129.298 101.45C125.388 105.184 121.251 108.559 116.595 111.511C110.575 94.488 99.2275 73.8127 80.0706 72.8999C54.7988 71.8461 62.1304 100.841 72.7458 112.44C85.2432 126.612 98.25 128.912 113.421 121.556C117.044 132.817 118.649 144.854 115.637 155.551C108.922 181.398 84.5282 180.54 66.4305 169.416C71.0619 162.463 73.9072 153.882 73.8566 145.879C74.0127 131.47 55.698 114.458 41.2435 121.36C27.0816 128.328 44.105 157.958 50.3057 164.573C52.0261 166.495 54.0394 168.483 56.1181 170.178C55.7598 170.405 55.6942 170.698 55.3361 170.924C37.1533 188.977 23.3692 166.834 18.5203 150.073C17.8744 147.47 14.1964 148.797 14.5497 151.335C17.8043 168.352 27.4917 189.577 48.2881 183.175C53.2677 181.525 57.9245 178.573 61.6074 174.481C76.2591 184.526 94.9877 188.723 109.971 176.715C127.952 162.305 124.289 137.513 118.729 118.442L119.445 117.988C139.732 105.632 155.089 85.1023 170.215 66.9794C171.935 68.9016 173.949 70.8894 175.669 72.8115C176.936 74.0174 179.05 74.1839 180.482 73.2756C191.198 65.2282 200.325 54.6732 205.324 41.9641C206.923 38.9424 204.23 35.8801 200.682 36.6218ZM102.433 118.478C89.8702 122.424 80.5211 112.031 74.0327 102.586C65.4352 90.2102 71.9685 74.7716 87.9267 81.7291C96.0194 85.3867 101.045 94.5034 105.227 101.895C107.432 105.769 109.507 110.229 111.222 114.916C108.422 116.44 105.394 117.606 102.433 118.478ZM60.6491 165.047C53.6662 159.18 49.1254 152.015 46.0828 143.651C44.7558 139.973 43.787 136.068 43.7617 132.067C43.0652 121.462 57.7521 129.978 61.3898 132.944C71.1324 141.581 67.1067 155.431 60.6491 165.047ZM178.675 64.8808C178.383 64.8152 178.448 64.5226 178.156 64.457C178.353 63.5791 177.964 62.57 176.925 61.7225C175.073 60.3856 173.287 58.756 171.5 57.1263C170.754 56.3443 169.391 54.195 169.26 54.7803C169.326 54.4877 169.099 54.1295 168.806 54.0639C172.418 53.0294 176.162 51.4099 179.774 50.3754C184.395 48.9526 189.31 47.5953 194.224 46.2381C190.537 53.0949 185.093 59.558 178.675 64.8808Z" fill="#FFCBE0"/>
</g>
<defs>
<clipPath id="clip0_3004_466">
<rect width="180" height="180" fill="white" transform="translate(39.3633) rotate(12.632)"/>
</clipPath>
</defs>
</svg>
