<svg width="1820" height="3221" viewBox="0 0 1820 3221" fill="none" xmlns="http://www.w3.org/2000/svg">
<path d="M0 3197C0 3210.25 10.7452 3221 24 3221H1796C1809.25 3221 1820 3210.25 1820 3197V2430H0V3197Z" fill="url(#paint0_linear_185_380)"/>
<rect width="1820" height="1025" rx="24" fill="url(#paint1_linear_185_380)"/>
<mask id="mask0_185_380" style="mask-type:alpha" maskUnits="userSpaceOnUse" x="0" y="0" width="1820" height="1025">
<rect width="1820" height="1025" rx="24" fill="url(#paint2_linear_185_380)"/>
</mask>
<g mask="url(#mask0_185_380)">
<path d="M524.77 248.892C521.888 325.535 455.138 365.139 360.643 360.95C260.734 356.884 163.71 317.625 94.5055 253.242C50.7174 209.284 118.815 153.358 166.287 194.299C217.507 241.962 289.228 270.973 363.228 274.015C427.063 275.642 435.308 257.13 417.151 208.039C373.443 219.621 319.741 215.762 258.725 196.236C225.657 185.642 188.281 170.808 161.863 140.827C131.154 105.953 123.529 48.7159 163.924 13.3479C228.536 -44.9387 357.067 7.63008 418.589 58.6159C409.588 33.4749 386.523 11.0714 352.652 -7.11295C328.964 -19.6943 321 -46.4827 334.894 -66.9592C348.787 -87.4357 379.24 -93.8569 402.928 -81.2755C440.424 -61.378 489.718 -26.0259 511.514 29.1302C528.576 72.3599 522.985 118.549 498.457 153.695C513.895 182.504 525.907 218.854 524.769 248.946L524.77 248.892ZM235.402 76.4012C235.096 105.545 323.509 126.315 358.004 127.279C332.376 105.378 301.276 88.3311 267.686 78.6973C250.334 73.7507 239.065 74.1993 235.491 75.3166L235.464 76.4035L235.402 76.4012Z" fill="#0F4CA2" fill-opacity="0.04"/>
</g>
<defs>
<linearGradient id="paint0_linear_185_380" x1="910" y1="3221" x2="910" y2="2430" gradientUnits="userSpaceOnUse">
<stop stop-color="#DCEAFF"/>
<stop offset="0.495" stop-color="#FFF2F7"/>
<stop offset="1" stop-color="#FFF2F7" stop-opacity="0"/>
</linearGradient>
<linearGradient id="paint1_linear_185_380" x1="910" y1="0" x2="910" y2="1025" gradientUnits="userSpaceOnUse">
<stop stop-color="#DCEAFF"/>
<stop offset="0.495" stop-color="#FFF2F7"/>
<stop offset="1" stop-color="#FFF2F7" stop-opacity="0"/>
</linearGradient>
<linearGradient id="paint2_linear_185_380" x1="910" y1="0" x2="910" y2="1025" gradientUnits="userSpaceOnUse">
<stop stop-color="#DCEAFF"/>
<stop offset="0.495" stop-color="#FFF2F7"/>
<stop offset="1" stop-color="#FFF2F7" stop-opacity="0"/>
</linearGradient>
</defs>
</svg>
