<svg width="137" height="92" viewBox="0 0 137 92" fill="none" xmlns="http://www.w3.org/2000/svg">
<path d="M103.637 57.6527C103.635 57.6527 103.312 57.9409 103.312 57.9409C102.85 58.3539 102.375 58.796 101.801 58.5749C101.643 58.5173 101.531 58.3061 101.504 58.1422C101.478 56.9602 102.011 55.865 102.527 54.7986L102.659 54.5197C104.144 52.0405 105.87 49.1193 108.405 47.092C108.832 46.7838 109.295 46.5248 109.784 46.7268C109.897 46.8322 110.028 47.015 110.028 47.1974C110.028 47.2553 109.977 47.4089 109.947 47.4567C109.239 48.6008 108.565 49.8019 107.909 50.9548C106.628 53.2325 105.299 55.5862 103.637 57.6527ZM89.903 51.8101C89.806 51.8778 88.0936 51.301 87.7627 49.7155C87.482 48.3504 88.422 47.2838 89.3315 46.7461C89.7218 46.4384 90.3098 46.333 90.7412 46.4861C91.1415 46.7556 91.25 47.2364 91.25 47.7545C91.25 48.0723 91.2078 48.3987 91.1707 48.6965L91.1624 48.764C90.8771 49.8303 90.4405 50.8778 89.903 51.8101ZM83.3619 58.2583C83.1872 57.9988 83.1293 57.7151 83.1235 57.4084C83.09 55.5242 85.1173 52.1499 86.5482 50.3116H86.5514C87.1511 51.6246 88.509 52.4687 89.3288 52.8244C88.3106 55.0924 84.8184 59.9495 83.3619 58.2583ZM108.076 58.5928C107.737 58.8234 107.261 58.6462 107.439 58.1178C107.882 56.7725 109.645 54.0308 109.645 54.0308L114.555 45.3215H111.192C111.032 45.5842 110.69 46.1872 110.69 46.1872C110.535 45.928 110.069 45.3516 109.878 45.2271C109.056 44.7078 107.85 44.9533 107.019 45.4241C103.402 47.5385 100.764 51.7162 98.6833 54.9737C98.6833 54.9737 96.493 58.5951 95.2771 58.8644C94.3279 58.9414 94.4258 57.6627 94.4669 57.3648C94.834 55.2119 95.6862 53.1652 96.545 51.3106C98.2914 50.0998 100.285 48.5143 102.096 46.775C106.027 43.0173 109.341 38.7601 109.825 37.8089C109.825 37.8089 109.301 37.9147 108.682 37.9338C105.658 42.1523 99.4689 48.2838 97.5928 49.1961C98.424 47.197 103.794 37.6549 108.364 33.0907L109.083 32.3985C110.195 31.3126 111.347 30.1979 112.245 30.0153C112.34 30.0058 112.462 30.0153 112.568 30.2367C112.608 31.0822 112.293 31.7069 111.932 32.418L111.426 33.456C111.426 33.456 112.143 33.3214 112.613 33.1672C113.159 32.1395 113.764 30.986 113.541 29.6121C113.467 29.17 113.147 28.8337 112.729 28.7568C111.366 28.4973 109.88 29.506 108.684 30.3231L108.636 30.3517C102.491 35.1662 97.3018 42.1047 92.7649 51.5797C92.4362 51.8292 91.1657 52.1274 90.9498 51.9831C91.3978 51.0608 91.9619 49.8208 92.2442 48.4755C92.293 48.091 92.3385 47.6972 92.3385 47.3129C92.3385 46.4858 92.1399 45.7077 91.3989 45.1698C90.5302 44.7372 89.4566 44.9392 88.7326 45.2657C85.4897 46.6111 83.066 49.9363 81.317 52.6745C80.3763 54.4143 79.4384 56.2777 79.1787 58.4115C78.9958 60.0833 79.3682 61.1596 80.3187 61.698C81.2963 62.1973 82.5267 61.6783 83.01 61.4287C86.2953 59.699 88.591 56.2301 90.4004 53.0587C90.4723 53.0493 91.4603 53.0206 92.2076 52.8281C92.2176 52.8281 92.2218 52.8281 92.2383 52.8382C92.1955 52.9817 91.8093 54.1353 91.8093 54.1353C90.6625 57.4984 90.1322 59.7856 91.2154 61.1407C92.7633 63.0531 95.326 61.0737 97.4109 58.4594C96.9634 61.5921 98.587 62.0824 99.8246 61.8424C101.246 61.4582 102.83 59.9395 103.566 59.1614C103.33 60.0741 103.394 61.7079 104.687 61.8711C105.573 62.035 106.237 61.5528 107.004 61.1395C109.758 59.6402 113.054 54.6446 113.909 53.2002H112.788C111.571 55.0386 110.023 57.4486 108.076 58.5928ZM65.6582 39.938H68.8094L70.5879 37.0492H67.436L65.6582 39.938ZM115.996 32.2639C113.593 33.6288 111.103 34.5126 108.087 34.2051C107.252 35.1472 106.438 36.1176 105.688 37.1169C109.92 38.1932 114.406 35.8005 116.909 33.5232C119.555 31.2264 120.913 28.3342 120.913 28.3342C120.913 28.3342 118.929 30.6017 115.996 32.2639ZM89.4986 31.5339C88.9975 37.2803 84.5306 40.6538 83.4254 40.9222C82.7557 41.0566 81.6128 40.7589 82.633 38.3472C84.1355 35.0988 86.7007 32.3413 89.453 30.9284C89.52 31.1687 89.5183 31.3222 89.4986 31.5339ZM80.7946 46.0153C80.4746 45.3236 79.7148 44.8815 78.9052 44.9295C76.2761 45.1699 73.7045 47.3319 72.3541 50.4359C71.6456 52.0313 71.2589 53.3476 71.0054 55.4424C71.8229 54.501 73.4905 52.9539 75.3828 52.1082C75.3828 52.1082 75.6403 50.0999 76.9534 48.3124C77.4502 47.5723 78.4446 46.3808 79.5611 46.6978C80.5365 47.0247 80.1937 49.7251 78.8972 52.3382C77.9379 54.2604 76.4699 56.1828 74.9846 57.5086C73.6714 58.6234 71.7284 59.9686 70.0285 58.9309C68.9579 58.2969 68.4118 56.9705 68.5272 55.26C69.0388 50.4073 71.2477 46.275 74.4086 41.5664C77.6682 37.194 81.2612 32.7064 86.1017 30.3129C87.089 29.8133 88.0033 29.698 88.7936 30.0055C88.7936 30.0055 84.2499 32.504 82.0838 37.1265C81.5329 38.299 80.7666 39.8842 81.5382 41.2873C81.9415 42.0175 82.6575 42.0752 83.2339 42.0368C85.8888 41.4217 87.604 38.9424 89.0056 36.6748C89.8181 34.9547 90.5403 33.2441 90.5403 31.3411C90.5403 31.1106 90.5283 30.8032 90.5088 30.5723C91.7772 29.8999 94.3781 31.0912 94.3781 31.0912C96.4106 31.7642 100.739 35.0797 102.198 35.7136C102.91 34.8874 104.08 33.6382 104.739 33.0135L103.785 32.4272C102.258 31.495 100.644 30.6109 99.0554 29.7365C95.4473 27.7668 92.5101 28.4585 91.0153 28.9967C90.4279 29.208 89.8909 29.3906 89.8909 29.3906C88.7816 28.1799 86.9624 28.2949 85.6219 28.6219C80.8011 30.0056 76.3255 33.3784 71.527 39.2308C67.9991 43.8147 65.8105 47.7741 64.6445 51.6849C63.7454 54.3178 63.4722 58.1904 65.6666 60.4872C67.5323 62.4373 70.0062 62.0149 71.7534 61.3136C75.5386 59.4493 78.9405 55.4321 80.636 50.8102C81.045 49.4362 81.4988 47.4954 80.7946 46.0153ZM38.8371 41.5568C38.8308 41.576 38.1942 43.0365 38.1942 43.0365C38.1022 43.1133 37.9567 43.075 37.79 43.0365L37.5042 42.9882C36.6071 42.7097 35.9303 42.1138 35.7216 41.4028C35.4338 40.0189 36.616 38.9331 37.1369 38.5393C37.6366 38.193 38.4136 38.0105 38.8647 38.3662C39.1429 38.693 39.2484 39.1157 39.2484 39.5773C39.2485 40.2018 39.0557 40.9032 38.8371 41.5568ZM37.4697 44.3337C37.4697 44.3337 37.4408 44.4205 37.4265 44.4488C37.4228 44.4488 35.9795 46.8029 35.9795 46.8029C35.1084 47.9658 34.0209 49.4269 32.6613 50.1281C32.2583 50.2627 31.7013 50.3494 31.4174 49.994C30.8156 49.2732 31.1258 48.2738 31.3778 47.4667L31.467 47.1783C32.1894 45.2182 33.3357 43.4881 34.4514 41.883C34.4653 41.8736 34.4966 41.864 34.5079 41.864C34.5105 41.8736 34.5149 41.8736 34.5169 41.8929C35.217 43.238 36.5298 43.8624 37.5116 44.1511C37.5175 44.1511 37.5238 44.1606 37.5238 44.18C37.5239 44.2086 37.5079 44.2476 37.4697 44.3337ZM55.5248 42.7867C56.1704 41.8931 58.0495 39.5002 58.5076 39.0967C60.0484 37.7412 60.6642 38.3376 60.7175 38.7601C59.2795 41.3354 57.5824 44.2855 55.9868 46.9379C55.99 46.9284 55.4875 47.6969 55.4875 47.6969C54.7827 48.773 54.0732 49.6955 52.9157 50.3393C52.7506 50.3876 52.4786 50.407 52.2975 50.272C52.0796 50.1278 51.9935 49.8875 52.0181 49.6375C52.0874 48.8113 52.9287 46.2846 55.5248 42.7867ZM39.5238 36.9441C37.5319 35.6372 33.5284 38.1357 30.3219 42.4211C27.3896 46.2653 26.1234 50.7333 27.5014 52.7995C29.5512 55.2307 33.3566 51.6944 34.9748 49.8016L35.1835 49.5804C36.284 48.3984 37.1342 46.9761 37.9571 45.6114C37.9571 45.6114 38.7135 44.3621 38.7496 44.3043C39.2171 44.2182 39.7801 44.0836 40.4146 43.901C40.4055 43.9296 37.9871 47.9946 38.2338 50.0125C38.3107 50.628 38.252 52.8766 40.4474 53.5588C43.3734 54.0492 45.7101 51.781 47.7711 49.763C47.7711 49.763 48.1224 49.427 48.321 49.2351C48.2821 49.3917 48.2435 49.5483 48.2052 49.705C47.3486 52.684 48.5033 53.309 49.2256 53.5397C51.4085 54.1743 54.0164 51.0029 54.0248 51.0029C53.9572 52.0019 53.7595 52.8283 54.8126 53.4914C55.8065 53.8472 56.8125 53.3048 57.5771 52.7955C60.3312 50.8544 62.55 47.8164 64.342 45.1902H63.1988C63.1853 45.1902 60.3779 49.2591 58.555 50.1435C58.5524 50.1435 58.2205 50.3138 58.0293 50.1791C57.7927 49.9771 57.8861 49.5575 58.0319 49.2602C58.0411 49.2408 65.0704 37.0493 65.0704 37.0493H61.7516C61.7516 37.0493 61.389 37.6358 61.3595 37.6743C61.3371 37.6551 61.284 37.5543 61.2471 37.506C59.1908 34.6616 54.5342 39.0367 51.0283 44.1101C49.6786 46.0611 47.9602 48.2577 46.1784 49.8435C46.1784 49.8435 43.5387 52.2632 42.4109 50.5247C41.9986 49.7942 42.1254 48.7263 42.358 48.025C43.6712 44.2869 45.934 40.8946 48.5089 38.8473C49.2358 38.2807 50.0258 38.1168 50.418 38.3571C50.7915 38.5785 50.8518 39.1258 50.6154 39.5007C50.0157 39.4815 49.5353 39.6637 49.1447 40.0674C48.3753 40.8746 48.1079 41.6531 48.3526 42.3836C49.5411 44.0748 51.9112 40.7306 51.7966 38.6934C51.7556 37.9629 51.3659 37.2712 50.7844 36.9345C49.9176 36.4159 48.5953 36.5502 47.7396 36.9637C46.5941 37.3959 44.7808 38.9045 43.7223 40.0771C42.3898 41.5476 40.1046 43.1811 39.3899 42.9981C39.6239 42.3732 41.5545 38.4235 39.5238 36.9441ZM56.206 58.3254C52.2973 55.8075 46.9925 55.3657 38.4377 57.7391C29.3177 59.8823 26.2767 61.2561 22.2834 58.4982C20.7492 57.1434 20.1991 54.962 20.6099 51.82C21.5626 46.6977 24.1369 41.7683 28.7099 36.3007C31.2624 33.4563 33.6299 31.0154 36.7563 30.0353C39.1524 29.4204 38.9284 31.3034 38.6385 31.5727C38.3325 31.5727 37.8186 31.6209 37.4214 31.8801C37.0991 32.1301 36.2142 32.9374 36.1667 34.0233C36.0981 35.6856 37.8185 35.3396 38.5605 34.4269C39.3603 33.3984 40.5423 31.4288 39.6125 29.5931C39.2228 28.9397 38.5495 28.4882 37.7134 28.3344C34.8507 28.1708 32.1844 29.5354 29.7237 31.0441C24.3439 34.7821 20.0392 39.9619 17.6037 45.6317C16.1993 49.0526 14.9294 53.9528 16.8331 57.9414C18.3057 60.7088 21.363 62.1787 25.0108 61.8713C27.5691 61.6026 30.6622 60.7757 32.7432 60.2765C34.8237 59.7765 45.4735 56.1156 48.9731 62.4872C48.9731 62.4872 50.1367 60.2283 53.0447 60.1801C55.4355 59.9595 58.8847 60.8723 61.3963 62.7169C60.5595 61.4585 58.1871 59.6038 56.2079 58.3256L56.206 58.3254Z" fill="#DFDFDF"/>
</svg>
