<svg width="138" height="92" viewBox="0 0 138 92" fill="none" xmlns="http://www.w3.org/2000/svg">
<path d="M104.307 57.6526C104.306 57.6526 103.983 57.9408 103.983 57.9408C103.521 58.3538 103.045 58.7959 102.472 58.5748C102.313 58.5171 102.202 58.306 102.175 58.1421C102.149 56.9601 102.681 55.8649 103.197 54.7984L103.33 54.5196C104.814 52.0404 106.54 49.1192 109.075 47.0918C109.502 46.7836 109.966 46.5247 110.455 46.7267C110.567 46.8321 110.698 47.0149 110.698 47.1973C110.698 47.2552 110.647 47.4088 110.617 47.4566C109.909 48.6007 109.235 49.8017 108.58 50.9547C107.298 53.2323 105.969 55.5861 104.307 57.6526ZM90.5734 51.81C90.4764 51.8776 88.764 51.3008 88.4331 49.7153C88.1524 48.3503 89.0924 47.2837 90.0019 46.746C90.3922 46.4383 90.9802 46.3329 91.4116 46.486C91.8119 46.7554 91.9204 47.2363 91.9204 47.7544C91.9204 48.0722 91.8782 48.3986 91.8411 48.6964L91.8328 48.7639C91.5475 49.8302 91.1109 50.8777 90.5734 51.81ZM84.0323 58.2581C83.8576 57.9987 83.7997 57.715 83.7939 57.4083C83.7604 55.524 85.7877 52.1497 87.2186 50.3115H87.2218C87.8215 51.6245 89.1794 52.4686 89.9992 52.8242C88.981 55.0923 85.4888 59.9494 84.0323 58.2581ZM108.746 58.5927C108.407 58.8233 107.931 58.6461 108.109 58.1177C108.553 56.7723 110.316 54.0307 110.316 54.0307L115.226 45.3214H111.862C111.702 45.584 111.361 46.1871 111.361 46.1871C111.205 45.9279 110.74 45.3515 110.548 45.227C109.726 44.7076 108.521 44.9532 107.689 45.4239C104.073 47.5384 101.435 51.7161 99.3537 54.9736C99.3537 54.9736 97.1634 58.595 95.9475 58.8643C94.9983 58.9413 95.0962 57.6626 95.1373 57.3647C95.5044 55.2118 96.3566 53.1651 97.2154 51.3104C98.9619 50.0997 100.955 48.5142 102.766 46.7749C106.698 43.0172 110.011 38.76 110.496 37.8088C110.496 37.8088 109.971 37.9146 109.352 37.9336C106.328 42.1522 100.139 48.2837 98.2632 49.196C99.0944 47.1969 104.465 37.6547 109.034 33.0905L109.754 32.3984C110.866 31.3125 112.018 30.1978 112.916 30.0152C113.01 30.0056 113.133 30.0152 113.238 30.2366C113.278 31.0821 112.963 31.7068 112.602 32.4178L112.096 33.4558C112.096 33.4558 112.813 33.3213 113.284 33.1671C113.83 32.1394 114.435 30.9859 114.212 29.612C114.137 29.1699 113.817 28.8336 113.399 28.7567C112.036 28.4972 110.55 29.5059 109.355 30.323L109.307 30.3516C103.161 35.1661 97.9722 42.1045 93.4354 51.5796C93.1066 51.829 91.8362 52.1273 91.6202 51.9829C92.0682 51.0606 92.6323 49.8207 92.9146 48.4754C92.9634 48.0909 93.0089 47.6971 93.0089 47.3128C93.0089 46.4857 92.8103 45.7076 92.0694 45.1696C91.2006 44.7371 90.127 44.9391 89.4031 45.2656C86.1601 46.611 83.7364 49.9361 81.9874 52.6744C81.0467 54.4142 80.1088 56.2775 79.8491 58.4114C79.6662 60.0832 80.0386 61.1595 80.9891 61.6978C81.9667 62.1972 83.1971 61.6781 83.6804 61.4286C86.9658 59.6989 89.2614 56.23 91.0708 53.0586C91.1428 53.0491 92.1307 53.0205 92.878 52.828C92.888 52.828 92.8922 52.828 92.9087 52.8381C92.8659 52.9816 92.4797 54.1351 92.4797 54.1351C91.3329 57.4983 90.8026 59.7855 91.8858 61.1406C93.4337 63.053 95.9964 61.0736 98.0813 58.4593C97.6338 61.592 99.2574 62.0823 100.495 61.8423C101.917 61.4581 103.501 59.9394 104.236 59.1613C104 60.074 104.064 61.7078 105.357 61.871C106.244 62.0349 106.907 61.5527 107.675 61.1394C110.428 59.6401 113.724 54.6445 114.58 53.2001H113.458C112.241 55.0385 110.693 57.4485 108.746 58.5927ZM66.3286 39.9378H69.4798L71.2583 37.0491H68.1065L66.3286 39.9378ZM116.667 32.2638C114.264 33.6286 111.773 34.5125 108.758 34.205C107.922 35.1471 107.108 36.1175 106.359 37.1168C110.59 38.1931 115.077 35.8003 117.579 33.5231C120.226 31.2263 121.583 28.3341 121.583 28.3341C121.583 28.3341 119.599 30.6016 116.667 32.2638ZM90.169 31.5337C89.6679 37.2802 85.201 40.6537 84.0958 40.9221C83.4261 41.0565 82.2832 40.7588 83.3034 38.3471C84.8059 35.0987 87.3711 32.3412 90.1234 30.9283C90.1904 31.1686 90.1887 31.3221 90.169 31.5337ZM81.465 46.0152C81.145 45.3235 80.3852 44.8814 79.5757 44.9293C76.9465 45.1697 74.3749 47.3318 73.0245 50.4358C72.316 52.0312 71.9293 53.3475 71.6758 55.4423C72.4933 54.5009 74.1609 52.9538 76.0532 52.1081C76.0532 52.1081 76.3107 50.0997 77.6238 48.3123C78.1206 47.5722 79.115 46.3806 80.2315 46.6977C81.2069 47.0246 80.8641 49.725 79.5676 52.338C78.6083 54.2603 77.1403 56.1827 75.655 57.5084C74.3418 58.6232 72.3988 59.9685 70.699 58.9307C69.6283 58.2968 69.0822 56.9704 69.1976 55.2599C69.7092 50.4072 71.9182 46.2749 75.0791 41.5662C78.3386 37.1939 81.9317 32.7062 86.7721 30.3128C87.7594 29.8132 88.6737 29.6979 89.464 30.0054C89.464 30.0054 84.9203 32.5039 82.7543 37.1264C82.2033 38.2989 81.437 39.884 82.2086 41.2872C82.6119 42.0173 83.3279 42.0751 83.9043 42.0367C86.5592 41.4215 88.2745 38.9423 89.676 36.6747C90.4885 34.9546 91.2107 33.244 91.2107 31.341C91.2107 31.1105 91.1987 30.8031 91.1792 30.5722C92.4476 29.8998 95.0485 31.0911 95.0485 31.0911C97.081 31.764 101.409 35.0796 102.869 35.7135C103.581 34.8872 104.751 33.6381 105.41 33.0133L104.456 32.4271C102.929 31.4949 101.315 30.6108 99.7258 29.7364C96.1177 27.7667 93.1805 28.4584 91.6857 28.9966C91.0983 29.2079 90.5613 29.3905 90.5613 29.3905C89.4521 28.1798 87.6328 28.2948 86.2923 28.6217C81.4715 30.0054 76.9959 33.3783 72.1974 39.2307C68.6695 43.8146 66.4809 47.774 65.3149 51.6848C64.4158 54.3177 64.1426 58.1902 66.337 60.487C68.2027 62.4372 70.6766 62.0148 72.4238 61.3135C76.209 59.4492 79.6109 55.432 81.3064 50.8101C81.7154 49.4361 82.1693 47.4953 81.465 46.0152ZM39.5075 41.5567C39.5012 41.5759 38.8646 43.0364 38.8646 43.0364C38.7726 43.1132 38.6271 43.0749 38.4604 43.0364L38.1747 42.9881C37.2775 42.7095 36.6007 42.1137 36.3921 41.4027C36.1042 40.0188 37.2864 38.933 37.8073 38.5392C38.307 38.1929 39.084 38.0104 39.5351 38.3661C39.8134 38.6929 39.9188 39.1156 39.9188 39.5772C39.9189 40.2017 39.7261 40.9031 39.5075 41.5567ZM38.1401 44.3336C38.1401 44.3336 38.1112 44.4203 38.0969 44.4487C38.0932 44.4487 36.6499 46.8028 36.6499 46.8028C35.7789 47.9657 34.6913 49.4268 33.3317 50.128C32.9287 50.2626 32.3717 50.3492 32.0878 49.9939C31.486 49.273 31.7962 48.2737 32.0482 47.4665L32.1374 47.1782C32.8598 45.2181 34.0061 43.488 35.1218 41.8829C35.1357 41.8734 35.167 41.8639 35.1783 41.8639C35.1809 41.8735 35.1853 41.8735 35.1873 41.8928C35.8874 43.2379 37.2002 43.8622 38.182 44.151C38.1879 44.151 38.1942 44.1605 38.1942 44.1798C38.1944 44.2085 38.1783 44.2474 38.1401 44.3336ZM56.1952 42.7865C56.8408 41.893 58.7199 39.5001 59.178 39.0966C60.7188 37.7411 61.3346 38.3375 61.3879 38.76C59.9499 41.3353 58.2528 44.2854 56.6572 46.9377C56.6604 46.9283 56.1579 47.6968 56.1579 47.6968C55.4531 48.7729 54.7436 49.6954 53.5861 50.3392C53.421 50.3875 53.149 50.4068 52.9679 50.2719C52.75 50.1277 52.6639 49.8874 52.6885 49.6374C52.7579 48.8112 53.5992 46.2845 56.1952 42.7865ZM40.1942 36.944C38.2023 35.6371 34.1988 38.1356 30.9923 42.421C28.06 46.2652 26.7938 50.7332 28.1718 52.7994C30.2216 55.2306 34.027 51.6943 35.6452 49.8015L35.854 49.5803C36.9544 48.3982 37.8046 46.9759 38.6276 45.6112C38.6276 45.6112 39.3839 44.362 39.42 44.3042C39.8875 44.2181 40.4505 44.0835 41.085 43.9009C41.0759 43.9295 38.6575 47.9944 38.9042 50.0124C38.9811 50.6279 38.9224 52.8765 41.1178 53.5587C44.0438 54.0491 46.3805 51.7809 48.4415 49.7629C48.4415 49.7629 48.7928 49.4269 48.9914 49.235C48.9525 49.3915 48.9139 49.5481 48.8756 49.7048C48.019 52.6839 49.1737 53.3089 49.896 53.5396C52.079 54.1742 54.6868 51.0028 54.6952 51.0028C54.6276 52.0017 54.4299 52.8282 55.483 53.4913C56.477 53.8471 57.4829 53.3047 58.2475 52.7954C61.0017 50.8542 63.2204 47.8162 65.0124 45.1901H63.8692C63.8557 45.1901 61.0483 49.259 59.2255 50.1434C59.2228 50.1434 58.8909 50.3137 58.6997 50.179C58.4631 49.977 58.5565 49.5574 58.7023 49.2601C58.7115 49.2406 65.7408 37.0492 65.7408 37.0492H62.422C62.422 37.0492 62.0595 37.6357 62.0299 37.6742C62.0076 37.655 61.9544 37.5542 61.9175 37.5058C59.8612 34.6615 55.2046 39.0366 51.6987 44.11C50.349 46.0609 48.6306 48.2576 46.8488 49.8433C46.8488 49.8433 44.2092 52.263 43.0813 50.5245C42.669 49.7941 42.7958 48.7262 43.0284 48.0249C44.3416 44.2868 46.6044 40.8945 49.1793 38.8472C49.9062 38.2805 50.6962 38.1167 51.0884 38.357C51.4619 38.5784 51.5222 39.1257 51.2859 39.5005C50.6862 39.4814 50.2057 39.6636 49.8151 40.0672C49.0457 40.8745 48.7783 41.653 49.023 42.3835C50.2115 44.0747 52.5816 40.7305 52.467 38.6933C52.426 37.9628 52.0363 37.2711 51.4548 36.9344C50.588 36.4157 49.2657 36.55 48.4101 36.9635C47.2645 37.3958 45.4512 38.9043 44.3927 40.077C43.0602 41.5475 40.775 43.1809 40.0603 42.998C40.2944 42.3731 42.2249 38.4234 40.1942 36.944ZM56.8764 58.3253C52.9677 55.8074 47.6629 55.3655 39.1081 57.739C29.9881 59.8822 26.9471 61.256 22.9538 58.4981C21.4196 57.1433 20.8695 54.9618 21.2803 51.8199C22.233 46.6976 24.8073 41.7681 29.3803 36.3006C31.9328 33.4562 34.3003 31.0152 37.4267 30.0352C39.8228 29.4202 39.5988 31.3033 39.3089 31.5726C39.0029 31.5726 38.489 31.6208 38.0918 31.88C37.7695 32.13 36.8846 32.9372 36.8371 34.0231C36.7685 35.6855 38.4889 35.3394 39.2309 34.4268C40.0307 33.3983 41.2127 31.4286 40.283 29.593C39.8932 28.9396 39.2199 28.4881 38.3839 28.3343C35.5211 28.1707 32.8548 29.5353 30.3942 31.044C25.0143 34.782 20.7096 39.9618 18.2741 45.6316C16.8698 49.0525 15.5998 53.9527 17.5035 57.9412C18.9761 60.7086 22.0334 62.1786 25.6812 61.8712C28.2395 61.6025 31.3326 60.7756 33.4136 60.2764C35.4941 59.7764 46.1439 56.1154 49.6435 62.487C49.6435 62.487 50.8071 60.2282 53.7151 60.18C56.1059 59.9594 59.5551 60.8721 62.0667 62.7168C61.2299 61.4584 58.8575 59.6037 56.8783 58.3254L56.8764 58.3253Z" fill="#DFDFDF"/>
</svg>
