<svg width="10" height="10" viewBox="0 0 10 10" fill="none" xmlns="http://www.w3.org/2000/svg">
<path d="M8.3461 3.97109L5.2211 7.09609C5.19207 7.12515 5.15761 7.1482 5.11967 7.16393C5.08173 7.17965 5.04107 7.18775 5 7.18775C4.95893 7.18775 4.91827 7.17965 4.88033 7.16393C4.8424 7.1482 4.80793 7.12515 4.77891 7.09609L1.65391 3.97109C1.61015 3.92739 1.58035 3.87168 1.56827 3.81103C1.5562 3.75038 1.56238 3.68751 1.58606 3.63038C1.60973 3.57325 1.64982 3.52442 1.70126 3.49009C1.75269 3.45575 1.81316 3.43745 1.875 3.4375H8.125C8.18684 3.43745 8.24731 3.45575 8.29875 3.49009C8.35018 3.52442 8.39027 3.57325 8.41395 3.63038C8.43762 3.68751 8.44381 3.75038 8.43173 3.81103C8.41965 3.87168 8.38985 3.92739 8.3461 3.97109Z" fill="#8256FF"/>
</svg>
