<svg width="200" height="200" viewBox="0 0 200 200" fill="none" xmlns="http://www.w3.org/2000/svg">
<g clip-path="url(#clip0_1_13385)">
<path d="M20.3465 89.2611C15.9336 91.3128 12.9001 96.1957 9.52635 99.5321C8.60869 100.274 9.61288 101.891 10.8625 101.184C14.6816 98.3981 18.9379 94.6514 21.6827 90.9129C22.1202 89.9517 21.2294 88.8505 20.3465 89.2611ZM46.379 76.4006C41.731 75.9097 37.2479 78.6253 34.0928 81.4812C33.3586 82.0751 34.2494 83.1763 34.9836 82.5824C36.8714 81.3391 38.8943 80.3139 41.0133 79.5266C42.9269 78.8895 44.8055 78.5843 46.7192 77.9472C47.5667 77.8689 47.3749 76.5058 46.379 76.4006ZM77.2304 75.127C75.1601 74.069 72.5041 73.7885 70.1451 73.875C67.8211 73.6296 65.2785 73.8646 63.0679 74.1346C62.2204 74.213 62.2637 75.3925 63.1112 75.3142C65.4703 75.2276 67.7942 75.4731 69.9347 75.867C72.2587 76.1125 74.5125 77.022 76.8365 77.2674C77.9807 77.5564 78.3395 75.7479 77.2304 75.127ZM90.1059 83.5366C88.813 83.0644 88.1219 84.838 89.4151 85.31C90.5245 85.9308 91.9659 86.5866 93.0753 87.2073C94.4816 88.1951 95.337 89.6285 96.7784 90.2843C97.4073 90.6864 98.325 89.9441 98.0631 89.245C97.348 86.4836 92.8403 84.6647 90.1059 83.5366ZM113.619 102.47C112.135 100.634 110.65 98.7992 108.947 97.4443C108.021 96.6751 106.92 97.5659 107.662 98.4836C108.815 100.284 110.002 101.752 111.338 103.404C112.675 105.056 113.644 107.004 115.531 108.211C116.308 108.796 117.592 107.757 117.182 106.875C116.362 105.109 114.991 103.789 113.619 102.47ZM122.28 122.184C123.03 124.613 123.781 127.042 124.164 129.768C124.583 132.162 124.634 134.853 125.935 136.837C126.494 137.903 127.927 137.047 128.181 136.235C128.61 133.762 127.563 130.966 126.812 128.537C126.245 125.959 125.311 123.679 124.193 121.546C123.486 120.297 121.721 121.118 122.28 122.184ZM125.452 142.997C125.39 145.172 125.477 147.531 125.267 149.523C125.161 150.519 124.873 151.664 124.435 152.625C123.998 153.586 123.631 153.883 123.674 155.062C123.753 155.91 124.714 156.347 125.413 156.085C127.362 155.116 127.494 152.276 127.704 150.284C127.801 147.777 127.383 145.383 126.816 142.805C126.554 142.106 125.374 142.149 125.452 142.997ZM115.032 159.017C114.708 160.493 114.052 161.935 112.951 162.826C112.034 163.568 110.784 164.275 110.644 165.603C110.574 166.267 111.019 166.818 111.683 166.888C115.003 167.238 116.595 161.7 116.508 159.34C116.43 158.493 115.286 158.204 115.032 159.017ZM100.168 164.664C98.5515 165.669 96.6025 166.638 94.6888 167.275C92.4434 167.877 90.67 167.186 88.5644 166.46C87.42 166.171 86.4672 167.246 87.1745 168.495C90.9995 173.599 97.9819 169.469 101.207 165.949C101.61 165.32 100.719 164.219 100.168 164.664ZM81.1928 159.975C77.4976 158.409 75.6377 155.36 72.7116 152.868C71.9345 152.283 70.8333 153.174 71.2434 154.056C73.2167 157.622 76.8067 160.183 80.7206 161.268C81.533 161.521 81.9705 160.56 81.1928 159.975ZM56.3909 127.813C55.6112 133.606 58.589 138.788 62.187 142.861C62.7808 143.595 64.0656 142.556 63.4717 141.821C60.5375 137.819 58.5209 133.074 58.3831 128.024C58.5234 126.695 56.5314 126.485 56.3909 127.813ZM56.3465 105.988C54.3791 110.312 54.3336 115.51 54.8387 120.264C54.8819 121.443 56.7605 121.138 56.5337 120.107C56.5091 115.572 57.4805 111.143 58.1199 106.679C58.2602 105.351 56.7834 105.027 56.3465 105.988ZM58.5636 86.5837C55.9942 88.6622 54.8392 93.24 54.6721 96.4115C54.5318 97.7395 56.5238 97.9499 56.6641 96.6219C56.8394 94.9619 57.3467 93.337 58.0025 91.8956C58.6583 90.4542 59.6461 89.0479 60.1535 87.423C60.4071 86.6105 59.1142 86.1383 58.5636 86.5837ZM76.9216 58.9807C75.4534 60.1684 74.4305 61.9067 73.1107 63.278C71.5723 65.1297 69.8855 66.7979 68.8276 68.8682C68.2068 69.9776 69.6132 70.9654 70.3824 70.0395C71.7372 68.3363 73.4241 66.6681 74.9274 65.1484C76.2472 63.7771 78.0825 62.2925 78.6249 60.3355C79.2456 59.2261 77.839 58.2386 76.9216 58.9807ZM91.7713 43.9319C88.94 45.3114 86.4489 48.2374 84.0279 50.4995C83.1103 51.2418 84.1495 52.5265 85.0672 51.7842C87.7851 49.8892 90.9835 48.2128 93.1075 45.5837C93.8764 44.6581 92.8372 43.3734 91.7713 43.9319ZM109.582 31.0423C108 31.7145 106.864 32.9373 105.579 33.9768C104.295 35.0158 102.826 36.2038 101.69 37.4265C100.772 38.1689 101.96 39.6371 102.878 38.8948C104.162 37.8555 105.631 36.6676 107.064 35.8121C108.349 34.7728 109.782 33.9171 110.77 32.5105C111.504 31.9167 110.613 30.8155 109.582 31.0423Z" fill="black"/>
<path d="M125.26 19.2703C120.944 18.8144 116.776 18.5421 112.574 18.6015C109.551 18.6179 104.571 18.0921 102.333 20.2057C101.415 20.9481 101.572 22.6431 102.865 23.1154C105.451 24.0599 108.911 23.0826 111.454 22.8476C114.66 22.6827 118.164 22.8849 121.667 23.0871C119.184 27.5247 117.147 32.5128 115.144 37.169C114.489 38.6104 116.856 40.0354 117.844 38.6288C121.245 33.4489 122.907 27.2462 126.936 22.4684C127.889 21.3943 126.736 19.5938 125.26 19.2703Z" fill="black"/>
</g>
<defs>
<clipPath id="clip0_1_13385">
<rect width="142" height="142" fill="white" transform="translate(0 89.3066) rotate(-38.9706)"/>
</clipPath>
</defs>
</svg>
