<svg width="224" height="37" viewBox="0 0 224 37" fill="none" xmlns="http://www.w3.org/2000/svg">
<path d="M53.4281 36.6322H49.183C49.061 36.6322 49 36.5708 49 36.4482L49.0366 10.5702C49.0366 10.4721 49.0854 10.423 49.183 10.423H53.3915C53.4891 10.423 53.5378 10.4721 53.5378 10.5702L53.5744 36.4482C53.5744 36.5708 53.5257 36.6322 53.4281 36.6322Z" fill="white"/>
<path d="M61.2595 36.6322H57.0144C56.9168 36.6322 56.868 36.5708 56.868 36.4482L56.9412 10.5702C56.9412 10.4721 56.99 10.423 57.0876 10.423H61.6621C61.7597 10.423 61.845 10.4721 61.9182 10.5702L65.3399 15.5361L68.7433 10.5702C68.8165 10.4721 68.908 10.423 69.0178 10.423H73.6105C73.7203 10.423 73.7752 10.4721 73.7752 10.5702L73.8484 36.4482C73.8484 36.5708 73.7996 36.6322 73.702 36.6322H69.4569C69.3593 36.6322 69.3105 36.5708 69.3105 36.4482L69.2739 17.2282L65.3399 22.9666L61.4425 17.2282L61.4059 36.4482C61.4059 36.5708 61.3571 36.6322 61.2595 36.6322Z" fill="white"/>
<path d="M75.7331 36.4482L80.3807 10.5702C80.4051 10.4721 80.4661 10.423 80.5637 10.423H85.9981C86.0957 10.423 86.1567 10.4721 86.1811 10.5702L90.6458 36.4482C90.658 36.5708 90.6092 36.6322 90.4994 36.6322H86.3458C86.2238 36.6322 86.1567 36.5708 86.1445 36.4482L85.7419 33.6894H80.6369L80.2343 36.4482C80.2221 36.5708 80.1611 36.6322 80.0513 36.6322H75.8794C75.7819 36.6322 75.7331 36.5708 75.7331 36.4482ZM83.0705 19.0858L81.3871 29.6614H84.9917L83.4547 19.0858L83.2352 17.688L83.0705 19.0858Z" fill="white"/>
<path d="M99.8495 37C98.4955 37 97.2756 36.6628 96.19 35.9884C95.0921 35.314 94.2077 34.4067 93.5368 33.2663C92.8781 32.126 92.5487 30.8508 92.5487 29.4407V17.5041C92.5487 16.1308 92.8842 14.8801 93.5551 13.752C94.2138 12.6117 95.0982 11.7044 96.2083 11.03C97.3183 10.3433 98.5321 10 99.8495 10C101.228 10 102.472 10.3311 103.582 10.9932C104.692 11.6676 105.571 12.5688 106.217 13.6969C106.876 14.8249 107.205 16.094 107.205 17.5041V19.233C107.205 19.3311 107.144 19.3801 107.022 19.3801H102.814C102.716 19.3801 102.667 19.3311 102.667 19.233V17.7984C102.667 16.842 102.399 16.0511 101.862 15.4257C101.326 14.8004 100.655 14.4877 99.8495 14.4877C99.1298 14.4877 98.4894 14.7881 97.9283 15.389C97.3671 15.9898 97.0866 16.6948 97.0866 17.5041V29.4407C97.0866 30.2623 97.361 30.9734 97.91 31.5743C98.4589 32.1628 99.1054 32.4571 99.8495 32.4571C100.655 32.4571 101.326 32.1689 101.862 31.5926C102.399 31.0041 102.667 30.2868 102.667 29.4407V27.5831H100.051C99.9166 27.5831 99.8495 27.5218 99.8495 27.3992V23.1873C99.8495 23.0647 99.9166 23.0034 100.051 23.0034H107.059C107.156 23.0034 107.205 23.0647 107.205 23.1873V29.4407C107.205 30.8508 106.876 32.126 106.217 33.2663C105.546 34.4067 104.662 35.314 103.564 35.9884C102.466 36.6628 101.228 37 99.8495 37Z" fill="white"/>
<path d="M122.118 36.6322H110.005C109.907 36.6322 109.858 36.5708 109.858 36.4482L109.895 10.5702C109.895 10.4721 109.944 10.423 110.041 10.423H122.081C122.179 10.423 122.228 10.4843 122.228 10.6069V14.8188C122.228 14.9169 122.179 14.9659 122.081 14.9659H114.396V20.8515H122.081C122.179 20.8515 122.228 20.9005 122.228 20.9986L122.264 25.2657C122.264 25.3638 122.216 25.4128 122.118 25.4128H114.396V31.9973H122.118C122.216 31.9973 122.264 32.0586 122.264 32.1812V36.485C122.264 36.5831 122.216 36.6322 122.118 36.6322Z" fill="white"/>
<path d="M147.588 36.6322H135.475C135.378 36.6322 135.329 36.5708 135.329 36.4482L135.366 10.5702C135.366 10.4721 135.414 10.423 135.512 10.423H147.552C147.649 10.423 147.698 10.4843 147.698 10.6069V14.8188C147.698 14.9169 147.649 14.9659 147.552 14.9659H139.867V20.8515H147.552C147.649 20.8515 147.698 20.9005 147.698 20.9986L147.735 25.2657C147.735 25.3638 147.686 25.4128 147.588 25.4128H139.867V31.9973H147.588C147.686 31.9973 147.735 32.0586 147.735 32.1812V36.485C147.735 36.5831 147.686 36.6322 147.588 36.6322Z" fill="white"/>
<path d="M157.963 36.5954L151.248 36.6322C151.126 36.6322 151.065 36.5708 151.065 36.4482L151.138 10.5702C151.138 10.4721 151.187 10.423 151.285 10.423L158.293 10.3862C159.683 10.3495 160.94 10.6683 162.062 11.3426C163.196 12.017 164.099 12.9305 164.77 14.0831C165.453 15.2234 165.795 16.4864 165.795 17.8719V28.6866C165.795 30.1335 165.447 31.4578 164.752 32.6594C164.044 33.8488 163.105 34.799 161.934 35.5102C160.763 36.2091 159.439 36.5708 157.963 36.5954ZM158.293 14.8924L155.676 14.9292L155.639 31.9973H157.963C158.89 31.9973 159.671 31.6723 160.305 31.0225C160.94 30.3726 161.257 29.594 161.257 28.6866V17.8351C161.257 17.0381 160.964 16.3454 160.379 15.7568C159.793 15.156 159.098 14.8678 158.293 14.8924Z" fill="white"/>
<path d="M173.169 36.6322H168.924C168.802 36.6322 168.741 36.5708 168.741 36.4482L168.777 10.5702C168.777 10.4721 168.826 10.423 168.924 10.423H173.132C173.23 10.423 173.279 10.4721 173.279 10.5702L173.315 36.4482C173.315 36.5708 173.266 36.6322 173.169 36.6322Z" fill="white"/>
<path d="M184.605 36.6322H180.378C180.268 36.6322 180.213 36.5708 180.213 36.4482V14.9659H175.346C175.224 14.9659 175.163 14.9046 175.163 14.782L175.2 10.5702C175.2 10.4721 175.249 10.423 175.346 10.423H189.582C189.716 10.423 189.783 10.4721 189.783 10.5702V14.782C189.783 14.9046 189.734 14.9659 189.637 14.9659H184.715L184.751 36.4482C184.751 36.5708 184.702 36.6322 184.605 36.6322Z" fill="white"/>
<path d="M198.548 37C197.218 37 195.992 36.6567 194.87 35.97C193.76 35.2834 192.863 34.3699 192.18 33.2296C191.509 32.077 191.174 30.814 191.174 29.4407L191.21 17.5041C191.21 16.1063 191.546 14.8495 192.217 13.7337C192.875 12.6056 193.766 11.7044 194.888 11.03C196.01 10.3433 197.23 10 198.548 10C199.914 10 201.14 10.3372 202.226 11.0116C203.324 11.686 204.202 12.5933 204.861 13.7337C205.531 14.8617 205.867 16.1185 205.867 17.5041L205.903 29.4407C205.903 30.814 205.574 32.0708 204.915 33.2112C204.244 34.3638 203.354 35.2834 202.244 35.97C201.134 36.6567 199.902 37 198.548 37ZM198.548 32.4571C199.304 32.4571 199.963 32.1505 200.524 31.5375C201.085 30.9121 201.366 30.2132 201.366 29.4407L201.329 17.5041C201.329 16.6703 201.067 15.9653 200.542 15.389C200.018 14.8127 199.353 14.5245 198.548 14.5245C197.779 14.5245 197.121 14.8065 196.572 15.3706C196.023 15.9346 195.748 16.6458 195.748 17.5041V29.4407C195.748 30.2623 196.023 30.9734 196.572 31.5743C197.121 32.1628 197.779 32.4571 198.548 32.4571Z" fill="white"/>
<path d="M213.131 36.6322H208.886C208.788 36.6322 208.74 36.5708 208.74 36.4482L208.813 10.5702C208.813 10.4721 208.862 10.423 208.959 10.423H216.535C217.889 10.423 219.133 10.7541 220.267 11.4162C221.402 12.0783 222.304 12.9673 222.975 14.0831C223.658 15.1989 224 16.4619 224 17.8719C224 18.7916 223.86 19.6253 223.579 20.3733C223.299 21.1213 222.969 21.7527 222.591 22.2677C222.225 22.7827 221.89 23.1628 221.585 23.408C222.939 24.9162 223.616 26.688 223.616 28.7234L223.652 36.4482C223.652 36.5708 223.591 36.6322 223.469 36.6322H219.224C219.127 36.6322 219.078 36.5954 219.078 36.5218V28.7234C219.078 27.8161 218.761 27.0313 218.126 26.3692C217.492 25.7071 216.711 25.376 215.784 25.376H213.314L213.277 36.4482C213.277 36.5708 213.229 36.6322 213.131 36.6322ZM216.535 14.9292H213.314V20.8515H216.535C217.303 20.8515 217.986 20.5634 218.584 19.9871C219.194 19.4108 219.499 18.7057 219.499 17.8719C219.499 17.0749 219.206 16.3883 218.62 15.812C218.035 15.2234 217.34 14.9292 216.535 14.9292Z" fill="white"/>
<g clip-path="url(#clip0_1_13733)">
<path d="M8.96528 5.97852H5.25912C4.49469 5.97852 3.875 6.58515 3.875 7.33346V10.9615C3.875 11.7098 4.49469 12.3165 5.25912 12.3165H8.96528C9.7297 12.3165 10.3494 11.7098 10.3494 10.9615V7.33346C10.3494 6.58515 9.7297 5.97852 8.96528 5.97852Z" fill="#ED1C24"/>
<path d="M2.80871 2.67969H1.06706C0.707498 2.67969 0.416016 2.96503 0.416016 3.31701V5.02195C0.416016 5.37394 0.707498 5.65928 1.06706 5.65928H2.80871C3.16827 5.65928 3.45975 5.37394 3.45975 5.02195V3.31701C3.45975 2.96503 3.16827 2.67969 2.80871 2.67969Z" fill="#8338EC"/>
<path d="M3.04705 13.6436H0.828859C0.371093 13.6436 0 14.0068 0 14.4549V16.6264C0 17.0745 0.371093 17.4378 0.828859 17.4378H3.04705C3.50482 17.4378 3.87591 17.0745 3.87591 16.6264V14.4549C3.87591 14.0068 3.50482 13.6436 3.04705 13.6436Z" fill="#FFBE0B"/>
<path d="M12.2331 0H9.85936C9.36965 0 8.97266 0.388627 8.97266 0.868022V3.19172C8.97266 3.67112 9.36965 4.05974 9.85936 4.05974H12.2331C12.7228 4.05974 13.1198 3.67112 13.1198 3.19172V0.868022C13.1198 0.388627 12.7228 0 12.2331 0Z" fill="#FF006E"/>
<path d="M33.2262 10.5674H24.086C23.9343 10.5675 23.7841 10.5383 23.6439 10.4815C23.5037 10.4247 23.3764 10.3414 23.2691 10.2364C23.1618 10.1314 23.0768 10.0067 23.0187 9.86949C22.9607 9.73227 22.9309 9.58521 22.9309 9.4367V7.91C22.9309 7.61438 22.8714 7.32165 22.7559 7.04854C22.6403 6.77543 22.4709 6.52728 22.2573 6.31827C22.0438 6.10925 21.7902 5.94347 21.5112 5.83038C21.2322 5.71729 20.9332 5.65912 20.6312 5.65918H14.4764C13.8666 5.65918 13.2817 5.89632 12.8505 6.31843C12.4193 6.74054 12.1771 7.31305 12.1771 7.91V12.4335C12.1772 12.6082 12.1421 12.7812 12.0738 12.9427C12.0055 13.1042 11.9054 13.2509 11.7792 13.3745C11.653 13.498 11.5032 13.5961 11.3383 13.663C11.1734 13.7298 10.9966 13.7643 10.8181 13.7643H8.00436C7.39455 13.7643 6.80972 14.0014 6.37852 14.4235C5.94732 14.8456 5.70508 15.4181 5.70508 16.0151V22.0402C5.70508 22.6371 5.94732 23.2096 6.37852 23.6318C6.80972 24.0539 7.39455 24.291 8.00436 24.291H10.8451C10.9969 24.291 11.1471 24.3203 11.2873 24.3771C11.4275 24.434 11.5548 24.5173 11.6621 24.6224C11.7694 24.7274 11.8544 24.8521 11.9124 24.9894C11.9705 25.1266 12.0003 25.2737 12.0002 25.4222V31.348C12.0002 32.8467 12.6083 34.2841 13.6908 35.344C14.7732 36.4039 16.2414 36.9995 17.7724 36.9999H33.2267C34.7579 36.9997 36.2263 36.4042 37.3089 35.3443C38.3916 34.2844 38.9998 32.8469 38.9998 31.348V16.2193C38.9997 14.7204 38.3913 13.2829 37.3086 12.223C36.2259 11.1631 34.7574 10.5676 33.2262 10.5674Z" fill="#8256FF"/>
</g>
<defs>
<clipPath id="clip0_1_13733">
<rect width="39" height="37" fill="white"/>
</clipPath>
</defs>
</svg>
