<svg width="224" height="37" viewBox="0 0 224 37" fill="none" xmlns="http://www.w3.org/2000/svg">
<path d="M53.4281 36.6322H49.183C49.061 36.6322 49 36.5708 49 36.4482L49.0366 10.5702C49.0366 10.4721 49.0854 10.423 49.183 10.423H53.3915C53.4891 10.423 53.5378 10.4721 53.5378 10.5702L53.5744 36.4482C53.5744 36.5708 53.5257 36.6322 53.4281 36.6322Z" fill="black"/>
<path d="M61.2595 36.6322H57.0144C56.9168 36.6322 56.868 36.5708 56.868 36.4482L56.9412 10.5702C56.9412 10.4721 56.99 10.423 57.0876 10.423H61.6621C61.7597 10.423 61.845 10.4721 61.9182 10.5702L65.3399 15.5361L68.7433 10.5702C68.8165 10.4721 68.908 10.423 69.0178 10.423H73.6105C73.7203 10.423 73.7752 10.4721 73.7752 10.5702L73.8484 36.4482C73.8484 36.5708 73.7996 36.6322 73.702 36.6322H69.4569C69.3593 36.6322 69.3105 36.5708 69.3105 36.4482L69.2739 17.2282L65.3399 22.9666L61.4425 17.2282L61.4059 36.4482C61.4059 36.5708 61.3571 36.6322 61.2595 36.6322Z" fill="black"/>
<path d="M75.7331 36.4482L80.3807 10.5702C80.4051 10.4721 80.4661 10.423 80.5637 10.423H85.9981C86.0957 10.423 86.1567 10.4721 86.1811 10.5702L90.6458 36.4482C90.658 36.5708 90.6092 36.6322 90.4994 36.6322H86.3458C86.2238 36.6322 86.1567 36.5708 86.1445 36.4482L85.7419 33.6894H80.6369L80.2343 36.4482C80.2221 36.5708 80.1611 36.6322 80.0513 36.6322H75.8794C75.7819 36.6322 75.7331 36.5708 75.7331 36.4482ZM83.0705 19.0858L81.3871 29.6614H84.9917L83.4547 19.0858L83.2352 17.688L83.0705 19.0858Z" fill="black"/>
<path d="M99.8495 37C98.4955 37 97.2756 36.6628 96.19 35.9884C95.0921 35.314 94.2077 34.4067 93.5368 33.2663C92.8781 32.126 92.5487 30.8508 92.5487 29.4407V17.5041C92.5487 16.1308 92.8842 14.8801 93.5551 13.752C94.2138 12.6117 95.0982 11.7044 96.2083 11.03C97.3183 10.3433 98.5321 10 99.8495 10C101.228 10 102.472 10.3311 103.582 10.9932C104.692 11.6676 105.571 12.5688 106.217 13.6969C106.876 14.8249 107.205 16.094 107.205 17.5041V19.233C107.205 19.3311 107.144 19.3801 107.022 19.3801H102.814C102.716 19.3801 102.667 19.3311 102.667 19.233V17.7984C102.667 16.842 102.399 16.0511 101.862 15.4257C101.326 14.8004 100.655 14.4877 99.8495 14.4877C99.1298 14.4877 98.4894 14.7881 97.9283 15.389C97.3671 15.9898 97.0866 16.6948 97.0866 17.5041V29.4407C97.0866 30.2623 97.361 30.9734 97.91 31.5743C98.4589 32.1628 99.1054 32.4571 99.8495 32.4571C100.655 32.4571 101.326 32.1689 101.862 31.5926C102.399 31.0041 102.667 30.2868 102.667 29.4407V27.5831H100.051C99.9166 27.5831 99.8495 27.5218 99.8495 27.3992V23.1873C99.8495 23.0647 99.9166 23.0034 100.051 23.0034H107.059C107.156 23.0034 107.205 23.0647 107.205 23.1873V29.4407C107.205 30.8508 106.876 32.126 106.217 33.2663C105.546 34.4067 104.662 35.314 103.564 35.9884C102.466 36.6628 101.228 37 99.8495 37Z" fill="black"/>
<path d="M122.118 36.6322H110.005C109.907 36.6322 109.858 36.5708 109.858 36.4482L109.895 10.5702C109.895 10.4721 109.944 10.423 110.041 10.423H122.081C122.179 10.423 122.228 10.4843 122.228 10.6069V14.8188C122.228 14.9169 122.179 14.9659 122.081 14.9659H114.396V20.8515H122.081C122.179 20.8515 122.228 20.9005 122.228 20.9986L122.264 25.2657C122.264 25.3638 122.216 25.4128 122.118 25.4128H114.396V31.9973H122.118C122.216 31.9973 122.264 32.0586 122.264 32.1812V36.485C122.264 36.5831 122.216 36.6322 122.118 36.6322Z" fill="black"/>
<path d="M147.588 36.6322H135.475C135.378 36.6322 135.329 36.5708 135.329 36.4482L135.366 10.5702C135.366 10.4721 135.414 10.423 135.512 10.423H147.552C147.649 10.423 147.698 10.4843 147.698 10.6069V14.8188C147.698 14.9169 147.649 14.9659 147.552 14.9659H139.867V20.8515H147.552C147.649 20.8515 147.698 20.9005 147.698 20.9986L147.735 25.2657C147.735 25.3638 147.686 25.4128 147.588 25.4128H139.867V31.9973H147.588C147.686 31.9973 147.735 32.0586 147.735 32.1812V36.485C147.735 36.5831 147.686 36.6322 147.588 36.6322Z" fill="black"/>
<path d="M157.963 36.5954L151.248 36.6322C151.126 36.6322 151.065 36.5708 151.065 36.4482L151.138 10.5702C151.138 10.4721 151.187 10.423 151.285 10.423L158.293 10.3862C159.683 10.3495 160.94 10.6683 162.062 11.3426C163.196 12.017 164.099 12.9305 164.77 14.0831C165.453 15.2234 165.795 16.4864 165.795 17.8719V28.6866C165.795 30.1335 165.447 31.4578 164.752 32.6594C164.044 33.8488 163.105 34.799 161.934 35.5102C160.763 36.2091 159.439 36.5708 157.963 36.5954ZM158.293 14.8924L155.676 14.9292L155.639 31.9973H157.963C158.89 31.9973 159.671 31.6723 160.305 31.0225C160.94 30.3726 161.257 29.594 161.257 28.6866V17.8351C161.257 17.0381 160.964 16.3454 160.379 15.7568C159.793 15.156 159.098 14.8678 158.293 14.8924Z" fill="black"/>
<path d="M173.169 36.6322H168.924C168.802 36.6322 168.741 36.5708 168.741 36.4482L168.777 10.5702C168.777 10.4721 168.826 10.423 168.924 10.423H173.132C173.23 10.423 173.279 10.4721 173.279 10.5702L173.315 36.4482C173.315 36.5708 173.266 36.6322 173.169 36.6322Z" fill="black"/>
<path d="M184.605 36.6322H180.378C180.268 36.6322 180.213 36.5708 180.213 36.4482V14.9659H175.346C175.224 14.9659 175.163 14.9046 175.163 14.782L175.2 10.5702C175.2 10.4721 175.249 10.423 175.346 10.423H189.582C189.716 10.423 189.783 10.4721 189.783 10.5702V14.782C189.783 14.9046 189.734 14.9659 189.637 14.9659H184.715L184.751 36.4482C184.751 36.5708 184.702 36.6322 184.605 36.6322Z" fill="black"/>
<path d="M198.548 37C197.218 37 195.992 36.6567 194.87 35.97C193.76 35.2834 192.863 34.3699 192.18 33.2296C191.509 32.077 191.174 30.814 191.174 29.4407L191.21 17.5041C191.21 16.1063 191.546 14.8495 192.217 13.7337C192.875 12.6056 193.766 11.7044 194.888 11.03C196.01 10.3433 197.23 10 198.548 10C199.914 10 201.14 10.3372 202.226 11.0116C203.324 11.686 204.202 12.5933 204.861 13.7337C205.531 14.8617 205.867 16.1185 205.867 17.5041L205.903 29.4407C205.903 30.814 205.574 32.0708 204.915 33.2112C204.244 34.3638 203.354 35.2834 202.244 35.97C201.134 36.6567 199.902 37 198.548 37ZM198.548 32.4571C199.304 32.4571 199.963 32.1505 200.524 31.5375C201.085 30.9121 201.366 30.2132 201.366 29.4407L201.329 17.5041C201.329 16.6703 201.067 15.9653 200.542 15.389C200.018 14.8127 199.353 14.5245 198.548 14.5245C197.779 14.5245 197.121 14.8065 196.572 15.3706C196.023 15.9346 195.748 16.6458 195.748 17.5041V29.4407C195.748 30.2623 196.023 30.9734 196.572 31.5743C197.121 32.1628 197.779 32.4571 198.548 32.4571Z" fill="black"/>
<path d="M213.131 36.6322H208.886C208.788 36.6322 208.74 36.5708 208.74 36.4482L208.813 10.5702C208.813 10.4721 208.862 10.423 208.959 10.423H216.535C217.889 10.423 219.133 10.7541 220.267 11.4162C221.402 12.0783 222.304 12.9673 222.975 14.0831C223.658 15.1989 224 16.4619 224 17.8719C224 18.7916 223.86 19.6253 223.579 20.3733C223.299 21.1213 222.969 21.7527 222.591 22.2677C222.225 22.7827 221.89 23.1628 221.585 23.408C222.939 24.9162 223.616 26.688 223.616 28.7234L223.652 36.4482C223.652 36.5708 223.591 36.6322 223.469 36.6322H219.224C219.127 36.6322 219.078 36.5954 219.078 36.5218V28.7234C219.078 27.8161 218.761 27.0313 218.126 26.3692C217.492 25.7071 216.711 25.376 215.784 25.376H213.314L213.277 36.4482C213.277 36.5708 213.229 36.6322 213.131 36.6322ZM216.535 14.9292H213.314V20.8515H216.535C217.303 20.8515 217.986 20.5634 218.584 19.9871C219.194 19.4108 219.499 18.7057 219.499 17.8719C219.499 17.0749 219.206 16.3883 218.62 15.812C218.035 15.2234 217.34 14.9292 216.535 14.9292Z" fill="black"/>
<g clip-path="url(#clip0_3004_42)">
<path d="M8.96619 5.97827H5.26003C4.49561 5.97827 3.87592 6.5849 3.87592 7.33322V10.9613C3.87592 11.7096 4.49561 12.3162 5.26003 12.3162H8.96619C9.73062 12.3162 10.3503 11.7096 10.3503 10.9613V7.33322C10.3503 6.5849 9.73062 5.97827 8.96619 5.97827Z" fill="#ED1C24"/>
<path d="M2.80852 2.68018H1.06688C0.707314 2.68018 0.415833 2.96551 0.415833 3.3175V5.02244C0.415833 5.37442 0.707314 5.65976 1.06688 5.65976H2.80852C3.16808 5.65976 3.45957 5.37442 3.45957 5.02244V3.3175C3.45957 2.96551 3.16808 2.68018 2.80852 2.68018Z" fill="#8338EC"/>
<path d="M3.04705 13.6438H0.828859C0.371093 13.6438 0 14.0071 0 14.4552V16.6266C0 17.0748 0.371093 17.438 0.828859 17.438H3.04705C3.50482 17.438 3.87591 17.0748 3.87591 16.6266V14.4552C3.87591 14.0071 3.50482 13.6438 3.04705 13.6438Z" fill="#FFBE0B"/>
<path d="M12.2318 0H9.85808C9.36837 0 8.97137 0.388627 8.97137 0.868022V3.19172C8.97137 3.67112 9.36837 4.05974 9.85808 4.05974H12.2318C12.7215 4.05974 13.1185 3.67112 13.1185 3.19172V0.868022C13.1185 0.388627 12.7215 0 12.2318 0Z" fill="#FF006E"/>
<path d="M33.2264 10.5677H24.0862C23.9345 10.5678 23.7843 10.5385 23.6441 10.4817C23.5039 10.4249 23.3766 10.3417 23.2693 10.2366C23.162 10.1316 23.0769 10.0069 23.0189 9.86973C22.9609 9.73252 22.9311 9.58545 22.9311 9.43694V7.91025C22.9311 7.61462 22.8716 7.3219 22.756 7.04879C22.6405 6.77567 22.4711 6.52752 22.2575 6.31851C22.0439 6.1095 21.7904 5.94371 21.5114 5.83062C21.2324 5.71754 20.9333 5.65936 20.6314 5.65942H14.4766C13.8668 5.65942 13.2819 5.89656 12.8507 6.31867C12.4195 6.74079 12.1773 7.31329 12.1773 7.91025V12.4337C12.1773 12.6084 12.1422 12.7815 12.074 12.943C12.0057 13.1044 11.9056 13.2511 11.7794 13.3747C11.6532 13.4983 11.5034 13.5963 11.3385 13.6632C11.1736 13.7301 10.9968 13.7645 10.8183 13.7645H8.00454C7.39473 13.7645 6.8099 14.0017 6.3787 14.4238C5.94751 14.8459 5.70526 15.4184 5.70526 16.0153V22.0404C5.70526 22.6374 5.94751 23.2099 6.3787 23.632C6.8099 24.0541 7.39473 24.2913 8.00454 24.2913H10.8453C10.9971 24.2913 11.1473 24.3205 11.2875 24.3774C11.4276 24.4342 11.555 24.5176 11.6623 24.6226C11.7695 24.7277 11.8546 24.8524 11.9126 24.9896C11.9706 25.1268 12.0005 25.2739 12.0004 25.4225V31.3482C12.0004 32.847 12.6085 34.2843 13.691 35.3442C14.7734 36.4041 16.2416 36.9997 17.7726 37.0001H33.2269C34.7581 37 36.2265 36.4045 37.3091 35.3445C38.3918 34.2846 39 32.8471 39 31.3482V16.2196C38.9999 14.7206 38.3915 13.2831 37.3088 12.2232C36.2261 11.1633 34.7576 10.5678 33.2264 10.5677Z" fill="#8256FF"/>
</g>
<defs>
<clipPath id="clip0_3004_42">
<rect width="39" height="37" fill="white"/>
</clipPath>
</defs>
</svg>
