<svg width="39" height="37" viewBox="0 0 39 37" fill="none" xmlns="http://www.w3.org/2000/svg">
<g clip-path="url(#clip0_973_2280)">
<path d="M8.96625 5.97852H5.2601C4.49567 5.97852 3.87598 6.58515 3.87598 7.33346V10.9615C3.87598 11.7098 4.49567 12.3165 5.2601 12.3165H8.96625C9.73068 12.3165 10.3504 11.7098 10.3504 10.9615V7.33346C10.3504 6.58515 9.73068 5.97852 8.96625 5.97852Z" fill="#ED1C24"/>
<path d="M2.80871 2.67969H1.06706C0.707498 2.67969 0.416016 2.96503 0.416016 3.31701V5.02195C0.416016 5.37394 0.707498 5.65928 1.06706 5.65928H2.80871C3.16827 5.65928 3.45975 5.37394 3.45975 5.02195V3.31701C3.45975 2.96503 3.16827 2.67969 2.80871 2.67969Z" fill="#8338EC"/>
<path d="M3.04705 13.6445H0.828859C0.371093 13.6445 0 14.0078 0 14.4559V16.6274C0 17.0755 0.371093 17.4388 0.828859 17.4388H3.04705C3.50482 17.4388 3.87591 17.0755 3.87591 16.6274V14.4559C3.87591 14.0078 3.50482 13.6445 3.04705 13.6445Z" fill="#FFBE0B"/>
<path d="M12.2321 0H9.85839C9.36867 0 8.97168 0.388627 8.97168 0.868022V3.19172C8.97168 3.67112 9.36867 4.05974 9.85839 4.05974H12.2321C12.7218 4.05974 13.1188 3.67112 13.1188 3.19172V0.868022C13.1188 0.388627 12.7218 0 12.2321 0Z" fill="#FF006E"/>
<path d="M33.2262 10.5684H24.086C23.9343 10.5685 23.7841 10.5393 23.6439 10.4825C23.5037 10.4257 23.3764 10.3424 23.2691 10.2374C23.1618 10.1324 23.0768 10.0077 23.0187 9.87047C22.9607 9.73325 22.9309 9.58618 22.9309 9.43767V7.91098C22.9309 7.61536 22.8714 7.32263 22.7559 7.04952C22.6403 6.77641 22.4709 6.52826 22.2573 6.31924C22.0438 6.11023 21.7902 5.94444 21.5112 5.83136C21.2322 5.71827 20.9332 5.6601 20.6312 5.66016H14.4764C13.8666 5.66016 13.2817 5.8973 12.8505 6.31941C12.4193 6.74152 12.1771 7.31402 12.1771 7.91098V12.4344C12.1772 12.6092 12.1421 12.7822 12.0738 12.9437C12.0055 13.1051 11.9054 13.2519 11.7792 13.3754C11.653 13.499 11.5032 13.5971 11.3383 13.6639C11.1734 13.7308 10.9966 13.7653 10.8181 13.7653H8.00436C7.39455 13.7653 6.80972 14.0024 6.37852 14.4245C5.94732 14.8466 5.70508 15.4191 5.70508 16.0161V22.0412C5.70508 22.6381 5.94732 23.2106 6.37852 23.6327C6.80972 24.0548 7.39455 24.292 8.00436 24.292H10.8451C10.9969 24.292 11.1471 24.3212 11.2873 24.3781C11.4275 24.435 11.5548 24.5183 11.6621 24.6233C11.7694 24.7284 11.8544 24.8531 11.9124 24.9903C11.9705 25.1276 12.0003 25.2747 12.0002 25.4232V31.349C12.0002 32.8477 12.6083 34.2851 13.6908 35.3449C14.7732 36.4048 16.2414 37.0005 17.7724 37.0008H33.2267C34.7579 37.0007 36.2263 36.4052 37.3089 35.3453C38.3916 34.2854 38.9998 32.8479 38.9998 31.349V16.2203C38.9997 14.7214 38.3913 13.2839 37.3086 12.224C36.2259 11.1641 34.7574 10.5685 33.2262 10.5684Z" fill="#8256FF"/>
</g>
<defs>
<clipPath id="clip0_973_2280">
<rect width="39" height="37" fill="white"/>
</clipPath>
</defs>
</svg>
