<svg width="138" height="92" viewBox="0 0 138 92" fill="none" xmlns="http://www.w3.org/2000/svg">
<path d="M19.8674 48.8941C19.8674 50.1107 20.1344 51.0448 20.4835 51.6099C20.9411 52.3501 21.6237 52.6637 22.3195 52.6637C23.217 52.6637 24.0381 52.441 25.6204 50.2525C26.888 48.4985 28.3817 46.0364 29.3867 44.4929L31.0887 41.8779C32.271 40.0618 33.6394 38.0429 35.2084 36.6744C36.4893 35.5575 37.8711 34.937 39.2617 34.937C41.5963 34.937 43.8202 36.2899 45.5222 38.8274C47.3848 41.6064 48.289 45.1067 48.289 48.719C48.289 50.8664 47.8657 52.4443 47.1455 53.6908C46.4496 54.8964 45.0934 56.1009 42.8119 56.1009V52.6637C44.7654 52.6637 45.2529 50.8686 45.2529 48.8143C45.2529 45.8868 44.5704 42.638 43.0667 40.3166C41.9997 38.67 40.6168 37.6639 39.0955 37.6639C37.45 37.6639 36.1259 38.905 34.6378 41.1177C33.8466 42.2934 33.0344 43.7261 32.1225 45.3428L31.1186 47.1212C29.1019 50.6969 28.5911 51.5113 27.5828 52.8554C25.8154 55.2089 24.3063 56.1009 22.3195 56.1009C19.9627 56.1009 18.4724 55.0803 17.5493 53.5424C16.7959 52.2891 16.4258 50.6448 16.4258 48.7711L19.8674 48.8941Z" fill="#DFDFDF"/>
<path d="M19.1406 39.0701C20.7185 36.6379 22.9955 34.937 25.6072 34.937C27.1197 34.937 28.6234 35.3847 30.1935 36.6667C31.911 38.0684 33.7415 40.3765 36.0252 44.1804L36.844 45.5455C38.8208 48.8387 39.9455 50.5329 40.6036 51.3318C41.4502 52.3578 42.043 52.6637 42.8131 52.6637C44.7666 52.6637 45.2541 50.8686 45.2541 48.8143L48.2902 48.719C48.2902 50.8664 47.8669 52.4443 47.1467 53.6908C46.4508 54.8964 45.0946 56.1009 42.8131 56.1009C41.3948 56.1009 40.1383 55.7928 38.7488 54.482C37.6806 53.4759 36.4318 51.6886 35.4711 50.0819L32.6135 45.3084C31.1796 42.9128 29.8644 41.1266 29.1031 40.3177C28.2843 39.4479 27.2316 38.3975 25.5518 38.3975C24.1922 38.3975 23.0377 39.3515 22.0714 40.8108L19.1406 39.0701Z" fill="#DFDFDF"/>
<path d="M25.5506 38.3975C24.191 38.3975 23.0364 39.3515 22.0702 40.8108C20.704 42.8729 19.8674 45.9444 19.8674 48.8941C19.8674 50.1107 20.1344 51.0448 20.4835 51.6099L17.5493 53.5424C16.7959 52.2891 16.4258 50.6448 16.4258 48.7711C16.4258 45.3638 17.361 41.8125 19.1394 39.0701C20.7173 36.6379 22.9943 34.937 25.606 34.937L25.5506 38.3975Z" fill="#DFDFDF"/>
<path d="M54.9805 35.6062H58.9617L65.7308 47.8524L72.501 35.6062H76.3958V55.7285H73.1481V40.3066L67.2112 50.986H64.164L58.2282 40.3066V55.7285H54.9805V35.6062ZM86.5722 43.1088C84.2431 43.1088 82.8403 44.8618 82.5045 47.0325H90.4094C90.2465 44.7964 88.9567 43.1088 86.5722 43.1088ZM79.2845 48.269C79.2845 43.7016 82.2364 40.3775 86.6287 40.3775C90.949 40.3775 93.5286 43.6595 93.5286 48.5128V49.4048H82.5045C82.8957 51.7661 84.4625 53.3572 86.9888 53.3572C89.0044 53.3572 90.2642 52.7423 91.4587 51.6176L93.184 53.7306C91.5585 55.2254 89.4908 56.0875 86.8736 56.0875C82.1189 56.0875 79.2845 52.6204 79.2845 48.269ZM97.4666 43.3969H94.4771V40.7376H97.4666V36.3397H100.6V40.7376H105.142V43.3969H100.6V50.1372C100.6 52.4387 101.336 53.2564 103.144 53.2564C103.97 53.2564 104.443 53.1855 105.142 53.0691V55.6997C104.271 55.9456 103.44 56.0587 102.54 56.0587C99.1575 56.0587 97.4666 54.2104 97.4666 50.5106V43.3969ZM118.337 45.9831C117.707 44.3942 116.304 43.2241 114.24 43.2241C111.559 43.2241 109.842 45.1266 109.842 48.2258C109.842 51.2475 111.423 53.242 114.112 53.242C116.226 53.242 117.735 52.0121 118.337 50.4818V45.9831ZM121.47 55.7285H118.394V53.6298C117.535 54.8653 115.97 56.0875 113.436 56.0875C109.36 56.0875 106.637 52.6758 106.637 48.2258C106.637 43.7338 109.426 40.3775 113.609 40.3775C115.676 40.3775 117.299 41.2041 118.394 42.6634V40.7376H121.47V55.7285Z" fill="#DFDFDF"/>
</svg>
