<svg width="137" height="92" viewBox="0 0 137 92" fill="none" xmlns="http://www.w3.org/2000/svg">
<path d="M30.1997 57.8833C28.6195 58.1607 27.0115 58.2439 25.3482 58.4655L20.2747 43.6059V59.1033C18.6945 59.2695 17.2529 59.4913 15.7559 59.7131V31.3245H19.9699L25.7362 47.4319V31.3245H30.1997V57.8833ZM38.9325 41.7207C40.6515 41.7207 43.2852 41.6375 44.8653 41.6375V46.0731C42.8969 46.0731 40.596 46.0731 38.9325 46.1563V52.7546C41.5386 52.5883 44.1446 52.3663 46.7782 52.2831V56.5523L34.4967 57.5228V31.3245H46.7782V35.7602H38.9325V41.7207ZM63.2735 35.7603H58.6715V56.1646C57.1744 56.1646 55.6773 56.1646 54.236 56.2199V35.7603H49.634V31.3245H63.2737L63.2735 35.7603ZM70.4815 41.4158H76.553V45.8515H70.4815V55.9151H66.1287V31.3245H78.5214V35.7602H70.4815V41.4158ZM85.7294 52.0337C88.2522 52.089 90.8026 52.2834 93.2701 52.4218V56.8021C89.3058 56.5525 85.3413 56.3033 81.2937 56.2199V31.3245H85.7294V52.0337ZM97.0127 57.1071C98.4266 57.1904 99.9237 57.2736 101.365 57.4397V31.3245H97.0127V57.1071ZM120.799 31.3245L115.172 44.8257L120.799 59.7131C119.136 59.4913 117.473 59.1863 115.809 58.9091L112.621 50.7032L109.378 58.2439C107.769 57.9664 106.217 57.8833 104.609 57.6615L110.32 44.6593L105.164 31.3245H109.932L112.843 38.782L115.948 31.3245H120.799Z" fill="#DFDFDF"/>
</svg>
