<svg width="17" height="17" viewBox="0 0 17 17" fill="none" xmlns="http://www.w3.org/2000/svg">
<g clip-path="url(#clip0_3256_249)">
<path d="M10.7712 1.21875H6.58997C6.42244 1.21875 6.26769 1.308 6.18394 1.45312C6.10019 1.59825 6.10016 1.77675 6.18394 1.92188L10.654 9.65625H15.9267L11.1768 1.45266C11.1356 1.38156 11.0764 1.32253 11.0052 1.28148C10.9341 1.24043 10.8534 1.2188 10.7712 1.21875ZM5.48153 2.62334L0.731191 10.8277C0.690976 10.897 0.669225 10.9755 0.668022 11.0556C0.666818 11.1358 0.686201 11.2149 0.724316 11.2854L2.74947 15.0354C2.78908 15.1088 2.84755 15.1702 2.91885 15.2135C2.99015 15.2567 3.0717 15.2801 3.15507 15.2812H3.16194C3.24423 15.2812 3.32506 15.2595 3.39633 15.2184C3.4676 15.1772 3.52679 15.1181 3.56797 15.0468L8.11466 7.17944L5.48153 2.62334ZM16.6017 10.8222C16.5602 10.7525 16.5012 10.6949 16.4307 10.6548C16.3602 10.6148 16.2805 10.5937 16.1993 10.5938H7.24903L4.54035 15.2812H14.1742C14.2587 15.2813 14.3417 15.2584 14.4143 15.2151C14.4869 15.1719 14.5464 15.1098 14.5867 15.0354L16.6118 11.2854C16.6503 11.2139 16.6696 11.1337 16.6679 11.0525C16.6661 10.9713 16.6433 10.8919 16.6017 10.8222Z" fill="#8256FF"/>
</g>
<defs>
<clipPath id="clip0_3256_249">
<rect width="16" height="16" fill="white" transform="translate(0.667969 0.25)"/>
</clipPath>
</defs>
</svg>
