<svg width="28" height="28" viewBox="0 0 28 28" fill="none" xmlns="http://www.w3.org/2000/svg">
<g clip-path="url(#clip0_1_13243)">
<path d="M27.2895 10.7742C27.1957 10.4618 26.9302 10.2586 26.6021 10.2274L17.9209 9.66495L14.7026 1.57226C14.5932 1.29105 14.2964 1.15039 13.9995 1.13477C13.6871 1.13477 13.3746 1.27542 13.2497 1.57226L10.0314 9.66495L1.40666 10.2274C1.07852 10.2587 0.812986 10.4618 0.703625 10.7742C0.609888 11.0711 0.703625 11.4147 0.953541 11.6178L7.59418 17.1796L5.43821 25.616C5.36005 25.9129 5.48503 26.2409 5.73505 26.4284C6.00059 26.6159 6.34429 26.6315 6.60994 26.4597L13.9995 21.8196L21.3267 26.4597C21.6079 26.6315 21.9517 26.6159 22.2172 26.4284C22.4671 26.2409 22.5922 25.9284 22.5141 25.616L20.3581 17.1796L27.0551 11.6178C27.3051 11.4147 27.3988 11.0711 27.2895 10.7742Z" fill="#FFDA2D"/>
<path d="M27.0555 11.6178L20.3585 17.1795L22.5145 25.616C22.5926 25.9284 22.4676 26.2409 22.2177 26.4283C21.9521 26.6158 21.6084 26.6314 21.3272 26.4596L14 21.8196V1.13477C14.2968 1.15039 14.5937 1.29105 14.703 1.57226L17.9214 9.66495L26.6025 10.2274C26.9307 10.2587 27.1962 10.4618 27.2899 10.7742C27.3993 11.071 27.3056 11.4147 27.0555 11.6178Z" fill="#FDBF00"/>
<path d="M14.781 26.0849C14.781 26.5222 14.4374 26.866 13.9999 26.866C13.5624 26.866 13.2188 26.5222 13.2188 26.0849C13.2188 25.6474 13.5624 25.3037 13.9999 25.3037C14.4374 25.3037 14.781 25.6474 14.781 26.0849Z" fill="#979FEF"/>
<path d="M25.1432 18.7671C25.2765 18.3568 25.052 17.9162 24.6417 17.7829C24.2314 17.6496 23.7907 17.8741 23.6574 18.2844C23.5241 18.6947 23.7486 19.1354 24.1589 19.2687C24.5692 19.402 25.0099 19.1774 25.1432 18.7671Z" fill="#737EE6"/>
<path d="M21.059 6.76097C21.3126 6.41195 21.2352 5.92345 20.8862 5.66986C20.5372 5.41627 20.0487 5.49364 19.7951 5.84266C19.5415 6.19167 19.6189 6.68018 19.9679 6.93377C20.3169 7.18735 20.8054 7.10999 21.059 6.76097Z" fill="#737EE6"/>
<path d="M8.03075 6.93265C8.37977 6.67906 8.45712 6.19055 8.20353 5.84154C7.94994 5.49252 7.46143 5.41517 7.11241 5.66876C6.7634 5.92235 6.68605 6.41086 6.93964 6.75988C7.19323 7.10889 7.68174 7.18624 8.03075 6.93265Z" fill="#979FEF"/>
<path d="M3.83893 19.2709C4.24924 19.1376 4.47379 18.6969 4.34049 18.2866C4.20719 17.8763 3.76651 17.6517 3.35621 17.785C2.9459 17.9183 2.72134 18.359 2.85464 18.7693C2.98794 19.1796 3.42862 19.4042 3.83893 19.2709Z" fill="#979FEF"/>
<path d="M14.7811 26.0849C14.7811 26.5222 14.4375 26.866 14 26.866V25.3037C14.4375 25.3037 14.7811 25.6474 14.7811 26.0849Z" fill="#737EE6"/>
<path d="M19.2638 13.3835C19.17 13.071 18.8888 12.8679 18.5764 12.8366L15.7486 12.6648L14.7019 10.0245C14.5926 9.74329 14.2957 9.60273 13.9989 9.58711C13.6864 9.57148 13.3739 9.71204 13.249 10.0245L12.2023 12.6648L9.3745 12.8366C9.0621 12.8679 8.78083 13.071 8.68709 13.3835C8.57784 13.6803 8.68709 14.024 8.92149 14.2271L11.1088 16.0394L10.4057 18.7734C10.3276 19.0858 10.4525 19.4139 10.7026 19.6014C10.9681 19.7888 11.3119 19.8045 11.5774 19.6327L13.999 18.1172L16.3737 19.6327C16.6393 19.8045 16.983 19.7888 17.2486 19.6014C17.4985 19.4139 17.6236 19.0858 17.5455 18.7734L16.8424 16.0394L19.014 14.2271C19.2638 14.024 19.3575 13.6803 19.2638 13.3835Z" fill="#FDBF00"/>
<path d="M19.015 14.2269L16.8434 16.0392L17.5465 18.7732C17.6246 19.0856 17.4995 19.4137 17.2496 19.6012C16.984 19.7887 16.6403 19.8043 16.3747 19.6325L14 18.117V9.58691C14.2968 9.60254 14.5937 9.74309 14.703 10.0243L15.7497 12.6646L18.5775 12.8364C18.8899 12.8677 19.1711 13.0708 19.2649 13.3833C19.3587 13.6801 19.2649 14.0238 19.015 14.2269Z" fill="#FF9100"/>
</g>
<defs>
<clipPath id="clip0_1_13243">
<rect width="26.6667" height="26.6667" fill="white" transform="translate(0.667969 0.666992)"/>
</clipPath>
</defs>
</svg>
