<svg width="16" height="17" viewBox="0 0 16 17" fill="none" xmlns="http://www.w3.org/2000/svg">
<g clip-path="url(#clip0_3256_252)">
<path d="M7.42439 9.25385L3.32365 6.60939C3.25876 6.56754 3.18233 6.5472 3.10522 6.55124C3.02812 6.55529 2.95424 6.58352 2.89409 6.63193L0.137112 8.85055C-0.0581515 9.00768 -0.0423029 9.30987 0.168344 9.44571L4.26909 12.0902C4.33398 12.132 4.4104 12.1524 4.48751 12.1483C4.56462 12.1443 4.63849 12.116 4.69865 12.0676L7.45562 9.84905C7.65089 9.69189 7.63504 9.38969 7.42439 9.25385ZM8.54438 9.84901L11.3014 12.0676C11.3615 12.116 11.4354 12.1442 11.5125 12.1483C11.5896 12.1523 11.666 12.132 11.7309 12.0901L15.8317 9.44568C16.0423 9.30984 16.0582 9.00764 15.8629 8.85052L13.1059 6.63193C13.0458 6.58352 12.9719 6.55529 12.8948 6.55124C12.8177 6.5472 12.7412 6.56754 12.6764 6.60939L8.57561 9.25385C8.365 9.38969 8.34912 9.69189 8.54438 9.84901ZM7.45562 2.90439L4.69865 0.685804C4.63849 0.637396 4.56462 0.609165 4.48751 0.605119C4.4104 0.601073 4.33398 0.621418 4.26909 0.663265L0.168344 3.30773C-0.0423029 3.44357 -0.0581515 3.74576 0.137112 3.90289L2.89409 6.12148C2.95424 6.16989 3.02812 6.19812 3.10522 6.20216C3.18233 6.20621 3.25876 6.18587 3.32365 6.14402L7.42439 3.49956C7.63504 3.36372 7.65089 3.06152 7.45562 2.90439ZM15.8317 3.30773L11.7309 0.663265C11.666 0.621418 11.5896 0.601073 11.5125 0.605119C11.4354 0.609165 11.3615 0.637396 11.3014 0.685804L8.54438 2.90439C8.34912 3.06152 8.36497 3.36372 8.57561 3.49956L12.6764 6.14402C12.7413 6.18587 12.8177 6.20621 12.8948 6.20216C12.9719 6.19812 13.0458 6.16989 13.106 6.12148L15.8629 3.90289C16.0582 3.74573 16.0423 3.44353 15.8317 3.30773Z" fill="#8256FF"/>
<path d="M7.79885 10.2385L4.71142 12.7014C4.65685 12.7449 4.59 12.7702 4.52029 12.7737C4.45058 12.7772 4.38152 12.7588 4.32286 12.7209L3.56188 12.2302C3.34003 12.0871 3.04785 12.2464 3.04785 12.5103V12.7756C3.04786 12.8329 3.06263 12.8893 3.09076 12.9392C3.11888 12.9892 3.1594 13.031 3.20841 13.0607L7.8049 15.8471C7.85701 15.8787 7.91678 15.8954 7.97771 15.8954C8.03865 15.8954 8.09842 15.8787 8.15053 15.8471L12.747 13.0607C12.796 13.031 12.8366 12.9892 12.8647 12.9392C12.8928 12.8893 12.9076 12.8329 12.9076 12.7756V12.5388C12.9076 12.2749 12.6154 12.1156 12.3936 12.2587L11.6772 12.7206C11.6184 12.7585 11.5492 12.777 11.4794 12.7734C11.4096 12.7698 11.3427 12.7444 11.2881 12.7006L8.21521 10.239C8.15616 10.1917 8.08277 10.1658 8.00711 10.1658C7.93144 10.1657 7.85801 10.1914 7.79885 10.2385Z" fill="#8256FF"/>
</g>
<defs>
<clipPath id="clip0_3256_252">
<rect width="16" height="16" fill="white" transform="translate(0 0.25)"/>
</clipPath>
</defs>
</svg>
