<svg width="180" height="24" viewBox="0 0 180 24" fill="none" xmlns="http://www.w3.org/2000/svg">
<g clip-path="url(#clip0_3004_444)">
<path d="M23.9374 8.73761C23.8607 8.49978 23.7156 8.2898 23.5204 8.13383C23.3251 7.97787 23.0882 7.88283 22.8393 7.86056L15.9123 7.23152L13.1731 0.820266C12.9711 0.350426 12.5112 0.0463867 12.0001 0.0463867C11.4891 0.0463867 11.0291 0.350473 10.8271 0.821438L8.08796 7.23157L1.1598 7.86056C0.911176 7.88333 0.674703 7.97857 0.479701 8.13448C0.284698 8.29038 0.139741 8.50009 0.0628033 8.73761C-0.0952164 9.22362 0.0507092 9.75665 0.435797 10.0927L5.67187 14.6847L4.12786 21.4859C4.01489 21.986 4.20896 22.5029 4.6239 22.8029C4.84689 22.964 5.10785 23.0461 5.37097 23.0461C5.59785 23.0461 5.82286 22.9849 6.02489 22.864L12.0001 19.2928L17.9732 22.864C18.4102 23.127 18.9612 23.103 19.3752 22.8029C19.5779 22.6562 19.733 22.4531 19.8212 22.2189C19.9094 21.9848 19.9268 21.7299 19.8713 21.4859L18.3273 14.6847L23.5633 10.0936C23.7517 9.92909 23.8876 9.71287 23.9541 9.47179C24.0206 9.23072 24.0148 8.97542 23.9374 8.73761Z" fill="#FFC107"/>
</g>
<g clip-path="url(#clip1_3004_444)">
<path d="M101.937 8.73761C101.861 8.49978 101.716 8.2898 101.52 8.13383C101.325 7.97787 101.088 7.88283 100.839 7.86056L93.9123 7.23152L91.1731 0.820266C90.9711 0.350426 90.5112 0.0463867 90.0001 0.0463867C89.4891 0.0463867 89.0291 0.350473 88.8271 0.821438L86.088 7.23157L79.1598 7.86056C78.9112 7.88333 78.6747 7.97857 78.4797 8.13448C78.2847 8.29038 78.1397 8.50009 78.0628 8.73761C77.9048 9.22362 78.0507 9.75665 78.4358 10.0927L83.6719 14.6847L82.1279 21.4859C82.0149 21.986 82.209 22.5029 82.6239 22.8029C82.8469 22.964 83.1079 23.0461 83.371 23.0461C83.5979 23.0461 83.8229 22.9849 84.0249 22.864L90.0001 19.2928L95.9732 22.864C96.4102 23.127 96.9612 23.103 97.3752 22.8029C97.5779 22.6562 97.733 22.4531 97.8212 22.2189C97.9094 21.9848 97.9268 21.7299 97.8713 21.4859L96.3273 14.6847L101.563 10.0936C101.752 9.92909 101.888 9.71287 101.954 9.47179C102.021 9.23072 102.015 8.97542 101.937 8.73761Z" fill="#FFC107"/>
</g>
<g clip-path="url(#clip2_3004_444)">
<path d="M62.9374 8.73761C62.8607 8.49978 62.7156 8.2898 62.5204 8.13383C62.3251 7.97787 62.0882 7.88283 61.8393 7.86056L54.9123 7.23152L52.1731 0.820266C51.9711 0.350426 51.5112 0.0463867 51.0001 0.0463867C50.4891 0.0463867 50.0291 0.350473 49.8271 0.821438L47.088 7.23157L40.1598 7.86056C39.9112 7.88333 39.6747 7.97857 39.4797 8.13448C39.2847 8.29038 39.1397 8.50009 39.0628 8.73761C38.9048 9.22362 39.0507 9.75665 39.4358 10.0927L44.6719 14.6847L43.1279 21.4859C43.0149 21.986 43.209 22.5029 43.6239 22.8029C43.8469 22.964 44.1079 23.0461 44.371 23.0461C44.5979 23.0461 44.8229 22.9849 45.0249 22.864L51.0001 19.2928L56.9732 22.864C57.4102 23.127 57.9612 23.103 58.3752 22.8029C58.5779 22.6562 58.733 22.4531 58.8212 22.2189C58.9094 21.9848 58.9268 21.7299 58.8713 21.4859L57.3273 14.6847L62.5633 10.0936C62.7517 9.92909 62.8876 9.71287 62.9541 9.47179C63.0206 9.23072 63.0148 8.97542 62.9374 8.73761Z" fill="#FFC107"/>
</g>
<g clip-path="url(#clip3_3004_444)">
<path d="M140.937 8.73761C140.861 8.49978 140.716 8.2898 140.52 8.13383C140.325 7.97787 140.088 7.88283 139.839 7.86056L132.912 7.23152L130.173 0.820266C129.971 0.350426 129.511 0.0463867 129 0.0463867C128.489 0.0463867 128.029 0.350473 127.827 0.821438L125.088 7.23157L118.16 7.86056C117.911 7.88333 117.675 7.97857 117.48 8.13448C117.285 8.29038 117.14 8.50009 117.063 8.73761C116.905 9.22362 117.051 9.75665 117.436 10.0927L122.672 14.6847L121.128 21.4859C121.015 21.986 121.209 22.5029 121.624 22.8029C121.847 22.964 122.108 23.0461 122.371 23.0461C122.598 23.0461 122.823 22.9849 123.025 22.864L129 19.2928L134.973 22.864C135.41 23.127 135.961 23.103 136.375 22.8029C136.578 22.6562 136.733 22.4531 136.821 22.2189C136.909 21.9848 136.927 21.7299 136.871 21.4859L135.327 14.6847L140.563 10.0936C140.752 9.92909 140.888 9.71287 140.954 9.47179C141.021 9.23072 141.015 8.97542 140.937 8.73761Z" fill="#FFC107"/>
</g>
<g clip-path="url(#clip4_3004_444)">
<path d="M179.937 8.73761C179.861 8.49978 179.716 8.2898 179.52 8.13383C179.325 7.97787 179.088 7.88283 178.839 7.86056L171.912 7.23152L169.173 0.820266C168.971 0.350426 168.511 0.0463867 168 0.0463867C167.489 0.0463867 167.029 0.350473 166.827 0.821438L164.088 7.23157L157.16 7.86056C156.911 7.88333 156.675 7.97857 156.48 8.13448C156.285 8.29038 156.14 8.50009 156.063 8.73761C155.905 9.22362 156.051 9.75665 156.436 10.0927L161.672 14.6847L160.128 21.4859C160.015 21.986 160.209 22.5029 160.624 22.8029C160.847 22.964 161.108 23.0461 161.371 23.0461C161.598 23.0461 161.823 22.9849 162.025 22.864L168 19.2928L173.973 22.864C174.41 23.127 174.961 23.103 175.375 22.8029C175.578 22.6562 175.733 22.4531 175.821 22.2189C175.909 21.9848 175.927 21.7299 175.871 21.4859L174.327 14.6847L179.563 10.0936C179.752 9.92909 179.888 9.71287 179.954 9.47179C180.021 9.23072 180.015 8.97542 179.937 8.73761Z" fill="#FFC107"/>
</g>
<defs>
<clipPath id="clip0_3004_444">
<rect width="24" height="24" fill="white"/>
</clipPath>
<clipPath id="clip1_3004_444">
<rect width="24" height="24" fill="white" transform="translate(78)"/>
</clipPath>
<clipPath id="clip2_3004_444">
<rect width="24" height="24" fill="white" transform="translate(39)"/>
</clipPath>
<clipPath id="clip3_3004_444">
<rect width="24" height="24" fill="white" transform="translate(117)"/>
</clipPath>
<clipPath id="clip4_3004_444">
<rect width="24" height="24" fill="white" transform="translate(156)"/>
</clipPath>
</defs>
</svg>
