<svg width="610" height="524" viewBox="0 0 610 524" fill="none" xmlns="http://www.w3.org/2000/svg">
<path d="M202.592 523.906H396.569C479.402 486.827 537.114 403.714 537.114 307.13C537.114 176.011 430.765 69.7209 299.58 69.7209C168.396 69.7209 62.0469 176.011 62.0469 307.13C62.0469 403.718 119.755 486.827 202.592 523.906Z" fill="#F5F5FE"/>
<path d="M389.44 424.501C373.841 430.017 355.029 429.455 340.833 420.355C326.88 411.41 314.17 404.952 297.004 405.265C281.664 405.545 268.98 413.833 254.124 415.597C242.343 416.997 230.37 411.861 221.831 403.626C213.494 395.59 207.959 383.334 211.585 372.339C213.484 366.581 217.632 361.833 219.999 356.253C225.457 343.381 211.083 335.617 214.659 322.068C217.699 310.545 230.35 302.327 230.161 290.411C230.023 281.688 223.269 274.93 220.888 266.86C218.487 258.72 219.019 249.6 223.252 242.162C226.363 236.697 231.36 232.225 237.151 229.758C242.353 227.543 248.161 227.5 252.185 222.96C259.354 214.863 261.983 206.09 271.815 200.17C280.142 195.159 291.135 194.839 300.688 195.714C321.914 197.659 342.514 208.856 354.467 226.689C358.702 233.009 361.76 239.477 361.867 246.988C361.985 255.199 361.982 263.458 367.016 270.441C371.241 276.303 378.026 279.733 384.753 282.378C391.481 285.023 398.532 287.163 404.434 291.329C410.34 295.496 415.03 302.294 414.34 309.485C413.764 315.506 409.596 320.736 409.04 326.756C408.03 337.703 418.586 345.659 425.091 354.523C434.199 366.938 435.711 384.491 428.855 398.276C420.963 414.146 406.619 417.727 391.592 423.701C390.882 423.983 390.164 424.252 389.444 424.508L389.44 424.501Z" fill="#0B2D4E"/>
<path d="M276.023 219.797C281.182 216.785 287.179 215.405 293.135 215.166C299.115 214.937 305.105 215.705 310.91 217.148C322.55 220.076 333.153 227.002 340.547 236.526C344.2 241.315 347.028 246.763 348.705 252.575C350.392 258.404 350.735 264.502 350.665 270.465C350.604 276.442 350.18 282.385 350.375 288.267C350.5 291.185 350.86 294.103 351.749 296.825C352.624 299.538 354.14 302.042 356.382 303.677C358.594 305.356 361.439 306.067 364.311 306.41C367.194 306.75 370.204 306.77 373.207 307.17C379.154 307.971 385.197 309.385 390.376 312.79C392.922 314.49 395.211 316.859 396.326 319.847C397.481 322.836 397.248 326.104 396.474 329.082C395.575 332.094 393.868 334.621 392.676 337.256C391.484 339.895 390.719 342.732 390.46 345.622C389.911 351.438 391.403 357.27 393.474 362.785C395.507 368.348 397.949 373.83 399.373 379.673C400.07 382.587 400.494 385.589 400.447 388.601C400.41 391.609 399.861 394.604 398.881 397.431C396.925 403.098 393.238 408.123 388.47 411.683C393.154 408.008 396.689 402.93 398.487 397.297C400.369 391.66 400.12 385.542 398.565 379.871C397.076 374.15 394.595 368.735 392.467 363.159C390.309 357.62 388.662 351.623 389.157 345.508C389.389 342.469 390.154 339.471 391.376 336.671C392.618 333.884 394.275 331.394 395.063 328.668C395.753 325.915 395.938 322.987 394.915 320.383C393.932 317.771 391.895 315.651 389.517 314.076C384.689 310.913 378.793 309.526 373.012 308.782C370.11 308.405 367.15 308.402 364.116 308.062C361.123 307.716 357.948 306.982 355.369 305.04C352.776 303.135 351.096 300.268 350.17 297.34C349.224 294.392 348.87 291.343 348.752 288.328C348.577 282.307 349.035 276.364 349.116 270.445C349.21 264.539 348.894 258.612 347.288 252.972C345.668 247.345 342.998 242.031 339.503 237.31C332.422 227.931 322.112 220.995 310.698 217.946C304.997 216.388 299.074 215.486 293.145 215.577C287.236 215.678 281.249 216.903 276.023 219.793V219.797Z" fill="#6C63FF"/>
<path d="M351.109 351.76C351.662 365.215 348.544 375.321 336.23 381.974C326.425 387.274 314.684 389.014 303.863 389.28C285.714 389.728 265.495 385.05 251.919 372.309C249.454 369.997 247.09 367.163 246.912 363.788C246.75 360.722 248.437 357.831 248.585 354.766C248.835 349.593 244.811 345.309 243.013 340.453C240.636 334.039 242.252 326.877 244.387 320.379C246.521 313.88 249.191 307.318 248.872 300.486C248.457 291.626 243.127 283.885 238.861 276.105C234.595 268.324 231.238 258.858 234.881 250.771C237.282 245.44 243.013 241.341 248.865 240.692C255.05 240.005 260.606 247.069 264.569 250.959C269.899 256.196 275.838 260.813 282.229 264.686C291.064 270.047 300.768 273.998 309.078 280.14C314.109 283.855 319.503 288.957 321.903 294.876C324.611 301.546 319.87 308.005 325.601 314.139C329.298 318.097 334.971 319.443 339.443 322.506C349.008 329.058 350.668 341.133 351.106 351.757L351.109 351.76Z" fill="#061F33"/>
<path d="M250.888 427.046C263.629 407.419 271.558 383.334 260.487 361.173C259.366 358.929 258.016 356.475 255.632 355.685C250.507 353.982 243.554 355.812 239.096 358.427C223.634 367.493 214.173 384.556 205.489 399.733C196.466 415.503 188.63 431.919 179.559 447.665C175.886 454.042 172.179 460.504 170.206 467.595C168.482 473.803 168.29 480.918 170.647 486.992C180.826 513.265 208.816 481.083 217.338 471.36C229.497 457.485 240.85 442.513 250.888 427.039V427.046Z" fill="#6C63FF"/>
<path d="M366.185 402.715C369.849 387.759 371.748 372.46 363.448 362.274C359.7 357.673 353.02 354.47 347.555 352.191C336.895 347.749 325.996 341.776 314.585 339.841C302.554 337.798 289.174 336.539 277.184 339.46C269.567 341.315 262.443 344.747 255.631 348.449C249.722 351.663 242.472 354.429 239.604 360.406C232.651 374.894 226.482 390.007 221.364 405.185C217.081 417.885 212.381 431.195 219.128 444.068C221.314 448.237 224.489 451.808 226.991 455.792C229.775 460.231 230.816 464.401 231.179 469.519C232.014 481.2 231.688 492.918 231.654 504.616C231.644 507.988 231.691 511.491 233.22 514.524C236.237 520.5 244.439 520.585 250.348 520.574C269.823 520.541 289.298 520.51 308.77 520.477C316.871 520.463 323.063 521.419 330.67 522.927C337.07 524.196 342.565 521.079 345.64 515.338C348.545 509.9 348.768 503.553 349.081 497.441C350.293 473.669 353.791 450.007 359.515 426.854C361.135 420.298 363.977 411.724 366.185 402.711V402.715Z" fill="#6C63FF"/>
<mask id="mask0_856_1904" style="mask-type:luminance" maskUnits="userSpaceOnUse" x="215" y="337" width="155" height="187">
<path d="M366.189 402.714C369.853 387.759 371.752 372.46 363.452 362.273C359.704 357.673 353.024 354.469 347.559 352.191C336.899 347.749 326 341.775 314.589 339.84C302.558 337.798 289.178 336.539 277.188 339.46C269.571 341.314 262.446 344.747 255.635 348.449C249.726 351.663 242.476 354.429 239.608 360.406C232.655 374.893 226.486 390.007 221.368 405.185C217.085 417.885 212.385 431.195 219.132 444.067C221.318 448.237 224.493 451.807 226.995 455.792C229.779 460.231 230.82 464.4 231.183 469.519C232.018 481.2 231.692 492.918 231.658 504.616C231.648 507.988 231.695 511.491 233.224 514.523C236.24 520.5 244.443 520.584 250.352 520.574C269.827 520.541 289.302 520.51 308.774 520.477C316.875 520.463 323.067 521.419 330.673 522.927C337.074 524.195 342.569 521.079 345.644 515.338C348.549 509.899 348.772 503.552 349.085 497.441C350.297 473.669 353.795 450.007 359.519 426.854C361.139 420.298 363.981 411.723 366.189 402.711V402.714Z" fill="white"/>
</mask>
<g mask="url(#mask0_856_1904)">
<path d="M321.086 359.214C325.669 351.777 326.712 342.489 320.706 335.324C317.958 332.05 313.103 331.683 308.951 331.605C300.776 331.457 292.584 332.295 284.624 334.092C277.038 335.805 269.3 338.703 266.014 346.09C263.573 351.578 264.425 357.925 267.64 362.946C270.563 367.506 275.408 370.882 280.816 372.124C289.547 374.129 299.769 373.857 308.099 370.485C313.318 368.371 318.002 364.212 321.083 359.214H321.086Z" fill="#6C63FF"/>
<path d="M373.086 471.276C373.025 459.81 372.965 448.341 372.904 436.876C372.884 432.884 375.571 408.584 369.13 408.86C368.436 408.89 367.8 409.236 367.234 409.623C364.028 411.834 362.382 415.533 360.887 419.046C356.193 430.061 352.25 447.695 342.483 455.405C332.55 463.243 317.28 466.548 304.936 468.429C290.522 470.626 275.872 470.788 261.309 471.643C251.888 472.195 241.494 473.504 235.305 480.376C230.884 485.282 228.635 492.639 226.275 498.632C224.211 503.872 222.571 510.095 226.756 514.84C228.541 516.866 231.022 518.195 233.514 519.326C242.605 523.458 252.538 525.541 262.451 527.14C290.188 531.616 318.462 532.548 346.553 531.256C352.56 530.98 359.072 530.404 363.503 526.484C366.8 523.566 368.352 519.275 369.46 515.092C373.224 500.85 373.17 485.965 373.093 471.269L373.086 471.276Z" fill="#6C63FF"/>
</g>
<path d="M240.264 273.167C229.638 284.094 239.278 310.795 256.224 306.931C274.433 302.778 271.696 274.416 255.228 269.758C248.807 267.941 243.685 269.647 240.264 273.164V273.167Z" fill="#3F3D56"/>
<path d="M385.319 422.708C395.969 424.064 407.188 423.132 416.703 418.155C428.814 411.821 434.875 400.204 435.124 386.84C435.306 377.162 433.431 367.069 427.586 359.349C421.228 350.956 410.575 345.794 406.619 336.038C404.06 329.718 404.673 321.116 409.737 316.226C412.959 313.113 415.481 309.603 415.067 304.939C414.457 298.074 409.434 291.481 403.821 287.772C395.592 282.337 385.356 280.349 375.726 279.124C369.204 278.296 362.705 276.465 360.688 269.445C359.601 265.659 359.816 261.661 359.611 257.771C359.177 249.472 358.567 241.17 357.328 232.945C355.897 223.465 349.739 214.294 342.87 207.762C341.883 206.823 340.86 205.925 339.803 205.07C322.092 190.73 289.31 185.652 269.777 198.942C263.117 203.471 258.451 210.407 256.966 218.336C255.972 223.633 254.538 224.774 249.36 226.379C239.952 229.297 229.275 231.37 221.803 238.265C215.958 243.66 213.271 251.831 214.049 259.669C215.042 269.674 222.042 274.463 227.053 282.395C232.171 290.492 228.147 300.678 222.204 307.358C217.628 312.504 211.133 316.263 208.547 322.644C206.167 328.513 207.742 335.301 210.618 340.948C211.783 343.236 213.153 345.42 214.18 347.769C217.312 354.924 216.988 363.502 213.328 370.401" stroke="#0B2D4E" stroke-width="4" stroke-miterlimit="10"/>
<path d="M415.509 438.191C418.765 444.064 422.004 449.946 425.183 455.866C431.634 467.88 443.614 494.574 424.435 501.17C414.775 504.491 409.247 501.244 402.859 494.207C378.697 467.591 358.094 437.757 341.767 405.743C335.689 393.827 319.554 362.778 339.154 355.684C345.343 353.443 352.474 353.964 358.272 357.081C360.922 358.504 363.273 360.426 365.518 362.428C379.663 375.035 389.734 391.303 398.694 407.799C404.233 417.996 409.9 428.079 415.509 438.188V438.191Z" fill="#6C63FF"/>
<path d="M304.47 363.929C310.305 362.058 315.113 358.434 316.912 352.669C318.545 347.439 315.969 341.554 315.511 336.277C315.07 331.219 315.012 326.13 315.346 321.066C315.652 316.384 316.1 311.505 315.379 306.837C314.969 304.168 313.504 304.626 310.804 303.566C308.107 302.506 305.076 302.496 302.14 302.502C296.133 302.516 280.473 302.082 276.763 307.349C275.059 309.768 274.924 312.81 274.843 315.691C274.746 319.167 274.129 323.67 273.56 328.52C273.308 330.68 273.463 332.831 273.133 334.974C272.762 337.377 271.85 339.679 271.052 341.978C268.032 350.677 270.86 358.949 280.271 362.933C287.025 365.79 296.665 366.427 304.467 363.926L304.47 363.929Z" fill="#F8A17A"/>
<path d="M315.358 306.837C314.948 304.168 313.483 304.626 310.782 303.566C308.085 302.506 305.055 302.496 302.119 302.502C296.112 302.516 280.452 302.082 276.741 307.349C275.038 309.768 274.903 312.81 274.822 315.691C274.724 319.167 274.108 323.67 273.539 328.52C273.287 330.68 273.442 332.831 273.112 334.974C272.829 336.802 272.233 338.572 271.613 340.329C277.435 342.489 284.014 342.97 290.088 341.476C301.031 338.784 309.318 331.976 315.23 323.125C315.261 322.435 315.281 321.749 315.325 321.059C315.631 316.378 316.079 311.498 315.358 306.83V306.837Z" fill="#E5785C"/>
<path d="M324.079 272.561C324.032 264.545 322.924 256.939 320.86 250.623C311.955 223.374 277.947 216.643 257.469 236.202C234.633 258.013 243.371 310.165 267.425 328.482C273.856 333.379 282.597 335.102 290.409 333.009C314.042 326.675 324.228 297.606 324.079 272.561Z" fill="#F8A17A"/>
<path d="M319.603 273.235C330.065 267.517 333.287 281.995 331.486 289.2C330.742 292.175 329.566 295.079 327.718 297.526C325.23 300.824 318.108 306.292 314.007 302.685C312.145 301.049 311.953 298.266 311.896 295.789C311.741 289.146 312.509 277.108 319.6 273.231L319.603 273.235Z" fill="#F8A17A"/>
<path d="M285.535 320.927C282.969 320.927 280.387 320.739 277.801 320.359L278.262 317.222C287.653 318.605 297.017 317.3 305.343 313.443C307.606 312.396 309.522 311.296 311.202 310.078C314.259 307.863 316.886 304.972 318.792 301.715L321.529 303.317C319.401 306.951 316.475 310.175 313.061 312.645C311.212 313.985 309.121 315.186 306.673 316.32C300.081 319.373 292.885 320.931 285.528 320.931L285.535 320.927Z" fill="#6C63FF"/>
<path d="M268.624 314.722C272.449 311.44 280.957 311.72 283.762 315.129C285.84 317.653 285.207 320.86 282.917 322.993C280.21 325.517 276.86 325.373 273.483 324.612C269.254 323.66 264.011 318.679 268.624 314.725V314.722Z" fill="#6C63FF"/>
<path d="M324.13 251.747C314.756 223.061 278.95 215.973 257.391 236.566C252.626 241.116 249.189 246.931 246.902 253.459C247.384 254.203 247.919 254.947 248.566 255.694C251.522 259.12 255.606 261.354 259.714 263.256C271.718 268.802 284.654 272.056 297.651 274.489C298.607 274.668 299.57 274.846 300.533 275.034C304.112 275.741 307.661 276.623 310.786 278.46C319.618 283.663 315.82 295.109 322.291 300.126C322.877 300.58 323.47 300.873 324.059 301.082C326.449 292.537 327.571 283.468 327.52 274.846C327.47 266.406 326.305 258.4 324.133 251.75L324.13 251.747Z" fill="#E5785C"/>
<path d="M301.458 271.757C304.879 273.022 308.243 274.459 311.034 276.775C318.923 283.32 313.347 294.012 318.933 299.995C323.883 305.296 331.401 298.292 333.371 293.396C337.001 284.377 336.785 274.338 336.519 264.619C336.371 259.201 336.209 253.702 334.62 248.52C332.886 242.866 329.509 237.821 325.485 233.483C313.872 220.961 296.35 214.449 279.383 215.519C266.114 216.354 242.841 227.5 253.241 244.38C255.615 248.234 259.289 251.091 263.043 253.621C274.006 261.008 286.259 266.285 298.7 270.758C299.616 271.087 300.539 271.414 301.458 271.757Z" fill="#0B2D4E"/>
<path d="M324.005 269.115C309.237 272.901 303.53 300.709 320.005 306.245C337.709 312.195 350.17 286.564 338.551 274.009C334.018 269.112 328.759 267.897 324.005 269.115Z" fill="#3F3D56"/>
<path d="M328.844 272.682C318.648 274.321 312.368 295.967 322.874 301.927C334.164 308.328 344.76 289.051 338.116 277.949C335.527 273.618 332.123 272.157 328.84 272.686L328.844 272.682Z" fill="#6C63FF"/>
<path d="M330.899 271.06L326.96 270.606C329.633 247.527 328.492 218.04 307.899 208.624C298.144 204.165 270.214 199.214 257.921 215.795C256.443 217.454 255.453 218.848 255.453 218.848C263.076 195.338 299.023 200.207 309.549 205.02C332.31 215.429 333.724 246.679 330.899 271.064V271.06Z" fill="#3F3D56"/>
<path d="M256.985 488.93H176V504.778H256.985V488.93Z" fill="#E4E4EF"/>
<path d="M189.893 490.465L169.455 386.467C168.917 383.721 166.506 381.739 163.704 381.739H27.8362C25.8698 381.739 24.1829 382.711 23.1256 384.155L23.1088 384.138L16.8359 391.552L22.4017 390.33L42.5234 492.723C43.0621 495.469 45.4729 497.452 48.2743 497.452H184.146C187.836 497.452 190.607 494.083 189.897 490.465H189.893Z" fill="#E4E4EF"/>
<path d="M42.0624 504.775H177.934C181.624 504.775 184.395 501.406 183.685 497.788L163.247 393.79C162.708 391.044 160.297 389.062 157.496 389.062H21.6243C17.934 389.062 15.1629 392.43 15.8733 396.048L36.3115 500.046C36.8502 502.792 39.261 504.775 42.0624 504.775Z" fill="white"/>
<path d="M84.8005 444.343C86.053 451.36 92.7603 457.044 99.7772 457.044C106.794 457.044 111.39 451.357 110.033 444.343C108.68 437.327 101.973 431.643 95.0566 431.643C88.1406 431.643 83.5446 437.33 84.8005 444.343Z" fill="#6C63FF"/>
<path d="M474.796 442.688C476.294 439.595 476.025 436.341 475.082 433.393C474.173 430.377 472.554 427.779 470.799 424.939C469.028 422.139 467.217 419.087 466.109 415.412C464.984 411.697 465.308 407.53 466.338 404.007C468.57 396.819 473.139 391.525 476.291 386.107C477.87 383.364 479.16 380.581 479.672 377.498C480.244 374.446 480.049 371.195 478.547 368.129C481.146 370.404 482.409 374.089 482.577 377.66C482.739 381.268 481.83 384.926 480.446 388.143C477.712 394.668 473.618 399.969 472.022 405.696C471.116 408.533 470.894 411.279 471.537 414.029C472.072 416.849 473.547 419.693 474.874 422.779C476.281 425.791 477.628 429.274 477.927 432.854C478.23 436.381 477.426 440.369 474.796 442.681V442.688Z" fill="white"/>
<path d="M456.008 446.638H496.386V496.031C496.386 500.675 492.615 504.444 487.968 504.444H464.425C459.779 504.444 456.008 500.675 456.008 496.031V446.638Z" fill="#9B87FF"/>
<path d="M499.196 459.713C489.513 459.713 481.664 467.672 481.664 477.492C481.664 487.312 489.513 495.271 499.196 495.271C508.88 495.271 516.729 487.312 516.729 477.492C516.729 467.672 508.88 459.713 499.196 459.713ZM499.196 488.93C492.967 488.93 487.917 483.808 487.917 477.492C487.917 471.175 492.967 466.053 499.196 466.053C505.425 466.053 510.476 471.175 510.476 477.492C510.476 483.808 505.425 488.93 499.196 488.93Z" fill="#9B87FF"/>
<path opacity="0.2" d="M462.037 482.502C460.835 482.502 459.855 481.52 459.855 480.322V452.188C459.855 450.986 460.839 450.007 462.037 450.007C463.239 450.007 464.219 450.989 464.219 452.188V480.322C464.219 481.523 463.236 482.502 462.037 482.502Z" fill="white"/>
<path d="M487.058 446.638V494.224C487.058 499.867 482.479 504.444 476.832 504.444H486.155C491.802 504.444 496.381 499.867 496.381 494.224V446.638H487.058Z" fill="#8070F2"/>
<path d="M387.811 245.541L525.629 245.541C533.253 245.541 539.434 239.364 539.434 231.743V158.938C539.434 151.318 533.253 145.14 525.629 145.14H387.811C380.187 145.14 374.006 151.318 374.006 158.938V231.743C374.006 239.364 380.187 245.541 387.811 245.541Z" fill="#3F3D56"/>
<path d="M395.777 271.969V225.831L431.93 245.541L395.777 271.969Z" fill="#3F3D56"/>
<path d="M478.067 191.101H402.233C400.56 191.101 399.203 192.457 399.203 194.13V196.832C399.203 198.505 400.56 199.861 402.233 199.861H478.067C479.74 199.861 481.097 198.505 481.097 196.832V194.13C481.097 192.457 479.74 191.101 478.067 191.101Z" fill="white"/>
<path d="M511.206 191.101H490.425C488.751 191.101 487.395 192.457 487.395 194.13V196.832C487.395 198.505 488.751 199.861 490.425 199.861H511.206C512.88 199.861 514.237 198.505 514.237 196.832V194.13C514.237 192.457 512.88 191.101 511.206 191.101Z" fill="white"/>
<path d="M435.371 179.971H511.204C512.878 179.971 514.234 178.615 514.234 176.943V174.24C514.234 172.568 512.878 171.212 511.204 171.212H435.371C433.697 171.212 432.34 172.568 432.34 174.24V176.943C432.34 178.615 433.697 179.971 435.371 179.971Z" fill="white"/>
<path d="M402.231 179.971H423.013C424.686 179.971 426.043 178.615 426.043 176.943V174.24C426.043 172.568 424.686 171.212 423.013 171.212H402.231C400.557 171.212 399.201 172.568 399.201 174.24V176.943C399.201 178.615 400.557 179.971 402.231 179.971Z" fill="white"/>
<path d="M453.689 209.287H402.233C400.56 209.287 399.203 210.643 399.203 212.316V215.018C399.203 216.691 400.56 218.047 402.233 218.047H453.689C455.363 218.047 456.719 216.691 456.719 215.018V212.316C456.719 210.643 455.363 209.287 453.689 209.287Z" fill="white"/>
<path d="M532.629 273.984C528.925 273.964 525.329 273.486 522.791 269.855C517.811 262.724 510.205 256.323 501.679 263.576C496.76 267.759 500.46 276.36 496.228 280.5C492.484 284.158 487.726 283.555 485.81 289.626C482.995 298.561 491.871 306.389 494.719 314.116C497.11 320.601 491.733 323.071 489.315 328.122C487.453 332.016 488.409 336.189 490.44 339.914C494.019 346.48 501.955 351.767 500.117 360.271C498.581 367.368 497.157 373.692 503.42 379.07C507.713 382.758 515.683 386.117 515.077 392.941C514.861 395.358 513.191 397.414 512.73 399.793C512.006 403.562 514.447 407.227 517.282 409.812C523.733 415.694 529.4 421.244 534.232 428.647C536.296 431.811 544.566 438.952 541.259 443.276C547.266 435.415 553.613 427.792 559.071 419.531C563.559 412.733 570.324 402.792 565.721 394.422C564.29 391.817 561.623 389.879 560.896 386.998C559.579 381.795 564.691 376.973 566.593 372.548C569.576 365.598 567.388 357.528 562.128 352.315C559.64 349.849 556.943 347.133 556.576 343.65C556.179 339.847 558.562 336.3 559.647 332.79C560.643 329.556 561.266 326.116 561.63 322.754C561.886 320.382 561.987 317.956 561.428 315.633C560.367 311.222 556.391 308.768 553.448 305.635C546.441 298.181 550.125 289.414 547.064 280.752C544.316 272.975 538.347 274.021 532.633 273.988L532.629 273.984Z" fill="#3DC8E8"/>
<mask id="mask1_856_1904" style="mask-type:luminance" maskUnits="userSpaceOnUse" x="485" y="260" width="83" height="184">
<path d="M532.621 273.985C528.918 273.964 525.322 273.487 522.783 269.855C517.803 262.724 510.197 256.324 501.671 263.576C496.752 267.759 500.452 276.361 496.22 280.5C492.476 284.158 487.718 283.556 485.802 289.627C482.987 298.562 491.863 306.389 494.712 314.116C497.102 320.601 491.725 323.071 489.307 328.122C487.445 332.016 488.402 336.189 490.432 339.914C494.011 346.48 501.947 351.767 500.109 360.271C498.574 367.369 497.149 373.692 503.412 379.07C507.705 382.758 515.675 386.117 515.069 392.942C514.853 395.358 513.183 397.414 512.722 399.793C511.998 403.562 514.439 407.227 517.274 409.812C523.726 415.694 529.392 421.244 534.224 428.648C536.288 431.811 544.558 438.952 541.251 443.277C547.258 435.415 553.605 427.793 559.063 419.531C563.551 412.733 570.316 402.792 565.713 394.422C564.282 391.818 561.615 389.879 560.888 386.998C559.572 381.796 564.683 376.973 566.585 372.548C569.568 365.598 567.38 357.528 562.12 352.316C559.632 349.849 556.935 347.133 556.568 343.65C556.171 339.847 558.555 336.3 559.639 332.79C560.636 329.556 561.258 326.117 561.622 322.755C561.878 320.382 561.979 317.956 561.42 315.634C560.359 311.222 556.383 308.769 553.44 305.635C546.433 298.181 550.117 289.415 547.056 280.752C544.309 272.975 538.339 274.022 532.625 273.988L532.621 273.985Z" fill="white"/>
</mask>
<g mask="url(#mask1_856_1904)">
<path d="M542.002 452.137C544.605 422.334 542.214 392.292 536.706 362.94C531.45 334.937 524.554 306.84 514.096 280.298C510.641 271.528 506.762 262.919 502.352 254.587" stroke="#26A8D1" stroke-width="5" stroke-miterlimit="10"/>
<path d="M478.809 294.55C493.486 299.729 507.486 306.823 520.341 315.597C523.604 317.821 525.419 318.504 528.136 321.365" stroke="#26A8D1" stroke-width="5" stroke-miterlimit="10"/>
<path d="M535.098 353.298C521.01 344.198 505.034 338.036 488.484 335.314" stroke="#26A8D1" stroke-width="5" stroke-miterlimit="10"/>
<path d="M540.667 391.747C527.556 380.392 511.575 372.373 494.629 368.651" stroke="#26A8D1" stroke-width="5" stroke-miterlimit="10"/>
<path d="M527.41 320.386C528.434 304.616 532.36 289.041 538.936 274.668" stroke="#26A8D1" stroke-width="5" stroke-miterlimit="10"/>
<path d="M534.918 351.999C541.578 337.754 551.201 324.902 562.999 314.496" stroke="#26A8D1" stroke-width="5" stroke-miterlimit="10"/>
<path d="M541.543 392.84C542.462 388.438 544.078 384.185 546.307 380.281C548.903 375.738 552.297 371.709 555.755 367.786C558.244 364.959 560.779 362.169 563.352 359.416" stroke="#26A8D1" stroke-width="5" stroke-miterlimit="10"/>
</g>
<path d="M578.139 328.311C580.829 328.809 583.503 328.961 585.849 326.676C590.449 322.193 596.853 318.602 602.035 325.04C605.021 328.755 601.149 334.483 603.648 338.071C605.857 341.244 609.392 341.463 609.941 346.134C610.746 353.006 603.223 357.455 600.085 362.668C597.452 367.039 601.011 369.577 602.065 373.575C602.877 376.657 601.604 379.551 599.617 381.971C596.112 386.238 589.624 388.974 589.779 395.399C589.91 400.76 590.068 405.542 584.779 408.577C581.152 410.657 574.906 411.993 574.405 417.028C574.226 418.808 575.156 420.534 575.156 422.325C575.159 425.158 572.883 427.48 570.465 428.964C564.97 432.34 560.091 435.58 555.559 440.282C553.623 442.291 546.636 446.329 548.434 449.92C545.165 443.388 541.616 436.98 538.805 430.23C536.491 424.677 532.959 416.533 537.458 411.098C538.858 409.408 541.057 408.369 541.987 406.38C543.663 402.789 540.623 398.582 539.855 395.109C538.653 389.658 541.36 384.105 545.896 381.049C548.041 379.602 550.374 378.007 551.125 375.53C551.94 372.824 550.701 369.923 550.401 367.228C550.125 364.744 550.152 362.163 550.35 359.676C550.492 357.919 550.758 356.146 551.482 354.537C552.862 351.481 556.088 350.253 558.657 348.389C564.771 343.95 563.314 337.081 566.735 331.222C569.805 325.962 573.991 327.547 578.139 328.311Z" fill="#26A8D1"/>
<mask id="mask2_856_1904" style="mask-type:luminance" maskUnits="userSpaceOnUse" x="535" y="321" width="75" height="129">
<path d="M578.135 328.312C580.825 328.81 583.499 328.961 585.845 326.676C590.445 322.193 596.849 318.603 602.031 325.04C605.018 328.756 601.145 334.483 603.644 338.071C605.853 341.244 609.388 341.463 609.937 346.134C610.742 353.006 603.22 357.455 600.081 362.668C597.448 367.04 601.007 369.577 602.061 373.575C602.873 376.658 601.6 379.552 599.613 381.971C596.108 386.239 589.62 388.975 589.775 395.399C589.906 400.76 590.064 405.542 584.775 408.577C581.148 410.657 574.902 411.993 574.401 417.028C574.222 418.808 575.152 420.534 575.152 422.325C575.155 425.158 572.879 427.48 570.461 428.965C564.966 432.34 560.087 435.581 555.555 440.282C553.619 442.291 546.633 446.33 548.431 449.92C545.161 443.388 541.612 436.981 538.801 430.23C536.488 424.677 532.955 416.533 537.454 411.098C538.855 409.409 541.053 408.369 541.983 406.38C543.659 402.789 540.619 398.583 539.851 395.11C538.649 389.658 541.356 384.105 545.892 381.049C548.037 379.602 550.37 378.007 551.121 375.53C551.936 372.824 550.697 369.924 550.397 367.228C550.121 364.744 550.148 362.163 550.346 359.676C550.488 357.92 550.754 356.146 551.478 354.537C552.858 351.482 556.084 350.253 558.653 348.389C564.768 343.95 563.31 337.082 566.731 331.223C569.801 325.963 573.987 327.548 578.135 328.312Z" fill="white"/>
</mask>
<g mask="url(#mask2_856_1904)">
<path d="M546.656 456.24C548.895 434.262 554.791 412.801 562.852 392.269C570.542 372.687 579.435 353.259 590.698 335.449C594.418 329.567 598.425 323.859 602.775 318.424" stroke="#3DC8E8" stroke-width="5" stroke-miterlimit="10"/>
<path d="M614.316 350.674C602.952 352.4 591.814 355.607 581.275 360.194C578.602 361.359 577.191 361.601 574.82 363.3" stroke="#3DC8E8" stroke-width="5" stroke-miterlimit="10"/>
<path d="M565.355 385.498C576.834 380.847 589.279 378.586 601.659 378.902" stroke="#3DC8E8" stroke-width="5" stroke-miterlimit="10"/>
<path d="M555.988 412.616C567.073 406.191 579.773 402.587 592.582 402.23" stroke="#3DC8E8" stroke-width="5" stroke-miterlimit="10"/>
<path d="M575.492 362.688C576.933 351.108 576.243 339.266 573.465 327.931" stroke="#3DC8E8" stroke-width="5" stroke-miterlimit="10"/>
<path d="M565.668 384.579C562.809 373.326 557.607 362.671 550.492 353.491" stroke="#3DC8E8" stroke-width="5" stroke-miterlimit="10"/>
<path d="M555.204 413.289C555.147 409.971 554.565 406.659 553.487 403.52C552.235 399.865 550.329 396.476 548.366 393.148C546.952 390.752 545.501 388.379 544.016 386.027" stroke="#3DC8E8" stroke-width="5" stroke-miterlimit="10"/>
</g>
<path d="M520.508 448.627H575.485L565.842 503.617H530.154L520.508 448.627Z" fill="#3F3D56"/>
<path d="M513.772 448.627H582.211V433.191H513.772V448.627Z" fill="#3F3D56"/>
<path opacity="0.1" d="M574.206 455.92H521.787L520.508 448.627H575.485L574.206 455.92Z" fill="#231F20"/>
<path d="M321.185 480.14C322.835 479.858 324.484 479.588 326.141 479.326C334.188 478.064 342.202 476.566 350.168 474.833C365.95 471.404 381.822 468.459 397.89 466.938C399.594 466.777 401.297 466.632 403.001 466.504C410.203 465.959 417.752 465.784 424.345 469.227C430.938 472.669 436.18 480.813 434.571 488.661C433.44 494.177 429.221 498.326 424.53 500.42C419.843 502.513 414.678 502.876 409.618 503.216C393.213 504.32 376.812 505.424 360.408 506.528C352.286 507.069 344.165 507.631 336.047 508.193C328.293 508.732 320.42 509.826 312.642 509.819C309.353 509.816 305.679 509.2 302.918 507.006C299.076 503.957 296.763 497.465 296.393 492.39C296.201 489.755 296.713 486.558 298.733 484.926C299.814 484.054 301.188 483.785 302.511 483.543C308.743 482.395 314.949 481.2 321.185 480.137V480.14Z" fill="#6C63FF"/>
<path d="M302.779 505.121C298.812 505.939 295.711 509.422 291.765 510.586C288.947 511.417 285.933 510.973 283.226 509.96C280.738 509.028 278.206 508.527 275.65 507.709C273.66 507.073 270.97 505.73 268.832 506.174C263.226 507.342 257.633 511.33 252.552 513.918C251.411 514.5 250.158 515.099 248.899 514.86C247.64 514.621 246.589 513.093 247.306 512.03C245.845 513.396 243.909 516.126 241.549 515.065C240.586 514.631 240.003 513.356 240.535 512.444C239.724 513.332 238.872 514.251 237.754 514.692C236.636 515.133 235.168 514.941 234.508 513.935C234.198 513.46 234.104 512.878 234.077 512.313C233.979 510.367 234.569 508.446 235.38 506.676C239.383 497.943 248.434 491.468 256.138 486.265C257.502 485.346 258.889 484.411 260.461 483.933C261.869 483.502 263.36 483.455 264.832 483.448C274.384 483.405 283.94 484.949 292.994 487.995C294.954 488.655 297.109 488.093 299.062 487.726C300.506 487.456 302.018 487.187 303.429 487.598C305.008 488.059 306.233 489.311 307.196 490.643C308.967 493.097 310.318 496.348 310.109 499.43C309.947 501.773 309.772 504.296 307.015 504.788C305.897 504.986 304.749 504.865 303.621 504.983C303.338 505.013 303.062 505.057 302.786 505.114L302.779 505.121Z" fill="#F8A17A"/>
<path d="M593.289 524H10.7443C4.81155 524 0 519.416 0 513.763C0 508.109 4.81155 503.525 10.7443 503.525H593.289C599.221 503.525 604.033 508.109 604.033 513.763C604.033 519.416 599.221 524 593.289 524Z" fill="#6C63FF"/>
<path d="M138.681 158.729H116.92C107.667 158.729 100.098 166.295 100.098 175.543C100.098 181.26 102.993 186.332 107.391 189.374V201.206L119.499 192.356H138.681C147.934 192.356 155.503 184.79 155.503 175.543C155.503 166.295 147.934 158.729 138.681 158.729Z" fill="#6C63FF"/>
<path d="M115.611 178.094C117.02 178.094 118.163 176.952 118.163 175.543C118.163 174.134 117.02 172.992 115.611 172.992C114.201 172.992 113.059 174.134 113.059 175.543C113.059 176.952 114.201 178.094 115.611 178.094Z" fill="white"/>
<path d="M127.798 178.094C129.208 178.094 130.351 176.952 130.351 175.543C130.351 174.134 129.208 172.992 127.798 172.992C126.389 172.992 125.246 174.134 125.246 175.543C125.246 176.952 126.389 178.094 127.798 178.094Z" fill="white"/>
<path d="M139.99 178.094C141.399 178.094 142.542 176.952 142.542 175.543C142.542 174.134 141.399 172.992 139.99 172.992C138.58 172.992 137.438 174.134 137.438 175.543C137.438 176.952 138.58 178.094 139.99 178.094Z" fill="white"/>
<path d="M467.63 306.009C464.273 300.272 455.805 297.391 447.619 306.952C439.434 297.387 430.962 300.272 427.609 306.009C419.339 320.15 447.619 336.789 447.619 336.789C447.619 336.789 475.899 320.15 467.63 306.009Z" fill="#6C63FF"/>
<path d="M276.615 128.415H234.54C232.309 128.415 230.5 130.223 230.5 132.453V157.824C230.5 160.055 232.309 161.863 234.54 161.863H276.615C278.847 161.863 280.656 160.055 280.656 157.824V132.453C280.656 130.223 278.847 128.415 276.615 128.415Z" fill="#6C63FF"/>
<path d="M231.309 129.489L253.269 150.771C254.528 151.989 256.629 151.989 257.885 150.771L279.845 129.489" fill="#6C63FF"/>
<path d="M231.309 129.489L253.269 150.771C254.528 151.989 256.629 151.989 257.885 150.771L279.845 129.489" stroke="white" stroke-width="5" stroke-miterlimit="10"/>
<path d="M231.309 160.786L249.326 146.951" stroke="white" stroke-width="4" stroke-miterlimit="10"/>
<path d="M279.845 160.786L261.828 146.951" stroke="white" stroke-width="4" stroke-miterlimit="10"/>
<path d="M191.31 252.164H141.451C139.219 252.164 137.41 253.972 137.41 256.202V288.348C137.41 290.578 139.219 292.386 141.451 292.386H191.31C193.542 292.386 195.351 290.578 195.351 288.348V256.202C195.351 253.972 193.542 252.164 191.31 252.164Z" fill="#6C63FF"/>
<path d="M166.373 305.097L176.532 291.404H156.215L166.373 305.097Z" fill="#6C63FF"/>
<path d="M181.624 277.448H179.119V270.589L179.143 269.462L179.183 268.23C178.766 268.647 178.476 268.92 178.315 269.048L176.951 270.142L175.742 268.634L179.564 265.595H181.624V277.448Z" fill="white"/>
<path d="M163.04 265.198H154.818C151.323 265.198 148.461 268.058 148.461 271.551C148.461 273.712 149.555 275.63 151.215 276.778V281.25L155.791 277.905H163.04C166.535 277.905 169.397 275.045 169.397 271.551C169.397 268.058 166.539 265.198 163.04 265.198Z" fill="white"/>
<path d="M17.1912 53.1975C16.8713 51.2658 19.4303 47.3687 22.2216 47.4327C23.3327 47.4562 24.4169 47.7457 25.5247 47.6918C28.4776 47.5471 30.0096 45.2486 31.1477 43.3472C32.2858 41.4458 34.5518 39.2752 37.4307 39.7564C41.5755 40.453 43.6631 45.9183 48.3737 41.8126C51.4579 39.1271 51.6902 35.3714 55.1819 32.7667C57.5793 30.9797 61.475 29.9196 64.6905 30.909C68.8859 32.1979 70.4448 36.3541 74.9096 37.0776C79.8558 37.8786 83.4114 34.1162 84.9906 31.4071C86.9065 28.1158 87.6169 24.5587 89.2601 21.2102C90.7786 18.1108 93.8325 13.958 99.3074 14.0488C103.934 14.1262 105.974 17.0541 108.247 19.3761C111.2 22.3982 117.341 33.2546 124.227 31.9455C126.911 31.434 128.254 29.3038 130.675 28.348C134.571 26.8134 139.534 28.9235 141.881 31.5754C144.228 34.2272 145.157 37.431 147.81 39.9382C148.497 40.5877 149.329 41.2001 150.406 41.4963C154.11 42.5092 157.558 39.393 161.524 39.1608C164.262 38.9992 166.8 40.2848 168.373 41.853C169.945 43.4212 170.804 45.2722 172.006 46.9918C172.343 47.4697 172.723 47.9543 173.326 48.2807C175.067 49.2129 177.514 48.4255 179.642 48.062C184.909 47.1567 190.888 49.573 192.373 53.2042H17.1912V53.1975Z" fill="#F5F5FE"/>
<path d="M572.508 34.5126C572.791 32.8097 570.535 29.3771 568.074 29.4309C567.094 29.4511 566.138 29.7069 565.161 29.6598C562.559 29.5319 561.208 27.506 560.205 25.8301C559.202 24.1541 557.205 22.2393 554.666 22.6667C551.013 23.2792 549.171 28.0983 545.02 24.4806C542.302 22.1114 542.097 18.8033 539.019 16.5048C536.908 14.9298 533.47 13.9943 530.639 14.8659C526.942 16.0034 525.568 19.6648 521.632 20.3042C517.271 21.0109 514.137 17.6961 512.746 15.3034C511.056 12.4025 510.43 9.26601 508.985 6.31464C507.645 3.58201 504.955 -0.0794541 500.13 0.00131332C496.049 0.0686195 494.254 2.64981 492.251 4.69929C489.648 7.36461 484.234 16.9322 478.166 15.7779C475.799 15.3269 474.617 13.4491 472.483 12.6078C469.048 11.2549 464.674 13.1159 462.607 15.4514C460.54 17.7903 459.718 20.6105 457.381 22.8248C456.775 23.3969 456.041 23.9388 455.092 24.1979C451.826 25.0897 448.789 22.3436 445.294 22.1417C442.883 22.0003 440.644 23.1345 439.256 24.5142C437.869 25.8974 437.115 27.5295 436.054 29.0439C435.758 29.4646 435.425 29.892 434.889 30.178C433.357 30.9992 431.199 30.3059 429.32 29.9828C424.68 29.1853 419.407 31.3121 418.098 34.5159H572.512L572.508 34.5126Z" fill="#F5F5FE"/>
</svg>
